<svg width="140" height="131" viewBox="0 0 140 131" fill="none" xmlns="http://www.w3.org/2000/svg">
<path d="M48.0153 37.4321C46.9653 37.4321 45.9154 37.342 44.8554 37.1521C40.0854 36.312 35.8853 33.6621 33.0353 29.6921C27.1553 21.4821 28.9354 10.0921 37.0054 4.31208C45.0754 -1.46792 56.4253 0.512006 62.3153 8.73201C65.1653 12.702 66.3153 17.5321 65.5753 22.3221C64.8253 27.1221 62.2554 31.312 58.3454 34.112C55.2954 36.292 51.7153 37.4321 48.0153 37.4321ZM47.3554 4.00203C44.3554 4.00203 41.3554 4.89203 38.7554 6.75203C32.0254 11.572 30.5554 21.0821 35.4754 27.9521C37.8654 31.2821 41.3754 33.5021 45.3754 34.2021C49.3554 34.9021 53.3454 34.0021 56.6054 31.6721C59.8554 29.3421 61.9954 25.862 62.6154 21.862C63.2354 17.852 62.2654 13.812 59.8854 10.482C56.8654 6.26201 52.1254 4.01204 47.3654 4.01204L47.3554 4.00203Z" fill="#1A1A1A" stroke="black" stroke-width="2" stroke-miterlimit="10"/>
<path d="M73.7549 91.942C73.2849 91.942 72.8248 91.722 72.5348 91.312L58.0548 71.102L12.4449 68.162C9.67485 67.952 7.1548 66.5219 5.5148 64.2419C4.2648 62.5119 3.66491 60.462 3.75491 58.312C3.88491 55.832 4.97486 53.582 6.82486 51.962C8.65486 50.342 11.0048 49.5619 13.4348 49.7419L51.3948 51.3619L78.0849 32.2519C78.1349 32.2119 78.1949 32.182 78.2549 32.152C83.4149 29.402 89.7949 28.752 96.2449 30.302L129.285 37.662C129.365 37.682 129.455 37.7019 129.535 37.7419C131.935 38.7319 133.895 40.492 134.915 42.562C135.785 44.282 136.035 46.342 135.585 48.342C135.175 50.102 134.255 51.682 132.915 52.902C132.885 52.932 132.855 52.9519 132.825 52.9819C132.285 53.4719 131.695 53.892 131.075 54.222C129.305 55.212 127.205 55.6319 125.185 55.3819C125.135 55.3819 125.085 55.372 125.045 55.352L95.4449 48.672L113.945 74.5019C114.425 75.1719 114.275 76.112 113.595 76.592C112.925 77.072 111.985 76.9219 111.505 76.2419L90.7049 47.212C90.3449 46.702 90.3248 46.0319 90.6748 45.5119C91.0148 44.9919 91.6449 44.7419 92.2549 44.8819L125.625 52.422C126.995 52.582 128.415 52.292 129.645 51.602C130.085 51.362 130.495 51.0819 130.845 50.7519C130.885 50.7119 130.925 50.6819 130.975 50.6419C131.795 49.8919 132.405 48.852 132.675 47.692C132.965 46.382 132.815 45.042 132.245 43.912C131.555 42.502 130.205 41.302 128.525 40.572L95.5949 33.2319C89.8849 31.8519 84.2748 32.4019 79.7848 34.7619L52.7648 54.1119C52.4948 54.3119 52.1649 54.4019 51.8249 54.3919L13.3048 52.7519C11.6348 52.6219 10.0749 53.1519 8.85489 54.2319C7.61489 55.3219 6.88484 56.8319 6.80484 58.4819C6.74484 59.9319 7.15491 61.3319 8.00491 62.5119C9.12491 64.0719 10.8449 65.042 12.7049 65.182L59.0049 68.172C59.4549 68.202 59.8649 68.432 60.1249 68.792L75.0148 89.582C75.4948 90.252 75.3448 91.192 74.6648 91.672C74.4048 91.862 74.0948 91.952 73.7948 91.952L73.7549 91.942Z" fill="#1A1A1A" stroke="black" stroke-width="2" stroke-miterlimit="10"/>
<path d="M69.7747 102.332C60.5047 102.332 51.7347 99.3121 46.3247 94.2421C41.4547 89.6821 33.4547 86.9622 24.9247 86.9622C16.3947 86.9622 8.39468 89.6821 3.52468 94.2421C2.92468 94.8121 1.97469 94.7821 1.40469 94.1721C0.834687 93.5621 0.874755 92.6221 1.47476 92.0521C6.88476 86.9821 15.6547 83.9622 24.9247 83.9622C34.1947 83.9622 42.9648 86.9821 48.3748 92.0521C53.2448 96.6121 61.2447 99.3322 69.7747 99.3322C78.3047 99.3322 86.3047 96.6121 91.1747 92.0521C96.5847 86.9821 105.355 83.9622 114.625 83.9622C123.895 83.9622 132.665 86.9821 138.075 92.0521C138.685 92.6221 138.715 93.5621 138.145 94.1721C137.575 94.7721 136.625 94.8121 136.025 94.2421C131.155 89.6821 123.155 86.9622 114.625 86.9622C106.095 86.9622 98.0948 89.6821 93.2248 94.2421C87.8148 99.3121 79.0447 102.332 69.7747 102.332Z" fill="#1A1A1A" stroke="black" stroke-width="2" stroke-miterlimit="10"/>
<path d="M69.7747 129.502C60.5047 129.502 51.7347 126.482 46.3247 121.412C41.4547 116.852 33.4547 114.132 24.9247 114.132C16.3947 114.132 8.39468 116.852 3.52468 121.412C2.92468 121.982 1.97469 121.952 1.40469 121.342C0.834687 120.732 0.874755 119.792 1.47476 119.222C6.88476 114.152 15.6547 111.132 24.9247 111.132C34.1947 111.132 42.9648 114.152 48.3748 119.222C53.2448 123.782 61.2447 126.502 69.7747 126.502C78.3047 126.502 86.3047 123.782 91.1747 119.222C96.5847 114.152 105.355 111.132 114.625 111.132C123.895 111.132 132.665 114.152 138.075 119.222C138.685 119.792 138.715 120.732 138.145 121.342C137.575 121.942 136.625 121.982 136.025 121.412C131.155 116.852 123.155 114.132 114.625 114.132C106.095 114.132 98.0948 116.852 93.2248 121.412C87.8148 126.482 79.0447 129.502 69.7747 129.502Z" fill="#1A1A1A" stroke="black" stroke-width="2" stroke-miterlimit="10"/>
</svg>
