<svg width="151" height="148" viewBox="0 0 151 148" fill="none" xmlns="http://www.w3.org/2000/svg">
<path d="M81.6304 97.3525C72.5404 97.3525 65.1504 89.8325 65.1504 80.5825C65.1504 71.3325 72.5404 63.8125 81.6304 63.8125C90.7204 63.8125 98.1104 71.3325 98.1104 80.5825C98.1104 89.8325 90.7204 97.3525 81.6304 97.3525ZM81.6304 66.8225C74.2004 66.8225 68.1504 73.0025 68.1504 80.5925C68.1504 88.1825 74.2004 94.3625 81.6304 94.3625C89.0604 94.3625 95.1104 88.1825 95.1104 80.5925C95.1104 73.0025 89.0604 66.8225 81.6304 66.8225Z" fill="#1A1A1A" stroke="black" stroke-width="2" stroke-miterlimit="10"/>
<path d="M97.3105 146.522C96.4805 146.522 95.8105 145.852 95.8105 145.022V123.852C95.8105 123.402 96.0106 122.972 96.3606 122.692L121.361 102.232C122.001 101.702 122.951 101.802 123.471 102.442C123.991 103.082 123.9 104.032 123.26 104.552L98.8105 124.562V145.022C98.8105 145.852 98.1405 146.522 97.3105 146.522Z" fill="#1A1A1A" stroke="black" stroke-width="2" stroke-miterlimit="10"/>
<path d="M47.6309 146.522C46.8009 146.522 46.1309 145.852 46.1309 145.022V123.692C46.1309 114.462 53.2408 107.232 62.3208 107.232L93.3508 107.282L110.431 93.8324C111.081 93.3224 112.021 93.4324 112.541 94.0824C113.051 94.7324 112.941 95.6724 112.291 96.1924L94.8008 109.962C94.5408 110.172 94.2108 110.282 93.8708 110.282L62.3208 110.232C54.8008 110.232 49.1309 116.022 49.1309 123.692V145.022C49.1309 145.852 48.4609 146.522 47.6309 146.522Z" fill="#1A1A1A" stroke="black" stroke-width="2" stroke-miterlimit="10"/>
<path d="M60.8616 146.522H60.8516C60.0216 146.522 59.3516 145.852 59.3516 145.022V126.422C59.3516 125.592 60.0216 124.922 60.8516 124.922C61.6816 124.922 62.3516 125.592 62.3516 126.422V145.022C62.3616 145.852 61.6916 146.522 60.8616 146.522Z" fill="#1A1A1A" stroke="black" stroke-width="2" stroke-miterlimit="10"/>
<path d="M135.83 95.0025H124C121.15 95.0025 118.83 92.6825 118.83 89.8325V68.5025C118.83 65.6525 121.15 63.3325 124 63.3325H135.83C138.68 63.3325 141 65.6525 141 68.5025V89.8325C141 92.6825 138.68 95.0025 135.83 95.0025ZM124 66.3325C122.8 66.3325 121.83 67.3025 121.83 68.5025V89.8325C121.83 91.0225 122.8 92.0025 124 92.0025H135.83C137.03 92.0025 138 91.0325 138 89.8325V68.5025C138 67.3125 137.03 66.3325 135.83 66.3325H124Z" fill="#1A1A1A" stroke="black" stroke-width="2" stroke-miterlimit="10"/>
<path d="M129.92 54.0224C129.09 54.0224 128.42 53.3524 128.42 52.5224V46.4824C128.42 45.6524 129.09 44.9824 129.92 44.9824C130.75 44.9824 131.42 45.6524 131.42 46.4824V52.5224C131.42 53.3524 130.75 54.0224 129.92 54.0224Z" fill="#1A1A1A" stroke="black" stroke-width="2" stroke-miterlimit="10"/>
<path d="M116.201 60.4424C115.821 60.4424 115.431 60.2924 115.141 60.0024L110.351 55.2124C109.761 54.6224 109.761 53.6724 110.351 53.0924C110.941 52.5024 111.891 52.5024 112.471 53.0924L117.261 57.8824C117.851 58.4724 117.851 59.4224 117.261 60.0024C116.971 60.2924 116.581 60.4424 116.201 60.4424Z" fill="#1A1A1A" stroke="black" stroke-width="2" stroke-miterlimit="10"/>
<path d="M143.631 60.4424C143.251 60.4424 142.861 60.2924 142.571 60.0024C141.981 59.4124 141.981 58.4624 142.571 57.8824L147.361 53.0924C147.951 52.5024 148.902 52.5024 149.482 53.0924C150.072 53.6824 150.072 54.6324 149.482 55.2124L144.692 60.0024C144.402 60.2924 144.011 60.4424 143.631 60.4424Z" fill="#1A1A1A" stroke="black" stroke-width="2" stroke-miterlimit="10"/>
<path d="M37.6299 127.922H12.1699C11.3399 127.922 10.6699 127.252 10.6699 126.422C10.6699 125.592 11.3399 124.922 12.1699 124.922H37.6299C38.4599 124.922 39.1299 125.592 39.1299 126.422C39.1299 127.252 38.4599 127.922 37.6299 127.922Z" fill="#1A1A1A" stroke="black" stroke-width="2" stroke-miterlimit="10"/>
<path d="M37.6299 127.922H21.8398C21.0098 127.922 20.3398 127.252 20.3398 126.422V46.4824C20.3398 45.6524 21.0098 44.9824 21.8398 44.9824H40.24C41.07 44.9824 41.74 45.6524 41.74 46.4824V112.362C41.74 113.192 41.07 113.862 40.24 113.862C39.41 113.862 38.74 113.192 38.74 112.362V47.9824H23.3398V124.922H37.6299C38.4599 124.922 39.1299 125.592 39.1299 126.422C39.1299 127.252 38.4599 127.922 37.6299 127.922Z" fill="#1A1A1A" stroke="black" stroke-width="2" stroke-miterlimit="10"/>
<path d="M102.92 47.9825H7.71021C4.01021 47.9825 1 44.9725 1 41.2725V33.9825C1 31.2525 2.63015 28.8225 5.15015 27.7825L69.4202 1.1125C69.7902 0.9625 70.2001 0.9625 70.5701 1.1125L134.86 27.7825C137.37 28.8125 138.99 31.2425 138.99 33.9825V36.1225C138.99 36.9525 138.32 37.6225 137.49 37.6225C136.66 37.6225 135.99 36.9525 135.99 36.1225V33.9825C135.99 32.4725 135.1 31.1325 133.71 30.5625L69.9902 4.13252L6.29004 30.5625C4.89004 31.1325 3.99023 32.4825 3.99023 33.9825V41.2725C3.99023 43.3225 5.6602 44.9825 7.7002 44.9825H102.91C103.74 44.9825 104.41 45.6525 104.41 46.4825C104.41 47.3125 103.74 47.9825 102.91 47.9825H102.92Z" fill="#1A1A1A" stroke="black" stroke-width="2" stroke-miterlimit="10"/>
<path d="M70 35.9125C64.81 35.9125 60.5801 31.6825 60.5801 26.4925C60.5801 21.3025 64.81 17.0725 70 17.0725C75.19 17.0725 79.4202 21.3025 79.4202 26.4925C79.4202 31.6825 75.19 35.9125 70 35.9125ZM70 20.0725C66.46 20.0725 63.5801 22.9525 63.5801 26.4925C63.5801 30.0325 66.46 32.9125 70 32.9125C73.54 32.9125 76.4202 30.0325 76.4202 26.4925C76.4202 22.9525 73.54 20.0725 70 20.0725Z" fill="#1A1A1A" stroke="black" stroke-width="2" stroke-miterlimit="10"/>
</svg>
