<svg width="152" height="144" viewBox="0 0 152 144" fill="none" xmlns="http://www.w3.org/2000/svg">
<path d="M138.785 129.35C137.955 129.35 137.285 128.68 137.285 127.85V122.03C137.285 121.2 137.955 120.53 138.785 120.53C139.615 120.53 140.285 121.2 140.285 122.03V127.85C140.285 128.68 139.615 129.35 138.785 129.35Z" fill="#1A1A1A" stroke="black" stroke-width="2" stroke-miterlimit="10"/>
<path d="M138.785 109.15C137.955 109.15 137.285 108.48 137.285 107.65V101.83C137.285 101 137.955 100.33 138.785 100.33C139.615 100.33 140.285 101 140.285 101.83V107.65C140.285 108.48 139.615 109.15 138.785 109.15Z" fill="#1A1A1A" stroke="black" stroke-width="2" stroke-miterlimit="10"/>
<path d="M149.275 116.34H145.975C145.145 116.34 144.475 115.67 144.475 114.84C144.475 114.01 145.145 113.34 145.975 113.34H149.275C150.105 113.34 150.775 114.01 150.775 114.84C150.775 115.67 150.105 116.34 149.275 116.34Z" fill="#1A1A1A" stroke="black" stroke-width="2" stroke-miterlimit="10"/>
<path d="M131.595 116.34H128.295C127.465 116.34 126.795 115.67 126.795 114.84C126.795 114.01 127.465 113.34 128.295 113.34H131.595C132.425 113.34 133.095 114.01 133.095 114.84C133.095 115.67 132.425 116.34 131.595 116.34Z" fill="#1A1A1A" stroke="black" stroke-width="2" stroke-miterlimit="10"/>
<path d="M33.8652 33.9899C33.0352 33.9899 32.3652 33.3199 32.3652 32.4899V26.6699C32.3652 25.8399 33.0352 25.1699 33.8652 25.1699C34.6952 25.1699 35.3652 25.8399 35.3652 26.6699V32.4899C35.3652 33.3199 34.6952 33.9899 33.8652 33.9899Z" fill="#1A1A1A" stroke="black" stroke-width="2" stroke-miterlimit="10"/>
<path d="M33.8652 13.79C33.0352 13.79 32.3652 13.12 32.3652 12.29V6.46997C32.3652 5.63997 33.0352 4.96997 33.8652 4.96997C34.6952 4.96997 35.3652 5.63997 35.3652 6.46997V12.29C35.3652 13.12 34.6952 13.79 33.8652 13.79Z" fill="#1A1A1A" stroke="black" stroke-width="2" stroke-miterlimit="10"/>
<path d="M44.3547 20.98H41.0547C40.2247 20.98 39.5547 20.31 39.5547 19.48C39.5547 18.65 40.2247 17.98 41.0547 17.98H44.3547C45.1847 17.98 45.8547 18.65 45.8547 19.48C45.8547 20.31 45.1847 20.98 44.3547 20.98Z" fill="#1A1A1A" stroke="black" stroke-width="2" stroke-miterlimit="10"/>
<path d="M26.6749 20.98H23.375C22.545 20.98 21.875 20.31 21.875 19.48C21.875 18.65 22.545 17.98 23.375 17.98H26.6749C27.5049 17.98 28.1749 18.65 28.1749 19.48C28.1749 20.31 27.5049 20.98 26.6749 20.98Z" fill="#1A1A1A" stroke="black" stroke-width="2" stroke-miterlimit="10"/>
<path d="M100.165 142.58C99.3348 142.58 98.6648 141.91 98.6648 141.08V112.39C98.6648 111.99 98.8249 111.61 99.1049 111.33L133.025 77.4101C135.755 74.6801 135.755 70.2501 133.025 67.5201C130.295 64.7901 125.865 64.7901 123.135 67.5201L89.2148 101.44C88.6248 102.03 87.6748 102.03 87.0948 101.44C86.5048 100.85 86.5048 99.9001 87.0948 99.3201L121.015 65.4001C124.915 61.5001 131.255 61.5001 135.145 65.4001C139.035 69.3001 139.045 75.6401 135.145 79.5301L101.665 113.01V141.07C101.665 141.9 100.995 142.57 100.165 142.57V142.58Z" fill="#1A1A1A" stroke="black" stroke-width="2" stroke-miterlimit="10"/>
<path d="M38.9051 142.58C38.0751 142.58 37.4051 141.91 37.4051 141.08V113.02L3.925 79.5399C0.0250001 75.6399 0.0250001 69.2999 3.925 65.4099C7.825 61.5099 14.165 61.5099 18.055 65.4099L51.975 99.3298C52.565 99.9198 52.565 100.87 51.975 101.45C51.385 102.04 50.4351 102.04 49.8551 101.45L15.935 67.5299C13.205 64.7999 8.775 64.7999 6.045 67.5299C3.315 70.2599 3.315 74.6899 6.045 77.4199L39.965 111.34C40.245 111.62 40.4051 112 40.4051 112.4V141.09C40.4051 141.92 39.7351 142.59 38.9051 142.59V142.58Z" fill="#1A1A1A" stroke="black" stroke-width="2" stroke-miterlimit="10"/>
<path d="M69.5342 87.48C58.3042 87.48 49.1641 78.34 49.1641 67.11C49.1641 55.88 58.3042 46.74 69.5342 46.74C80.7642 46.74 89.9042 55.88 89.9042 67.11C89.9042 78.34 80.7642 87.48 69.5342 87.48ZM69.5342 49.73C59.9542 49.73 52.1641 57.52 52.1641 67.1C52.1641 76.68 59.9542 84.47 69.5342 84.47C79.1142 84.47 86.9042 76.68 86.9042 67.1C86.9042 57.52 79.1142 49.73 69.5342 49.73Z" fill="#1A1A1A" stroke="black" stroke-width="2" stroke-miterlimit="10"/>
<path d="M69.5254 14.85C68.6954 14.85 68.0254 14.18 68.0254 13.35V2.5C68.0254 1.67 68.6954 1 69.5254 1C70.3554 1 71.0254 1.67 71.0254 2.5V13.35C71.0254 14.18 70.3554 14.85 69.5254 14.85Z" fill="#1A1A1A" stroke="black" stroke-width="2" stroke-miterlimit="10"/>
<path d="M12.456 47.7901C12.206 47.7901 11.946 47.73 11.706 47.59L2.31601 42.1801C1.59601 41.7701 1.35608 40.85 1.76608 40.13C2.17608 39.41 3.09601 39.17 3.81601 39.58L13.206 44.9901C13.926 45.4001 14.1661 46.3201 13.7561 47.0401C13.4761 47.5201 12.976 47.7901 12.456 47.7901Z" fill="#1A1A1A" stroke="black" stroke-width="2" stroke-miterlimit="10"/>
<path d="M126.605 47.8001C126.085 47.8001 125.585 47.5301 125.305 47.0501C124.895 46.3301 125.135 45.42 125.855 45L135.245 39.5701C135.965 39.1501 136.885 39.4001 137.295 40.1201C137.705 40.8401 137.465 41.7501 136.745 42.1701L127.355 47.6001C127.115 47.7401 126.865 47.8001 126.605 47.8001Z" fill="#1A1A1A" stroke="black" stroke-width="2" stroke-miterlimit="10"/>
<path d="M102.486 23.6802C102.236 23.6802 101.976 23.6202 101.736 23.4802C101.016 23.0702 100.776 22.1502 101.186 21.4302L106.596 12.0402C107.006 11.3202 107.926 11.0802 108.646 11.4902C109.366 11.9002 109.606 12.8202 109.196 13.5402L103.786 22.9302C103.506 23.4102 103.006 23.6802 102.486 23.6802Z" fill="#1A1A1A" stroke="black" stroke-width="2" stroke-miterlimit="10"/>
</svg>
