<svg width="131" height="123" viewBox="0 0 131 123" fill="none" xmlns="http://www.w3.org/2000/svg">
<path d="M65.1019 121.45C46.3419 121.45 27.5919 119.17 9.35191 114.61C5.23191 113.58 2.22186 110.86 1.29186 107.35C0.461855 104.25 1.42174 101.09 3.92174 98.6898C5.22174 97.4398 6.55169 96.1098 7.87169 94.7398C8.49169 94.0998 8.95181 93.3898 9.24181 92.6198C9.53181 91.8398 10.4017 91.4498 11.1717 91.7398C11.9517 92.0298 12.3419 92.8999 12.0519 93.6699C11.6119 94.8299 10.9318 95.8898 10.0318 96.8198C8.69185 98.2098 7.33182 99.5698 6.00182 100.85C4.31182 102.47 3.65176 104.56 4.19176 106.58C4.84176 109.02 7.04189 110.94 10.0819 111.7C46.0819 120.7 84.1319 120.7 120.112 111.7C123.152 110.94 125.362 109.03 126.012 106.58C126.552 104.56 125.892 102.47 124.202 100.85C122.912 99.6098 121.542 98.2598 120.162 96.8198C119.542 96.1698 119.022 95.4698 118.622 94.7198C118.232 93.9898 118.512 93.0798 119.242 92.6898C119.972 92.2998 120.882 92.5799 121.272 93.3099C121.542 93.8099 121.892 94.2898 122.322 94.7398C123.682 96.1498 125.012 97.4798 126.282 98.6898C128.782 101.1 129.742 104.26 128.912 107.36C127.972 110.87 124.962 113.58 120.842 114.61C102.612 119.17 83.8519 121.45 65.1019 121.45Z" fill="#1A1A1A" stroke="black" stroke-width="2" stroke-miterlimit="10"/>
<path d="M65.1021 107.2C50.6821 107.2 36.2319 105.75 22.1519 102.89C21.3419 102.73 20.812 101.93 20.982 101.12C21.142 100.31 21.942 99.7797 22.752 99.9497C36.642 102.77 50.8921 104.2 65.1121 104.2C68.9921 104.2 72.8521 104.09 76.5921 103.89C77.4521 103.86 78.1219 104.48 78.1719 105.3C78.2219 106.13 77.582 106.84 76.762 106.88C72.962 107.09 69.0519 107.2 65.1219 107.2H65.1021Z" fill="#1A1A1A" stroke="black" stroke-width="2" stroke-miterlimit="10"/>
<path d="M90.5323 105.69C89.7823 105.69 89.1323 105.13 89.0423 104.37C88.9423 103.55 89.5324 102.8 90.3524 102.7C96.1824 102 101.932 101.07 107.452 99.9498C108.262 99.7898 109.052 100.31 109.222 101.12C109.392 101.93 108.862 102.72 108.052 102.89C102.452 104.03 96.6222 104.97 90.7122 105.68C90.6522 105.68 90.5923 105.69 90.5323 105.69Z" fill="#1A1A1A" stroke="black" stroke-width="2" stroke-miterlimit="10"/>
<path d="M64.9522 91.28C48.1122 91.28 31.3322 90.32 21.2322 88.17C-2.79777 81.8 4.72226 51.43 10.7623 27.02C13.1123 17.54 15.3223 8.59 15.3223 2.5C15.3223 1.67 15.9923 1 16.8223 1H56.1321C56.9021 1 57.5521 1.57998 57.6221 2.34998C60.0621 26.98 71.8622 42.6801 88.4022 43.3101C113.652 44.0701 124.052 55.97 125.372 66.86C126.552 76.63 120.722 85.58 111.512 88.14C111.472 88.14 111.442 88.16 111.402 88.17C101.392 90.15 83.1322 91.27 64.9522 91.27V91.28ZM18.2823 4.01001C17.9823 10.34 15.8822 18.82 13.6722 27.75C7.65218 52.08 0.822184 79.66 21.9322 85.26C42.5522 89.63 91.7023 89 110.762 85.26C118.502 83.08 123.392 75.51 122.392 67.24C121.222 57.6 111.652 47.04 88.3023 46.33C70.4423 45.64 57.6823 29.47 54.7823 4.02002H18.2823V4.01001Z" fill="#1A1A1A" stroke="black" stroke-width="2" stroke-miterlimit="10"/>
<path d="M55.9724 42.08C55.5124 42.08 55.0625 41.87 54.7725 41.48C49.4025 34.29 45.5224 25.42 43.2324 15.14C43.0524 14.33 43.5623 13.53 44.3723 13.35C45.1823 13.16 45.9824 13.68 46.1624 14.49C48.3524 24.36 52.0624 32.84 57.1724 39.69C57.6724 40.35 57.5323 41.2901 56.8723 41.7901C56.6023 41.9901 56.2924 42.09 55.9724 42.09V42.08Z" fill="#1A1A1A" stroke="black" stroke-width="2" stroke-miterlimit="10"/>
<path d="M32.5121 76.53C32.4521 76.53 32.4021 76.53 32.3421 76.53C29.2621 76.18 26.5621 75.76 24.3121 75.3C20.4821 74.26 18.122 71.9499 17.922 63.5999C17.852 60.6599 18.092 57.2999 18.662 53.3399C18.782 52.5199 19.5422 51.9499 20.3622 52.0699C21.1822 52.1899 21.7519 52.95 21.6319 53.77C21.0919 57.56 20.852 60.76 20.922 63.53C21.112 71.32 23.1821 71.89 25.0021 72.38C27.0721 72.8 29.682 73.2 32.672 73.54C33.492 73.63 34.0821 74.3799 33.9921 75.1999C33.9021 75.9599 33.2521 76.53 32.5021 76.53H32.5121Z" fill="#1A1A1A" stroke="black" stroke-width="2" stroke-miterlimit="10"/>
</svg>
