<svg width="137" height="140" viewBox="0 0 137 140" fill="none" xmlns="http://www.w3.org/2000/svg">
<path d="M36.965 110.582C36.695 110.582 36.4149 110.512 36.1749 110.352C35.4749 109.912 35.2549 108.992 35.6949 108.282L45.5648 92.4618C48.5348 87.6918 53.415 84.4518 58.955 83.5518L60.8649 83.2518C65.5449 82.5018 69.6749 79.7518 72.1949 75.7218L96.3749 36.9518C99.4149 32.0718 100.375 26.2918 99.0748 20.6918C97.7748 15.0818 94.375 10.3218 89.485 7.27179C84.595 4.22179 78.825 3.26183 73.215 4.56183C67.605 5.86183 62.8448 9.26178 59.7948 14.1418L35.6149 52.9118C33.1049 56.9418 32.4548 61.8518 33.8448 66.4118L34.4149 68.2418C36.0549 73.6218 35.2948 79.4318 32.3148 84.2018L22.455 100.022C22.015 100.722 21.0949 100.942 20.3849 100.502C19.6849 100.062 19.4649 99.1418 19.9049 98.4318L29.7648 82.6118C32.2748 78.5818 32.9248 73.6618 31.5448 69.1218L30.975 67.2918C29.335 61.9018 30.1048 56.0918 33.0748 51.3318L57.2548 12.5618C60.7248 7.00183 66.1548 3.12178 72.5348 1.64178C78.9248 0.161783 85.5048 1.26181 91.0748 4.73181C96.6348 8.20181 100.515 13.6318 101.995 20.0118C103.475 26.4018 102.385 32.9818 98.9149 38.5418L74.735 77.3118C71.765 82.0818 66.8748 85.3318 61.3248 86.2218L59.4249 86.5218C54.7449 87.2818 50.6149 90.0218 48.1049 94.0618L38.235 109.882C37.955 110.342 37.465 110.592 36.965 110.592V110.582Z" fill="#1A1A1A" stroke="black" stroke-width="2" stroke-miterlimit="10"/>
<path d="M78.5851 48.8419C78.3151 48.8419 78.035 48.7719 77.795 48.6119C77.095 48.1719 76.8751 47.2519 77.3151 46.5419L86.9552 31.0819C90.0052 26.1919 88.5051 19.7319 83.6151 16.6819C82.9151 16.2419 82.6951 15.3219 83.1351 14.6119C83.5751 13.9119 84.5052 13.692 85.2052 14.132C91.4952 18.052 93.425 26.3719 89.505 32.6619L79.8651 48.1219C79.5851 48.5819 79.0951 48.8319 78.5951 48.8319L78.5851 48.8419Z" fill="#1A1A1A" stroke="black" stroke-width="2" stroke-miterlimit="10"/>
<path d="M30.0952 134.182C28.9652 134.182 27.8152 133.872 26.7852 133.232L3.95533 118.992C2.53533 118.102 1.5453 116.722 1.1653 115.092C0.785296 113.462 1.06533 111.782 1.95533 110.362L4.03517 107.022C5.86517 104.092 9.73531 103.192 12.6753 105.022L35.5051 119.262C36.9251 120.152 37.9152 121.532 38.2952 123.162C38.6752 124.792 38.3951 126.472 37.5051 127.892L35.4253 131.232C34.2353 133.132 32.1852 134.182 30.0952 134.182ZM28.3753 130.692C29.9053 131.642 31.9253 131.182 32.8753 129.652L34.9553 126.322C35.4153 125.582 35.5652 124.702 35.3652 123.852C35.1652 123.002 34.6553 122.282 33.9053 121.812L11.0752 107.572C9.54521 106.622 7.52521 107.092 6.57521 108.612L4.49513 111.952C4.03513 112.692 3.88522 113.572 4.08522 114.422C4.28522 115.272 4.79518 115.992 5.54518 116.462L28.3753 130.702V130.692Z" fill="#1A1A1A" stroke="black" stroke-width="2" stroke-miterlimit="10"/>
<path d="M106.405 138.722C102.525 138.722 98.6555 137.932 94.9855 136.372C80.2555 130.072 73.3854 112.962 79.6854 98.2317C85.9854 83.5017 103.095 76.6318 117.825 82.9318C124.965 85.9818 130.485 91.6317 133.375 98.8317C136.265 106.032 136.175 113.932 133.125 121.072C130.075 128.212 124.425 133.732 117.225 136.622C113.725 138.022 110.065 138.722 106.405 138.722ZM106.445 83.5917C96.3254 83.5917 86.6754 89.5217 82.4454 99.4117C79.7054 105.812 79.6354 112.892 82.2254 119.352C84.8154 125.812 89.7654 130.872 96.1654 133.612C102.565 136.352 109.645 136.422 116.105 133.832C122.565 131.242 127.625 126.292 130.365 119.892C133.105 113.492 133.185 106.412 130.585 99.9518C127.995 93.4918 123.045 88.4318 116.645 85.6918C113.315 84.2718 109.855 83.5917 106.445 83.5917Z" fill="#1A1A1A" stroke="black" stroke-width="2" stroke-miterlimit="10"/>
<path d="M82.4857 122.762C82.0857 122.762 81.6855 122.752 81.2855 122.722C80.4555 122.662 79.8356 121.942 79.8956 121.112C79.9556 120.282 80.6855 119.662 81.5055 119.722C88.7555 120.262 96.2157 114.932 99.6957 106.782C103.186 98.6219 101.866 89.5419 96.4857 84.6819C95.8657 84.1219 95.8256 83.1819 96.3756 82.5619C96.9356 81.9519 97.8755 81.9019 98.4955 82.4519C104.805 88.1519 106.436 98.6418 102.456 107.962C98.6757 116.832 90.5857 122.752 82.4857 122.752V122.762Z" fill="#1A1A1A" stroke="black" stroke-width="2" stroke-miterlimit="10"/>
<path d="M128.131 96.0001C128.531 96.0001 128.932 96.0101 129.332 96.0401C130.162 96.1001 130.782 96.8201 130.722 97.6501C130.662 98.4801 129.932 99.1001 129.112 99.0401C121.862 98.5001 114.402 103.83 110.922 111.98C107.432 120.14 108.751 129.22 114.131 134.08C114.751 134.64 114.792 135.58 114.242 136.2C113.682 136.81 112.742 136.86 112.122 136.31C105.812 130.61 104.182 120.12 108.162 110.8C111.942 101.93 120.031 96.0101 128.131 96.0101V96.0001Z" fill="#1A1A1A" stroke="black" stroke-width="2" stroke-miterlimit="10"/>
</svg>
