<svg width="135" height="136" viewBox="0 0 135 136" fill="none" xmlns="http://www.w3.org/2000/svg">
<path d="M120.5 104.86H14.5C7.06 104.86 1 98.8001 1 91.3601V14.5C1 7.06 7.06 1 14.5 1H120.5C127.94 1 134 7.06 134 14.5V91.3601C134 98.8001 127.94 104.86 120.5 104.86ZM14.5 4C8.71 4 4 8.71 4 14.5V91.3601C4 97.1501 8.71 101.86 14.5 101.86H120.5C126.29 101.86 131 97.1501 131 91.3601V14.5C131 8.71 126.29 4 120.5 4H14.5Z" fill="#1A1A1A" stroke="black" stroke-width="2" stroke-miterlimit="10"/>
<path d="M89.3794 134.13H45.6094C44.7794 134.13 44.1094 133.46 44.1094 132.63C44.1094 131.8 44.7794 131.13 45.6094 131.13H89.3794C90.2094 131.13 90.8794 131.8 90.8794 132.63C90.8794 133.46 90.2094 134.13 89.3794 134.13Z" fill="#1A1A1A" stroke="black" stroke-width="2" stroke-miterlimit="10"/>
<path d="M59.1289 134.13C58.2989 134.13 57.6289 133.46 57.6289 132.63V113.82C57.6289 112.99 58.2989 112.32 59.1289 112.32C59.9589 112.32 60.6289 112.99 60.6289 113.82V132.63C60.6289 133.46 59.9589 134.13 59.1289 134.13Z" fill="#1A1A1A" stroke="black" stroke-width="2" stroke-miterlimit="10"/>
<path d="M75.8496 134.13C75.0196 134.13 74.3496 133.46 74.3496 132.63V113.82C74.3496 112.99 75.0196 112.32 75.8496 112.32C76.6796 112.32 77.3496 112.99 77.3496 113.82V132.63C77.3496 133.46 76.6796 134.13 75.8496 134.13Z" fill="#1A1A1A" stroke="black" stroke-width="2" stroke-miterlimit="10"/>
<path d="M117.762 88.5601H101.262C100.432 88.5601 99.7617 87.8901 99.7617 87.0601C99.7617 86.2301 100.432 85.5601 101.262 85.5601H117.762C118.592 85.5601 119.262 86.2301 119.262 87.0601C119.262 87.8901 118.592 88.5601 117.762 88.5601Z" fill="#1A1A1A" stroke="black" stroke-width="2" stroke-miterlimit="10"/>
<path d="M77.6006 88.5601H17.2207C16.3907 88.5601 15.7207 87.8901 15.7207 87.0601C15.7207 86.2301 16.3907 85.5601 17.2207 85.5601H77.6006C78.4306 85.5601 79.1006 86.2301 79.1006 87.0601C79.1006 87.8901 78.4306 88.5601 77.6006 88.5601Z" fill="#1A1A1A" stroke="black" stroke-width="2" stroke-miterlimit="10"/>
<path d="M84.4316 95.3899C79.8316 95.3899 76.1016 91.6499 76.1016 87.0599C76.1016 82.4699 79.8416 78.73 84.4316 78.73C89.0216 78.73 92.7617 82.4699 92.7617 87.0599C92.7617 91.6499 89.0216 95.3899 84.4316 95.3899ZM84.4316 81.72C81.4916 81.72 79.1016 84.1099 79.1016 87.0499C79.1016 89.9899 81.4916 92.3799 84.4316 92.3799C87.3716 92.3799 89.7617 89.9899 89.7617 87.0499C89.7617 84.1099 87.3716 81.72 84.4316 81.72Z" fill="#1A1A1A" stroke="black" stroke-width="2" stroke-miterlimit="10"/>
</svg>
