<svg width="131" height="138" viewBox="0 0 131 138" fill="none" xmlns="http://www.w3.org/2000/svg">
<path d="M113.007 136.5C108.917 136.5 105.027 134.96 102.057 132.17L81.7671 113.06C77.7671 109.29 72.5371 107.21 67.0371 107.21H63.0371C57.5371 107.21 52.3071 109.29 48.2971 113.06L28.0071 132.16C22.9371 136.94 15.1672 137.85 9.10718 134.37C4.17718 131.53 1.11719 126.23 1.11719 120.54C1.11719 119.72 1.17712 118.91 1.29712 118.13L7.48706 77.5601C7.61706 76.7401 8.37727 76.1801 9.19727 76.3001C10.0173 76.4201 10.577 77.1901 10.457 78.0101L4.26709 118.58C4.16709 119.21 4.11719 119.87 4.11719 120.54C4.11719 125.16 6.59718 129.46 10.6072 131.77C15.5172 134.6 21.8273 133.86 25.9473 129.97L46.2371 110.86C50.8071 106.56 56.7671 104.2 63.0271 104.2H67.0271C73.2971 104.2 79.2571 106.57 83.8171 110.86L104.107 129.96C106.517 132.23 109.677 133.48 112.997 133.48C115.267 133.48 117.497 132.88 119.457 131.76C124.127 129.08 126.607 123.9 125.797 118.57L121.447 90.0701C121.327 89.2501 121.887 88.4901 122.707 88.3601C123.527 88.2401 124.287 88.8001 124.417 89.6201L128.767 118.12C129.767 124.68 126.707 131.05 120.957 134.36C118.547 135.75 115.797 136.48 113.007 136.48V136.5Z" fill="#1A1A1A" stroke="black" stroke-width="2" stroke-miterlimit="10"/>
<path d="M117.607 61.6801C116.777 61.6801 116.107 61.0101 116.107 60.1801C116.107 51.5501 109.087 44.53 100.457 44.53C99.627 44.53 98.957 43.86 98.957 43.03C98.957 42.2 99.627 41.53 100.457 41.53C110.747 41.53 119.107 49.9001 119.107 60.1801C119.107 61.0101 118.437 61.6801 117.607 61.6801Z" fill="#1A1A1A" stroke="black" stroke-width="2" stroke-miterlimit="10"/>
<path d="M100.458 88.8301C94.118 88.8301 88.1081 86.8001 83.0781 82.9601C82.4181 82.4601 82.2981 81.52 82.7981 80.86C83.2981 80.2 84.2482 80.0801 84.8982 80.5801C89.3982 84.0201 94.778 85.8401 100.458 85.8401C107.608 85.8401 114.248 82.9701 119.158 77.7501C124.058 72.5401 126.508 65.72 126.068 58.54C125.268 45.68 114.968 35.3801 102.108 34.5801C88.8382 33.7501 77.2482 42.9901 75.1482 56.0601C74.6182 59.3201 71.8381 61.6801 68.5181 61.6801H61.6182C58.2982 61.6801 55.508 59.34 54.9981 56.11C53.008 43.61 42.3482 34.53 29.6682 34.53C22.5182 34.53 15.868 37.4001 10.968 42.6201C6.06802 47.8301 3.61811 54.6501 4.05811 61.8301C4.84811 74.5401 15.4282 85.07 28.1382 85.8C34.2982 86.16 40.358 84.3001 45.218 80.5901C45.878 80.0901 46.8181 80.2101 47.3181 80.8701C47.8181 81.5301 47.6981 82.47 47.0381 82.97C41.6081 87.12 34.828 89.19 27.958 88.79C13.518 87.96 1.95811 76.4401 1.05811 62.0101C0.558107 54.0001 3.29807 46.3901 8.76807 40.5601C14.1681 34.8201 21.7782 31.53 29.6482 31.53C43.8182 31.53 55.7182 41.6701 57.9382 55.6401C58.2182 57.3801 59.7881 58.6901 61.5981 58.6901H68.498C70.338 58.6901 71.8782 57.3901 72.1682 55.5901C74.5282 40.9901 87.4681 30.6701 102.278 31.5901C116.648 32.4801 128.158 43.99 129.048 58.36C129.548 66.37 126.808 73.9801 121.338 79.8101C115.938 85.5501 108.328 88.8401 100.458 88.8401V88.8301Z" fill="#1A1A1A" stroke="black" stroke-width="2" stroke-miterlimit="10"/>
<path d="M46.7983 61.6801C45.9683 61.6801 45.2983 61.0101 45.2983 60.1801C45.2983 51.5501 38.2784 44.53 29.6484 44.53C28.8184 44.53 28.1484 43.86 28.1484 43.03C28.1484 42.2 28.8184 41.53 29.6484 41.53C39.9384 41.53 48.2983 49.9001 48.2983 60.1801C48.2983 61.0101 47.6283 61.6801 46.7983 61.6801Z" fill="#1A1A1A" stroke="black" stroke-width="2" stroke-miterlimit="10"/>
<path d="M84.7888 102.24C84.5088 102.24 84.2388 102.16 83.9888 102.01C78.9388 98.8001 73.0788 97.1001 67.0488 97.1001H63.0488C62.2188 97.1001 61.5488 96.4301 61.5488 95.6001C61.5488 94.7701 62.2188 94.1001 63.0488 94.1001H67.0488C73.6488 94.1001 80.0589 95.9601 85.5989 99.4801C86.2989 99.9201 86.5088 100.85 86.0588 101.55C85.7688 102 85.2888 102.24 84.7888 102.24Z" fill="#1A1A1A" stroke="black" stroke-width="2" stroke-miterlimit="10"/>
<path d="M65.0488 86.9802C64.2188 86.9802 63.5488 86.3102 63.5488 85.4802V72.6602C63.5488 71.8302 64.2188 71.1602 65.0488 71.1602C65.8788 71.1602 66.5488 71.8302 66.5488 72.6602V85.4802C66.5488 86.3102 65.8788 86.9802 65.0488 86.9802Z" fill="#1A1A1A" stroke="black" stroke-width="2" stroke-miterlimit="10"/>
<path d="M65.0488 46.75C64.2188 46.75 63.5488 46.08 63.5488 45.25V28.31C63.5488 13.25 75.7989 1 90.8589 1H98.3689C99.1989 1 99.8689 1.67 99.8689 2.5C99.8689 3.33 99.1989 4 98.3689 4H90.8589C77.4589 4 66.5488 14.91 66.5488 28.31V45.25C66.5488 46.08 65.8788 46.75 65.0488 46.75Z" fill="#1A1A1A" stroke="black" stroke-width="2" stroke-miterlimit="10"/>
</svg>
