<svg width="133" height="138" viewBox="0 0 133 138" fill="none" xmlns="http://www.w3.org/2000/svg">
<path d="M89.3653 109.642C88.8853 109.642 88.4253 109.412 88.1353 108.992C87.6653 108.312 87.8353 107.372 88.5153 106.902C103.245 96.7022 112.115 83.2422 112.615 70.5422C97.1953 75.0222 71.9954 80.4122 55.3254 83.3422C38.7754 86.2522 22.4853 88.2122 6.86528 89.1622C9.45528 95.9422 13.7253 102.082 19.3153 106.992C19.9353 107.542 19.9954 108.492 19.4454 109.112C18.8954 109.732 17.9554 109.792 17.3254 109.242C10.8354 103.532 6.00527 96.2722 3.35527 88.2422C3.20527 87.8022 3.27532 87.3122 3.53532 86.9222C3.79532 86.5322 4.22535 86.2922 4.69535 86.2722C20.8054 85.3822 37.6653 83.3922 54.7953 80.3722C72.0953 77.3222 98.6153 71.6322 113.675 67.0722C114.125 66.9422 114.605 67.0222 114.985 67.2922C115.365 67.5622 115.595 68.0022 115.605 68.4622C116.035 82.7522 106.535 98.0322 90.2054 109.342C89.9454 109.522 89.6453 109.612 89.3553 109.612L89.3653 109.642Z" fill="#1A1A1A" stroke="black" stroke-width="2" stroke-miterlimit="10"/>
<path d="M54.0951 83.3721C53.3851 83.3721 52.7451 82.8621 52.6151 82.1321L38.6451 2.76207C38.5051 1.94207 39.0451 1.17208 39.8651 1.02208C40.6751 0.882076 41.4551 1.42205 41.6051 2.24205L55.5752 81.6121C55.7152 82.4321 55.1751 83.2021 54.3551 83.3521C54.2651 83.3721 54.1751 83.3721 54.0951 83.3721Z" fill="#1A1A1A" stroke="black" stroke-width="2" stroke-miterlimit="10"/>
<path d="M19.8544 70.012C19.5344 70.012 19.2244 69.912 18.9644 69.722C18.6344 69.482 18.4144 69.112 18.3644 68.702C15.8044 49.022 19.4244 30.912 29.1444 14.872C31.9144 10.282 35.2244 5.79201 38.9944 1.51201C39.5444 0.892013 40.4944 0.832008 41.1144 1.38201C41.7344 1.93201 41.7944 2.882 41.2544 3.502C37.6044 7.652 34.3944 12.002 31.7244 16.432C22.6244 31.452 19.0745 48.382 21.1645 66.762L38.8944 63.642C39.7144 63.492 40.4844 64.042 40.6344 64.862C40.7744 65.6821 40.2345 66.452 39.4145 66.602L20.1244 70.002C20.0344 70.012 19.9544 70.022 19.8644 70.022L19.8544 70.012Z" fill="#1A1A1A" stroke="black" stroke-width="2" stroke-miterlimit="10"/>
<path d="M62.4253 62.522C61.7153 62.522 61.0753 62.012 60.9453 61.282C60.8053 60.462 61.3453 59.692 62.1653 59.542L91.5353 54.372C86.1453 32.262 71.8852 15.242 52.2152 7.522C48.3352 5.992 44.1752 4.80203 39.8352 3.98203C39.0252 3.83203 38.4853 3.04203 38.6453 2.23203C38.7953 1.42203 39.5853 0.882023 40.3953 1.04202C44.9153 1.90202 49.2653 3.14197 53.3153 4.74197C74.3853 13.002 89.5154 31.422 94.8254 55.252C94.9154 55.652 94.8353 56.072 94.6053 56.412C94.3753 56.752 94.0253 56.982 93.6153 57.052L62.6853 62.502C62.5953 62.522 62.5053 62.522 62.4253 62.522Z" fill="#1A1A1A" stroke="black" stroke-width="2" stroke-miterlimit="10"/>
<path d="M114.114 70.032C113.574 70.032 113.044 69.732 112.774 69.222C112.394 68.482 112.684 67.582 113.424 67.202L128.844 59.272C129.584 58.892 130.484 59.182 130.864 59.922C131.244 60.662 130.954 61.562 130.214 61.942L114.794 69.872C114.574 69.982 114.344 70.042 114.114 70.042V70.032Z" fill="#1A1A1A" stroke="black" stroke-width="2" stroke-miterlimit="10"/>
<path d="M126.705 136.232C126.655 136.232 126.605 136.232 126.555 136.232C114.395 134.982 102.875 130.722 93.2247 123.902C80.0547 114.592 63.5447 110.402 46.7447 112.112C29.9447 113.822 14.6147 121.242 3.59469 133.012C3.02469 133.612 2.07469 133.652 1.47469 133.082C0.87469 132.512 0.834744 131.562 1.40474 130.962C12.9247 118.662 28.9248 110.912 46.4448 109.132C63.9648 107.352 81.1948 111.732 94.9548 121.462C104.185 127.992 115.215 132.072 126.865 133.262C127.685 133.342 128.285 134.082 128.205 134.912C128.125 135.682 127.475 136.262 126.715 136.262L126.705 136.232Z" fill="#1A1A1A" stroke="black" stroke-width="2" stroke-miterlimit="10"/>
</svg>
