<svg width="143" height="142" viewBox="0 0 143 142" fill="none" xmlns="http://www.w3.org/2000/svg">
<path d="M111.64 37.9789C111.55 37.9789 111.47 37.9789 111.38 37.9789C107.41 37.9089 103.7 36.2689 100.94 33.3589C98.1899 30.4589 96.7097 26.6389 96.7797 22.6089C96.9197 14.2689 103.75 7.58891 111.9 7.74891C115.87 7.81891 119.58 9.4589 122.34 12.3689C125.09 15.2689 126.57 19.0889 126.5 23.1189C126.43 27.1489 124.82 30.9189 121.97 33.7189C119.18 36.4689 115.51 37.9789 111.64 37.9789ZM111.64 10.7389C105.19 10.7389 99.8895 16.0389 99.7695 22.6489C99.7095 25.8889 100.9 28.9589 103.1 31.2889C105.3 33.6089 108.25 34.9189 111.42 34.9689C114.58 35.0389 117.58 33.8189 119.86 31.5789C122.15 29.3289 123.44 26.2989 123.49 23.0589C123.55 19.8189 122.36 16.7489 120.16 14.4189C117.96 12.0989 115.01 10.7889 111.84 10.7389C111.77 10.7389 111.7 10.7389 111.64 10.7389Z" fill="#1A1A1A" stroke="black" stroke-width="2" stroke-miterlimit="10"/>
<path d="M118.941 140.019C118.881 140.019 118.811 140.019 118.751 140.019C116.211 139.979 113.821 138.979 112.031 137.229C111.521 136.729 111.071 136.179 110.691 135.599C110.291 136.169 109.831 136.699 109.301 137.179C107.491 138.829 105.141 139.729 102.661 139.729C102.601 139.729 102.541 139.729 102.481 139.729C99.6511 139.679 97.281 138.489 95.611 136.279C93.851 133.949 93.0009 130.629 93.0709 126.429L94.2111 60.8889L67.2907 60.4189C63.2107 60.3489 59.9506 56.9689 60.0206 52.8889C60.0906 48.8489 63.401 45.6189 67.421 45.6189C67.461 45.6189 67.5109 45.6189 67.5509 45.6189L127.171 46.6489C131.111 46.7189 134.751 48.2689 137.431 51.0289C140.151 53.8289 141.611 57.6389 141.531 61.7589L141.011 91.9989C140.941 96.0989 137.631 99.3889 133.601 99.3889C133.561 99.3889 133.521 99.3889 133.471 99.3889C131.831 99.3589 130.311 98.7889 129.101 97.8389L128.591 127.049C128.481 133.339 125.881 140.019 118.921 140.019H118.941ZM112.281 130.719C112.251 132.339 112.911 133.889 114.131 135.079C115.371 136.299 117.031 136.979 118.811 137.009C118.851 137.009 118.891 137.009 118.931 137.009C123.071 137.009 125.511 133.369 125.621 126.989L126.221 92.1489C126.221 92.0089 126.221 91.8789 126.221 91.7389L126.711 63.9389C126.721 63.1189 127.391 62.4689 128.211 62.4689H128.241C129.071 62.4789 129.731 63.1689 129.711 63.9989V64.0289L129.221 92.1189C129.341 94.4589 131.221 96.3489 133.541 96.3889C133.561 96.3889 133.591 96.3889 133.611 96.3889C136.011 96.3889 137.981 94.4089 138.021 91.9489L138.541 61.7089C138.601 58.3989 137.441 55.3489 135.281 53.1289C133.161 50.9489 130.271 49.7189 127.121 49.6589L67.5011 48.6289C65.1211 48.5889 63.0709 50.5289 63.0309 52.9489C62.9909 55.3689 64.9307 57.3789 67.3507 57.4189L95.7609 57.9089C96.5909 57.9189 97.2511 58.6089 97.2311 59.4389L96.0709 126.479C96.0109 129.949 96.6811 132.719 98.0011 134.469C99.1011 135.929 100.621 136.689 102.521 136.719C104.311 136.779 105.981 136.119 107.261 134.949C108.521 133.799 109.231 132.269 109.261 130.649C109.271 129.819 109.911 129.159 110.791 129.179C111.611 129.189 112.261 129.859 112.261 130.679V130.709L112.281 130.719Z" fill="#1A1A1A" stroke="black" stroke-width="2" stroke-miterlimit="10"/>
<path d="M110.76 133.299H110.73C109.9 133.289 109.24 132.599 109.26 131.769L109.83 98.9888C109.84 98.1688 110.51 97.5188 111.33 97.5188H111.36C112.19 97.5288 112.85 98.2188 112.83 99.0488L112.26 131.829C112.25 132.649 111.58 133.299 110.76 133.299Z" fill="#1A1A1A" stroke="black" stroke-width="2" stroke-miterlimit="10"/>
<path d="M30.0415 138.479C29.7915 138.479 29.5516 138.419 29.3316 138.299C10.6716 128.199 0.611485 105.289 1.01149 73.7789C1.01149 73.5889 1.01149 73.3589 1.01149 73.1189C1.13149 66.4189 1.71147 59.8189 2.74147 53.4789C6.85147 28.0389 17.9514 7.99894 31.7114 1.15894C32.1514 0.938943 32.6616 0.948932 33.0916 1.17893C44.0516 7.09893 53.0417 21.5789 57.7517 40.9089C57.9517 41.7089 57.4516 42.5289 56.6516 42.7189C55.8416 42.9089 55.0316 42.4189 54.8416 41.6189C50.4316 23.5289 42.2616 9.95893 32.3616 4.20893C19.7816 10.9589 9.61145 29.9089 5.72145 53.9589C4.71145 60.1589 4.1415 66.6189 4.0315 73.1589C4.0315 73.3689 4.0315 73.5589 4.0315 73.7589C3.6515 103.319 13.1416 125.659 30.0916 135.279C40.2616 129.969 48.1516 120.129 52.9216 106.759C54.7616 101.639 56.1415 95.9589 57.0315 89.8989C57.7715 84.9689 58.1913 79.6589 58.2913 74.0889C58.3313 71.6789 58.3117 69.4589 58.2317 67.3289C58.2017 66.4989 58.8516 65.8089 59.6716 65.7789C60.4716 65.7589 61.1914 66.3989 61.2214 67.2189C61.3014 69.4089 61.3215 71.6789 61.2815 74.1489C61.1815 79.8489 60.7415 85.2889 59.9915 90.3389C59.0715 96.5989 57.6417 102.469 55.7317 107.779C50.5817 122.189 41.9314 132.759 30.7114 138.329C30.5014 138.429 30.2715 138.489 30.0415 138.489V138.479Z" fill="#1A1A1A" stroke="black" stroke-width="2" stroke-miterlimit="10"/>
<path d="M54.3222 108.769C54.0722 108.769 53.8222 108.709 53.5922 108.579C35.6622 98.609 18.1722 87.309 1.62223 74.999C0.962226 74.509 0.822167 73.569 1.31217 72.899C1.80217 72.239 2.74202 72.099 3.41202 72.589C19.862 84.819 37.2322 96.049 55.0522 105.959C55.7722 106.359 56.0422 107.279 55.6322 107.999C55.3622 108.489 54.8422 108.769 54.3222 108.769Z" fill="#1A1A1A" stroke="black" stroke-width="2" stroke-miterlimit="10"/>
<path d="M58.5014 91.619C58.2514 91.619 57.9912 91.559 57.7612 91.419C38.8012 80.609 20.4712 68.319 3.30123 54.899C2.65123 54.389 2.53122 53.449 3.04122 52.789C3.55122 52.139 4.49108 52.019 5.15108 52.529C22.2111 65.859 40.4114 78.069 59.2514 88.809C59.9714 89.219 60.221 90.139 59.811 90.859C59.531 91.349 59.0312 91.619 58.5112 91.619H58.5014Z" fill="#1A1A1A" stroke="black" stroke-width="2" stroke-miterlimit="10"/>
</svg>
