<svg width="176" height="176" viewBox="0 0 176 176" fill="none" xmlns="http://www.w3.org/2000/svg">
<path d="M40.2038 0C28.6456 0 19.1938 9.45174 19.1938 21.01C19.1938 32.5683 28.6456 42.02 40.2038 42.02C51.7621 42.02 61.2138 32.5683 61.2138 21.01C61.2138 9.45174 51.7621 0 40.2038 0ZM40.2038 7.64C47.6331 7.64 53.5738 13.5807 53.5738 21.01C53.5738 28.4393 47.6331 34.38 40.2038 34.38C32.7745 34.38 26.8338 28.4393 26.8338 21.01C26.8338 13.5807 32.7745 7.64 40.2038 7.64ZM40.9574 45.84C31.3342 45.84 24.0266 54.8528 26.0057 64.2685L35.5333 109.541C37.564 119.185 45.6781 126.4 55.4913 127.291L82.0373 129.708L109.001 167.767C109.076 167.872 109.17 167.955 109.247 168.058C109.149 168.059 109.063 168.08 108.964 168.08C98.5548 168.08 91.6769 162.407 90.8487 161.693C90.4169 161.205 89.8672 160.835 89.252 160.619C89.2273 160.609 89.2024 160.599 89.1774 160.589C89.1625 160.584 89.1476 160.579 89.1327 160.574C88.362 160.302 87.5244 160.284 86.7428 160.523C85.9612 160.762 85.2769 161.246 84.7904 161.902C83.3731 163.072 76.7914 168.08 66.9438 168.08C56.5348 168.08 49.6569 162.407 48.8287 161.693C48.3969 161.205 47.8472 160.835 47.232 160.619C47.2073 160.609 47.1824 160.599 47.1574 160.589C47.1425 160.584 47.1276 160.579 47.1127 160.574C46.342 160.302 45.5044 160.284 44.7228 160.523C43.9412 160.762 43.2569 161.246 42.7704 161.902C41.3531 163.072 34.7714 168.08 24.9238 168.08C13.8398 168.08 6.48785 161.44 6.48785 161.44C6.12107 161.082 5.68608 160.802 5.20876 160.616C4.73144 160.429 4.22155 160.341 3.70941 160.356C3.19728 160.371 2.69337 160.489 2.22767 160.702C1.76197 160.916 1.34399 161.221 0.998601 161.599C0.653211 161.978 0.387468 162.422 0.217183 162.905C0.046897 163.388 -0.0244519 163.901 0.00738148 164.412C0.0392148 164.923 0.17358 165.423 0.402482 165.882C0.631384 166.34 0.950147 166.748 1.3398 167.08C1.3398 167.08 10.7576 175.72 24.9238 175.72C34.783 175.72 42.2486 171.572 45.9338 169.028C49.619 171.572 57.0847 175.72 66.9438 175.72C76.803 175.72 84.2686 171.572 87.9538 169.028C91.639 171.572 99.1047 175.72 108.964 175.72C115.165 175.72 120.381 174.053 124.371 172.191C124.669 172.069 124.974 171.986 125.266 171.84C125.404 171.771 125.512 171.667 125.646 171.594C127.437 170.681 128.854 169.801 129.974 169.028C133.659 171.572 141.125 175.72 150.984 175.72C165.15 175.72 174.568 167.08 174.568 167.08C175.143 166.57 175.551 165.897 175.738 165.151C175.925 164.404 175.882 163.619 175.616 162.897C175.349 162.176 174.87 161.551 174.243 161.106C173.615 160.661 172.868 160.416 172.098 160.403C171.105 160.387 170.144 160.759 169.42 161.44C169.42 161.44 162.068 168.08 150.984 168.08C140.575 168.08 133.697 162.407 132.869 161.693C132.693 161.497 132.498 161.32 132.287 161.164C132.449 158.835 132.032 156.444 130.854 154.247L109.471 114.339V114.331C107.166 110.032 103.302 106.779 98.6752 105.237L72.0919 96.3729L65.7202 68.76H107.054C111.994 68.76 116.203 65.541 117.798 61.12H171.994V53.48H117.798C116.203 49.059 111.994 45.84 107.054 45.84H40.9574ZM40.9574 53.48H107.054C109.212 53.48 110.874 55.1416 110.874 57.3C110.874 59.4584 109.212 61.12 107.054 61.12H60.9228C60.3482 61.12 59.781 61.2496 59.2635 61.4991C58.7459 61.7487 58.2913 62.1118 57.9335 62.5614C57.5756 63.011 57.3239 63.5355 57.1968 64.0959C57.0698 64.6563 57.0709 65.2381 57.1998 65.798L65.1308 100.178C65.2776 100.816 65.5859 101.406 66.0262 101.891C66.4665 102.375 67.024 102.739 67.6452 102.946L96.2579 112.481C99.0342 113.407 101.349 115.359 102.734 117.942L124.117 157.859C125.509 160.455 124.553 163.546 121.976 164.924C121.892 164.966 121.793 165.009 121.707 165.051C119.398 166.124 116.709 165.438 115.231 163.35L87.2525 123.852C86.9329 123.4 86.5193 123.024 86.0401 122.748C85.5609 122.473 85.0276 122.304 84.477 122.255L56.1852 119.681C49.6793 119.09 44.3553 114.36 43.0091 107.967L33.4815 62.6943C32.4657 57.8613 36.0187 53.48 40.9574 53.48Z" fill="black"/>
</svg>
