<svg width="133" height="175" viewBox="0 0 133 175" fill="none" xmlns="http://www.w3.org/2000/svg">
<path d="M68.0801 116.064C66.4797 116.691 64.6009 117.039 62.7222 117.039C60.7043 117.039 58.756 116.83 56.8773 116.273L36.2112 163.798C34.3325 168.182 29.1138 169.643 24.5909 167.138C20.068 164.564 17.911 158.997 19.8593 154.613L45.1874 96.4421H77.5433V91.0147L93.8952 83.4302C98.2093 81.3427 103.776 84.8914 104.889 89.4143L112.891 121.561C114.005 126.154 111.221 130.746 106.698 131.86C102.106 132.973 97.5135 130.19 96.3306 125.667L91.2511 105.14L68.0801 116.064Z" fill="black"/>
<path d="M82.9785 82.7337C118.396 65.1293 132.104 5.00995 132.104 0H127.233C125.424 12.5249 110.185 62.7635 82.9785 77.3063V82.7337Z" fill="black"/>
<path d="M17.6358 69.5828C19.5145 72.5053 23.2024 73.7578 26.5423 72.3661L45.2601 65.0599V91.0143H77.616V60.9546L106.632 14.6125C108.789 11.203 107.745 6.7497 104.336 4.59264C100.926 2.43558 96.4729 3.47932 94.5942 6.7497L69.9619 46.1335L55.1408 46.2031C54.1667 46.2031 53.2621 46.3422 52.2879 46.7597L26.6119 56.71L13.3912 36.6702C11.2342 33.3303 6.7113 32.3561 3.37133 34.5132C-0.0382176 36.6702 -1.01237 41.1931 1.14469 44.6027L17.6358 69.5828Z" fill="black"/>
<path d="M59.1794 43.4897C66.2769 43.4897 72.0522 37.7144 72.0522 30.6169C72.0522 23.5195 66.2769 17.7441 59.1794 17.7441C52.082 17.7441 46.3066 23.5195 46.3066 30.6169C46.3066 37.7144 52.082 43.4897 59.1794 43.4897Z" fill="black"/>
<path d="M77.5466 175V117.038L72.1191 119.543V175H77.5466Z" fill="black"/>
</svg>
