<svg width="151" height="140" viewBox="0 0 151 140" fill="none" xmlns="http://www.w3.org/2000/svg">
<path d="M75.603 1.19799C72.5691 2.35825 69.7725 5.6911 68.7894 9.31979C67.2717 14.8838 69.5629 22.588 74.056 26.9625C77.9236 30.7406 82.3858 30.83 85.956 27.2306C89.5554 23.5418 91.6679 16.044 90.5385 10.7482C89.6155 6.40451 86.5816 2.50771 83.0715 1.19799C80.8989 0.395212 77.7155 0.365936 75.603 1.19799ZM82.1486 7.50621C82.714 7.95306 83.5168 9.02395 83.9637 9.9161C85.2734 12.5941 85.0053 16.759 83.3088 20.4478C81.6139 24.078 80.1254 24.7021 78.1023 22.5603C75.2163 19.5264 73.6107 14.0517 74.6508 10.6603C75.0375 9.35061 76.734 7.20883 77.6847 6.79281C78.8172 6.31514 81.0191 6.67262 82.1486 7.50621Z" fill="black"/>
<path d="M56.9825 26.4279C52.0441 28.0042 48.9793 31.2477 45.0532 39.1014C40.6495 47.9366 37.1995 58.4991 35.7419 67.6625C35.0285 72.0955 35.0285 79.1464 35.7126 81.7936C36.3968 84.3529 37.7065 87.0895 38.8667 88.3977C40.5925 90.3915 42.2874 91.165 50.796 93.8415C59.8407 96.6982 63.5002 98.0957 69.3894 101.011C72.2461 102.439 73.4063 103.153 73.525 103.629C74.5065 107.288 71.1752 119.218 65.5526 132.219C63.6482 136.623 63.4694 137.842 64.6297 139.002C65.5527 139.894 66.4741 140.102 67.7838 139.686C68.6467 139.418 68.9733 139.002 69.9857 136.95C72.9318 131.059 77.4834 118.386 78.7916 112.406C79.7438 108.122 79.8024 102.766 78.881 100.832C77.958 98.8985 77.0073 98.0649 73.4372 96.2513C66.8023 92.8599 61.4771 90.8368 49.2197 86.9986C44.1025 85.4223 43.121 84.7381 42.1688 82.1788C40.3213 77.2712 40.8575 69.7442 43.8021 59.0938C45.8252 51.6855 50.2582 41.1846 53.1134 36.9596C55.6127 33.2708 58.6466 31.5158 61.7406 31.9318C65.132 32.4079 69.5357 35.6206 71.2307 38.8641C73.2245 42.613 73.2831 46.6592 71.3801 54.573C69.4464 62.6948 69.1783 66.4437 70.3385 70.4899C70.9333 72.6918 71.9148 74.2681 73.79 76.1125C75.6945 77.9862 76.5266 78.5224 82.0012 81.7058C87.1769 84.7104 89.7655 86.3761 92.3834 88.3699C93.9304 89.5302 94.5545 89.8276 95.4774 89.8276C97.8272 89.8276 99.2849 86.9415 97.858 85.1865C97.1446 84.2636 92.8903 81.2004 89.4388 79.0879C87.8025 78.0755 86.4927 77.1834 86.5236 77.094C86.5236 76.9754 87.3864 76.2019 88.4573 75.3975C91.0768 73.4037 95.2417 69.06 100.746 62.6039C106.1 56.3558 110.83 51.5668 113.598 49.573C114.698 48.7994 115.65 48.1739 115.74 48.1739C115.829 48.1739 116.334 48.9766 116.9 49.9582C118.119 52.2186 119.934 53.2016 121.302 52.3388C121.539 52.1893 123.385 50.4343 125.378 48.4112L129.037 44.7516V47.0121C129.037 50.3141 128.8 51.1169 127.698 51.7717C126.687 52.3665 126.062 53.4374 126.062 54.5391C126.062 54.8966 126.954 56.533 128.025 58.1693C129.096 59.7764 130.851 62.6917 131.952 64.6255C134.183 68.5824 135.938 71.0215 140.045 75.8413C145.341 82.0586 145.727 83.1295 144.299 87.0864C143.734 88.6334 143.318 88.752 139.658 88.544C136.059 88.3653 135.999 88.336 136.117 86.7289C136.325 84.2898 134.897 82.7119 131.834 81.9692C130.852 81.7304 127.727 81.3745 124.872 81.225C117.464 80.7782 115.798 80.2435 114.877 78.0124C114.401 76.9122 114.34 74.3528 114.727 72.9846C115.322 70.8721 114.043 68.9984 112.02 68.9984C109.729 68.9984 108.926 70.1587 108.629 73.9075C108.39 76.6148 109.075 79.7982 110.384 82.2081C112.228 85.5702 114.966 86.6118 123.562 87.1465C129.542 87.5332 129.929 87.5933 129.929 88.2775C129.929 90.5687 131.863 93.0079 134.302 93.8106C137.723 94.9416 143.911 94.9108 146.202 93.7213C148.344 92.6211 149.356 91.1619 150.456 87.4731C151.795 83.1002 150.694 79.2019 146.707 74.4129C141.294 67.8705 139.629 65.758 138.826 64.3897C138.321 63.5561 136.892 61.1463 135.613 58.9752L133.293 55.0476L134.037 53.5006C134.721 52.1323 134.84 51.4774 134.929 48.2941C135.079 44.2771 134.424 39.3094 133.561 37.465C132.877 36.0659 131.27 35.4419 129.872 36.0073C129.336 36.2154 127.046 38.1784 124.815 40.3803L120.74 44.3664L120.145 43.1769C118.895 40.7377 117.319 40.4404 114.194 42.0767C109.196 44.7239 104.555 49.009 96.1354 58.7364C88.8764 67.1556 84.5328 71.2912 80.6344 73.5516C80.0104 73.9384 77.3925 71.5285 76.5281 69.7442C75.7253 68.1371 75.7253 67.9891 75.8732 64.4483C75.9919 62.0677 76.3201 59.6886 76.8255 57.5468C78.4326 50.8226 78.7592 48.9196 78.7592 45.8549C78.7592 38.6853 76.1706 33.3602 70.8747 29.5805C66.1751 26.2184 61.1766 25.0889 56.9825 26.4279Z" fill="black"/>
<path d="M57.104 75.0987C55.9438 76.051 55.6171 77.5086 56.2412 78.7289C56.5987 79.4131 57.7882 80.1573 61.4184 82.0618C66.833 84.9185 74.8068 89.6782 78.2876 92.1466C79.6266 93.0696 81.7684 94.8832 83.0473 96.1636L85.3971 98.4549L85.2183 101.52C84.8917 107.56 81.0534 119.518 74.7467 134.156C73.944 136.001 73.7051 136.924 73.8253 137.608C74.2121 139.602 76.6219 140.642 78.3477 139.572C79.1212 139.096 79.6266 138.055 81.679 133.235C88.8486 116.099 92.0319 104.466 91.1999 98.4271C90.7238 94.8863 88.4032 92.0896 81.9471 87.4486C75.9964 83.105 61.2705 74.715 59.158 74.4469C58.2643 74.3252 57.8776 74.4454 57.104 75.0987Z" fill="black"/>
<path d="M21.1933 75.1587C12.5352 76.2296 5.36569 81.6442 1.82636 89.7968C0.606013 92.5333 -0.196768 95.8369 0.0420636 96.8477C0.368723 98.1574 1.52898 99.0496 2.86797 99.0496C4.623 99.0496 5.4566 98.1574 6.20082 95.4794C7.65846 90.125 11.5553 85.0371 15.6909 83.0433C18.9929 81.4362 20.9868 81.0494 25.7773 81.0802L30.0315 81.1095L29.8528 79.9492C29.7342 79.2944 29.5847 77.9862 29.4661 77.034C29.3166 75.6056 29.1979 75.2789 28.6633 75.1295C28.0069 74.9507 22.6817 74.9507 21.1933 75.1587Z" fill="black"/>
</svg>
