<svg width="130" height="157" viewBox="0 0 130 157" fill="none" xmlns="http://www.w3.org/2000/svg">
<path d="M60.3801 155.41H43.2002C38.2602 155.41 34.2402 151.39 34.2402 146.45V137.33C34.2402 132.39 38.2602 128.37 43.2002 128.37H60.3801C65.3201 128.37 69.3401 132.39 69.3401 137.33V146.45C69.3401 151.39 65.3201 155.41 60.3801 155.41ZM43.2002 131.38C39.9102 131.38 37.2402 134.05 37.2402 137.34V146.46C37.2402 149.75 39.9102 152.42 43.2002 152.42H60.3801C63.6701 152.42 66.3401 149.75 66.3401 146.46V137.34C66.3401 134.05 63.6701 131.38 60.3801 131.38H43.2002Z" fill="#1A1A1A" stroke="black" stroke-width="2" stroke-miterlimit="10"/>
<path d="M78.1007 148.6C77.4507 148.6 76.8508 148.17 76.6608 147.51C76.4308 146.71 76.8908 145.88 77.6908 145.65L111.931 135.79C115.921 134.6 118.611 130.99 118.611 126.81V51.2C118.611 50.37 119.281 49.7 120.111 49.7C120.941 49.7 121.611 50.37 121.611 51.2V126.81C121.611 132.33 118.061 137.09 112.781 138.67L78.5307 148.53C78.3907 148.57 78.2507 148.59 78.1107 148.59L78.1007 148.6Z" fill="#1A1A1A" stroke="black" stroke-width="2" stroke-miterlimit="10"/>
<path d="M76.6398 131.93C75.9898 131.93 75.3899 131.5 75.1999 130.84C74.9699 130.04 75.4299 129.21 76.2299 128.99L98.5497 122.6C100.7 121.97 102.15 120.02 102.15 117.75V112.33C102.15 111.5 102.82 110.83 103.65 110.83C104.48 110.83 105.15 111.5 105.15 112.33V117.75C105.15 121.3 102.78 124.48 99.3898 125.48L77.0597 131.87C76.9197 131.91 76.7798 131.93 76.6498 131.93H76.6398Z" fill="#1A1A1A" stroke="black" stroke-width="2" stroke-miterlimit="10"/>
<path d="M121.569 42.4099H102.179C98.2392 42.4099 95.0391 39.2099 95.0391 35.2699V30.5399C95.0391 26.5999 98.2392 23.3999 102.179 23.3999H121.569C125.509 23.3999 128.709 26.5999 128.709 30.5399V35.2699C128.709 39.2099 125.509 42.4099 121.569 42.4099ZM102.179 26.3999C99.8992 26.3999 98.0391 28.2599 98.0391 30.5399V35.2699C98.0391 37.5499 99.8992 39.4099 102.179 39.4099H121.569C123.849 39.4099 125.709 37.5499 125.709 35.2699V30.5399C125.709 28.2599 123.849 26.3999 121.569 26.3999H102.179Z" fill="#1A1A1A" stroke="black" stroke-width="2" stroke-miterlimit="10"/>
<path d="M35.0798 109.82C34.8598 109.82 34.6399 109.82 34.4099 109.8C26.0199 109.25 17.55 108.29 9.25 106.93C4.47 106.15 1 102.06 1 97.2002V59.1103C1 54.2503 4.47 50.1502 9.25 49.3802C37.48 44.7802 66.1098 44.7802 94.3398 49.3802C99.1198 50.1602 102.59 54.2503 102.59 59.1103V97.2002C102.59 102.06 99.1198 106.16 94.3398 106.93C86.0398 108.28 77.5699 109.25 69.1799 109.8C65.3799 110.05 61.86 108.17 59.96 104.89L56.4399 98.7902C55.4699 97.1102 53.7298 96.1103 51.7998 96.1103C49.8698 96.1103 48.1299 97.1102 47.1599 98.7902L43.6399 104.89C41.8599 107.98 38.6298 109.82 35.0898 109.82H35.0798ZM51.7998 48.9202C37.7498 48.9202 23.69 50.0602 9.73999 52.3302C6.41999 52.8702 4.01001 55.7203 4.01001 59.1003V97.1902C4.01001 100.57 6.41999 103.42 9.73999 103.96C17.95 105.3 26.3199 106.25 34.6099 106.8C37.2499 106.97 39.7098 105.66 41.0298 103.38L44.5498 97.2802C46.0598 94.6602 48.7698 93.1003 51.7898 93.1003C54.8098 93.1003 57.5198 94.6602 59.0298 97.2802L62.5498 103.38C63.8698 105.66 66.33 106.97 68.97 106.8C77.27 106.26 85.6398 105.3 93.8398 103.96C97.1598 103.42 99.5698 100.57 99.5698 97.1902V59.1003C99.5698 55.7203 97.1598 52.8702 93.8398 52.3302C79.8898 50.0602 65.8298 48.9202 51.7798 48.9202H51.7998Z" fill="#1A1A1A" stroke="black" stroke-width="2" stroke-miterlimit="10"/>
<path d="M79.3107 63.8102C79.2507 63.8102 79.2007 63.8102 79.1407 63.8102C71.9507 63.0102 64.6508 62.5302 57.4408 62.3602C56.6108 62.3402 55.9608 61.6502 55.9708 60.8302C55.9908 60.0002 56.6908 59.3502 57.5008 59.3602C64.8008 59.5302 72.1908 60.0202 79.4608 60.8302C80.2808 60.9202 80.8806 61.6602 80.7906 62.4902C80.7006 63.2602 80.0607 63.8202 79.3007 63.8202L79.3107 63.8102Z" fill="#1A1A1A" stroke="black" stroke-width="2" stroke-miterlimit="10"/>
<path d="M26.4492 95.7103C26.3992 95.7103 26.3491 95.7103 26.2991 95.7103C22.7491 95.3503 19.1692 94.9103 15.6492 94.3903C14.9092 94.2803 14.3691 93.6503 14.3691 92.9103V82.7803C14.3691 81.9503 15.0391 81.2803 15.8691 81.2803C16.6991 81.2803 17.3691 81.9503 17.3691 82.7803V91.6104C20.4291 92.0404 23.5291 92.4103 26.5991 92.7303C27.4191 92.8103 28.0192 93.5504 27.9392 94.3704C27.8592 95.1404 27.2092 95.7203 26.4492 95.7203V95.7103Z" fill="#1A1A1A" stroke="black" stroke-width="2" stroke-miterlimit="10"/>
<path d="M41.749 36.4602C33.549 36.4602 26.8789 29.7902 26.8789 21.5902C26.8789 13.3902 33.549 6.72021 41.749 6.72021C49.949 6.72021 56.6189 13.3902 56.6189 21.5902C56.6189 29.7902 49.949 36.4602 41.749 36.4602ZM41.749 9.73022C35.209 9.73022 29.8789 15.0502 29.8789 21.6002C29.8789 28.1502 35.199 33.4702 41.749 33.4702C48.299 33.4702 53.6189 28.1502 53.6189 21.6002C53.6189 15.0502 48.299 9.73022 41.749 9.73022Z" fill="#1A1A1A" stroke="black" stroke-width="2" stroke-miterlimit="10"/>
<path d="M76.8386 19.5601C71.7286 19.5601 67.5586 15.4 67.5586 10.28C67.5586 5.16003 71.7186 1 76.8386 1C81.9586 1 86.1187 5.16003 86.1187 10.28C86.1187 15.4 81.9586 19.5601 76.8386 19.5601ZM76.8386 4.01001C73.3786 4.01001 70.5586 6.82004 70.5586 10.29C70.5586 13.76 73.3786 16.5701 76.8386 16.5701C80.2986 16.5701 83.1187 13.76 83.1187 10.29C83.1187 6.82004 80.2986 4.01001 76.8386 4.01001Z" fill="#1A1A1A" stroke="black" stroke-width="2" stroke-miterlimit="10"/>
</svg>
