<svg width="137" height="149" viewBox="0 0 137 149" fill="none" xmlns="http://www.w3.org/2000/svg">
<path d="M47.2264 147.412C45.9664 147.412 43.9766 145.282 34.6466 133.942C32.7966 131.692 31.0065 129.522 29.5465 127.792C28.9365 127.072 28.1464 126.532 27.2664 126.212C25.1364 125.442 22.4764 124.522 19.7164 123.572C2.96639 117.802 2.51656 117.362 2.64656 115.712C2.69656 115.102 3.11656 114.372 4.14656 114.192C4.45656 114.132 4.94648 114.082 5.56648 114.012C13.7165 113.092 24.6364 110.622 25.4564 99.8316C26.9264 72.4516 48.2966 50.5115 77.4266 46.5015C81.7166 45.9115 85.8064 48.7516 86.7464 52.9816C93.1564 81.6816 80.0465 109.372 54.8665 120.312C45.0665 124.832 46.5665 135.932 48.5465 143.892C48.6965 144.502 48.8165 144.982 48.8665 145.292C49.0565 146.322 48.5264 146.972 47.9664 147.232C47.7064 147.352 47.4764 147.442 47.2164 147.442L47.2264 147.412ZM9.01644 116.582C12.3164 117.842 17.0864 119.492 20.6964 120.732C23.4664 121.692 26.1465 122.612 28.2865 123.382C29.6665 123.882 30.8865 124.732 31.8365 125.852C33.3165 127.592 35.1064 129.772 36.9664 132.042C39.3864 134.992 42.5966 138.892 44.9266 141.542C43.5466 134.812 42.4466 122.722 53.6366 117.562C77.5066 107.192 89.9065 80.9015 83.8165 53.6215C83.2165 50.9115 80.5865 49.0816 77.8265 49.4616C50.1365 53.2716 29.8266 74.0616 28.4366 100.022C27.4966 112.342 15.7864 115.532 8.99642 116.592L9.01644 116.582Z" fill="#1A1A1A" stroke="black" stroke-width="2" stroke-miterlimit="10"/>
<path d="M73.1367 79.9717C72.9767 79.9717 72.8167 79.9416 72.6567 79.8916C63.0967 76.6516 52.5467 67.6616 48.6167 59.4116C48.2567 58.6616 48.5767 57.7716 49.3267 57.4116C50.0767 57.0516 50.9667 57.3716 51.3267 58.1216C54.9467 65.7316 64.7367 74.0416 73.6167 77.0516C74.3967 77.3216 74.8267 78.1717 74.5567 78.9517C74.3467 79.5817 73.7567 79.9717 73.1367 79.9717Z" fill="#1A1A1A" stroke="black" stroke-width="2" stroke-miterlimit="10"/>
<path d="M125.296 71.3017C125.136 71.3017 124.976 71.2717 124.816 71.2217C124.026 70.9617 123.606 70.1117 123.866 69.3217C130.286 50.1717 116.486 22.3316 100.326 11.1616C88.5658 3.27165 74.2758 1.87161 59.0058 7.12161C34.7858 15.4516 12.656 38.9116 3.92595 65.5116C3.66595 66.3016 2.81581 66.7217 2.03581 66.4717C1.24581 66.2117 0.815853 65.3617 1.07585 64.5817C10.0859 37.1417 32.9658 12.9117 58.0258 4.29165C74.2158 -1.27835 89.4258 0.241679 102.006 8.69168C123.086 23.2617 132.426 53.2216 126.706 70.2816C126.496 70.9116 125.906 71.3017 125.286 71.3017H125.296Z" fill="#1A1A1A" stroke="black" stroke-width="2" stroke-miterlimit="10"/>
<path d="M123.247 86.9015C118.047 86.9015 113.807 82.6715 113.807 77.4615C113.807 72.2515 118.037 68.0215 123.247 68.0215C128.457 68.0215 132.687 72.2515 132.687 77.4615C132.687 82.6715 128.457 86.9015 123.247 86.9015ZM123.247 71.0315C119.697 71.0315 116.807 73.9216 116.807 77.4716C116.807 81.0216 119.697 83.9115 123.247 83.9115C126.797 83.9115 129.687 81.0216 129.687 77.4716C129.687 73.9216 126.797 71.0315 123.247 71.0315Z" fill="#1A1A1A" stroke="black" stroke-width="2" stroke-miterlimit="10"/>
<path d="M123.246 138.672C115.156 138.672 108.586 132.662 108.586 125.262C108.586 120.182 111.666 115.602 116.616 113.302C119.786 111.832 121.746 108.882 121.746 105.602V96.4517C121.746 95.6217 122.416 94.9517 123.246 94.9517C124.076 94.9517 124.746 95.6217 124.746 96.4517V105.602C124.746 110.072 122.116 114.062 117.876 116.032C113.996 117.832 111.576 121.372 111.576 125.272C111.576 131.012 116.806 135.682 123.236 135.682C127.156 135.682 130.796 133.942 132.966 131.012C133.456 130.342 134.406 130.212 135.066 130.702C135.726 131.192 135.866 132.132 135.376 132.802C132.636 136.482 128.106 138.682 123.236 138.682L123.246 138.672Z" fill="#1A1A1A" stroke="black" stroke-width="2" stroke-miterlimit="10"/>
</svg>
