<svg width="179" height="226" viewBox="0 0 179 226" fill="none" xmlns="http://www.w3.org/2000/svg">
<path d="M82.0248 0.486542C68.4276 3.0815 56.4609 11.576 46.6919 25.6117C42.0279 32.2989 37.4947 42.332 35.2948 50.7369C33.2257 58.5241 32.8743 62.8804 32.8743 81.2289V98.1696L17.649 103.229C1.76464 108.508 0.664656 109.036 0.0928462 111.59C-0.302139 113.482 0.928744 115.769 2.86463 116.695L4.4928 117.444L18.1336 112.91C25.613 110.403 32.0384 108.29 32.3462 108.159C32.7434 108.026 32.8743 110.931 32.8743 121.843V135.705L17.5181 140.853C1.72101 146.089 0.710585 146.574 0.0928462 149.038C-0.522596 151.502 2.02873 154.715 4.58006 154.715C5.02098 154.715 11.5773 152.645 19.1004 150.138L32.8284 145.561L33.0052 169.586C33.1384 192.732 33.1821 193.786 34.1052 197.396C36.877 207.911 43.4769 215.524 53.5537 219.88C61.3868 223.267 69.0431 224.588 82.8147 224.985C107.455 225.644 123.34 221.465 133.768 211.565C138.873 206.68 141.996 201.224 144.109 193.437C145.252 189.257 145.252 189.257 145.429 167.432L145.56 145.563L159.288 150.14C166.813 152.648 173.413 154.717 173.896 154.717C175.437 154.717 177.503 153.089 178.031 151.504C178.603 149.876 178.162 148.117 176.888 146.707C176.536 146.312 169.319 143.671 160.87 140.856L145.519 135.702V121.841C145.519 110.929 145.65 108.026 146.09 108.157C146.355 108.29 152.778 110.4 160.259 112.908L173.9 117.441L175.528 116.693C177.464 115.769 178.697 113.48 178.3 111.588C177.728 109.036 176.628 108.508 160.788 103.226L145.608 98.211L145.388 81.2266C145.167 63.6704 145.036 62.1295 142.967 54.1219C136.101 27.7244 118.106 6.20692 98.6578 1.10197C94.0374 -0.0852814 86.6015 -0.349365 82.0248 0.486542ZM97.1169 10.4737C114.629 15.8427 130.822 38.2834 135.221 63.1882C136.014 67.5445 136.057 71.3726 136.057 127.651V187.494L135.091 191.014C132.891 198.804 128.27 205.139 122.022 208.791C112.958 214.16 98.6578 216.491 80.7043 215.478C56.415 214.114 46.3383 208.614 43.1279 194.842C42.3792 191.673 42.3356 187.627 42.3356 126.992C42.3356 54.5651 42.1152 59.5368 45.6792 48.9342C49.4201 37.7139 54.1714 29.9244 62.0918 22.05C68.1199 16.0655 72.2558 13.3373 78.4171 11.181C84.9734 8.93507 91.2219 8.67099 97.1169 10.4737Z" fill="black"/>
<path d="M86.5562 23.4117C73.9718 25.8321 60.5515 40.396 54.6543 58.0854C51.7057 66.9289 51.7952 64.3776 51.7952 126.507C51.7952 172.666 51.9261 183.05 52.4107 184.896C54.7875 193.917 62.4001 198.888 76.8745 200.958C81.7154 201.663 96.6743 201.663 101.515 200.958C113.264 199.286 120.876 195.414 124.087 189.606C126.684 184.765 126.594 187.406 126.594 126.289C126.594 64.4235 126.682 66.9312 123.735 58.0877C118.543 42.511 106.487 28.078 95.6616 24.5139C92.8484 23.5862 88.4944 23.058 86.5562 23.4117ZM94.7843 34.3679C104.597 39.2524 114.235 54.1677 116.699 68.2035C117.184 71.0189 117.358 75.1547 117.358 82.811V93.5491H89.1535H60.9488L61.1256 81.0979C61.3024 69.4366 61.3897 68.4262 62.4897 64.4212C66.8896 47.965 79.6945 32.8293 89.1994 32.8293C91.1766 32.827 92.3662 33.1347 94.7843 34.3679ZM117.358 117.31V131.392H89.1971H61.036V117.31V103.231H89.1971H117.358V117.31ZM117.271 161.62C117.14 185.512 117.227 184.765 113.486 187.494C109.043 190.706 101.694 192.114 89.1971 192.114C76.7 192.114 69.3514 190.706 64.9078 187.494C61.1669 184.765 61.2565 185.514 61.1233 161.62L60.9901 140.63H89.1948H117.4L117.271 161.62Z" fill="black"/>
</svg>
