<svg width="152" height="94" viewBox="0 0 152 94" fill="none" xmlns="http://www.w3.org/2000/svg">
<path d="M152 2.98792H145.842V0.147655H137.795V2.98792H26.0842V0H21.8323V3.05286C19.5425 3.22293 17.3562 3.75403 15.33 4.59359C13.6818 3.35822 11.6567 2.66825 9.57835 2.66825C4.29673 2.66864 0 6.96537 0 12.247C0 14.9056 1.09853 17.4068 2.99256 19.1977C2.77571 20.1397 2.61839 21.1072 2.52949 22.0975L1.76415 30.6028L3.76176 30.888C7.56256 31.4311 10.893 33.4446 13.1399 36.5574C15.3868 39.6705 16.2492 43.4659 15.5677 47.2439L9.4276 81.2795C8.87408 84.3474 9.7032 87.4784 11.7024 89.8702C13.7015 92.2621 16.6357 93.6339 19.7527 93.6339H36.7993C40.2426 93.6339 43.215 91.1802 43.8675 87.7992L48.5353 63.6113C49.7042 57.5547 55.0295 53.1587 61.1978 53.1587H73.5039C80.6023 53.1587 86.8491 48.6242 89.0485 41.8749L90.5931 37.1341C91.5656 34.1496 94.31 32.1373 97.4413 32.0964L117.435 32.0925V29.0157H151.992L152 2.98792ZM147.733 16.4799H124.654C120.44 16.4799 116.753 18.7655 114.758 22.1605H6.80032C7.52623 15.4776 12.0386 10.1079 18.1045 8.09676V17.5742H22.3564V7.27769C22.7136 7.25527 25.0274 7.23981 25.0274 7.23981V17.5738H29.2793V7.23981H31.9502V17.5738H36.2021V7.23981H38.8735V17.5738H43.1254V7.23981H45.7963V17.5738H50.0482V7.23981H147.701L147.733 16.4799ZM4.25189 12.247C4.25189 9.3097 6.64145 6.92053 9.57835 6.92053C10.0356 6.92053 10.4809 6.98392 10.9111 7.0937C8.32636 9.00705 6.19887 11.506 4.72346 14.4178C4.42235 13.744 4.25189 13.0092 4.25189 12.247ZM64.7872 48.8596H63.2619C58.9381 48.8596 55.4207 45.7805 55.4207 41.9955C55.4207 36.9837 59.6764 32.8362 65.1652 32.2173C62.5178 37.2473 62.3667 43.8076 64.7872 48.8596ZM85.0057 40.558C83.3788 45.552 78.7566 48.9072 73.5039 48.9072H69.7731C66.338 44.4404 66.5846 36.5141 70.3181 32.13L81.862 32.1161V32.1404C83.2732 32.1497 85.136 32.3851 85.9956 33.4542C86.8015 34.4565 86.502 35.9207 86.4985 35.935L86.5112 35.9377L85.0057 40.558ZM66.5842 27.8827C58.0843 27.8827 51.1688 34.2138 51.1688 41.9955C51.1688 45.1949 52.6484 48.0595 55.0098 50.0695C49.6393 52.1564 45.5037 56.8818 44.3603 62.8058L39.6925 86.9936C39.4254 88.3774 38.209 89.3821 36.7993 89.3821H19.7527C17.8989 89.3821 16.1537 88.5661 14.9647 87.1436C13.7757 85.7212 13.2825 83.8588 13.6118 82.0344L19.752 47.9992C20.6402 43.074 19.5166 38.1271 16.5874 34.0692C14.0571 30.5641 10.4732 28.1282 6.35078 27.0737L6.4103 26.4123H113.29C113.227 26.8808 113.188 27.3567 113.184 27.841L66.5842 27.8827ZM147.74 24.7642H118.186C119.366 22.3796 121.818 20.7318 124.654 20.7318H147.74V24.7642Z" fill="black"/>
<path d="M38.0304 29.4983H33.399C28.2913 29.4983 23.8875 33.5588 22.9277 39.1532L16.672 75.6092C16.1672 78.5504 16.9658 81.611 18.8076 83.7961C20.4245 85.7141 22.6243 86.7701 25.0019 86.7701H32.668C35.5678 86.7701 38.0695 84.5108 38.6156 81.3984L45.8755 40.0294C46.3614 37.2619 45.6169 34.3775 43.8845 32.3146C42.3592 30.4983 40.2804 29.4983 38.0304 29.4983ZM41.6878 39.2943L34.4279 80.6628C34.2393 81.7378 33.4991 82.5178 32.668 82.5178H25.0019C23.8991 82.5178 22.8535 81.9983 22.0584 81.0551C21.014 79.8163 20.5671 78.0494 20.8625 76.3282L27.1181 39.8721C27.7265 36.3249 30.3681 33.7502 33.399 33.7502H38.0304C39.0026 33.7502 39.9248 34.2113 40.6283 35.0485C41.5626 36.1614 41.9588 37.7485 41.6878 39.2943Z" fill="black"/>
</svg>
