<svg width="128" height="155" viewBox="0 0 128 155" fill="none" xmlns="http://www.w3.org/2000/svg">
<path d="M78.8767 96.93H52.8767C52.4567 96.93 52.0566 96.76 51.7766 96.45C51.4966 96.14 51.3467 95.73 51.3867 95.32C51.4867 93.98 52.1966 92.32 53.3167 90.77C54.7766 88.78 56.8766 86.97 59.4066 85.55C61.7066 84.26 64.3566 83.36 67.2766 82.88C77.9966 81.13 103.377 63.99 103.377 43.51C103.377 21.73 86.5567 4.01001 65.8767 4.01001C45.1967 4.01001 28.3767 21.73 28.3767 43.51C28.3767 58.4 41.9467 71.59 53.5667 78.36C54.2866 78.78 54.5267 79.7 54.1067 80.41C53.6867 81.13 52.7666 81.37 52.0566 80.95C39.7466 73.78 25.3867 59.67 25.3867 43.5C25.3867 20.07 43.5567 1 65.8867 1C88.2167 1 106.387 20.07 106.387 43.5C106.387 65.54 79.2267 83.96 67.7667 85.83C65.1967 86.25 62.8767 87.03 60.8767 88.15C58.1567 89.68 56.5867 91.37 55.7467 92.52C55.3867 93.02 55.1066 93.49 54.8966 93.92H76.8767C76.6667 93.49 76.3866 93.02 76.0266 92.52C75.5366 91.85 75.6867 90.91 76.3567 90.42C77.0267 89.93 77.9667 90.08 78.4567 90.75C79.5767 92.3 80.2867 93.95 80.3867 95.3C80.4167 95.72 80.2767 96.13 79.9967 96.43C79.7167 96.74 79.3166 96.91 78.8966 96.91L78.8767 96.93Z" fill="#1A1A1A" stroke="black" stroke-width="2" stroke-miterlimit="10"/>
<path d="M36.9767 42.46C36.9767 42.46 36.8967 42.46 36.8567 42.46C36.0267 42.4 35.4167 41.6801 35.4767 40.8501C36.3567 29.2601 43.0767 18.9901 52.9967 14.0501C53.7367 13.6801 54.6368 13.9801 55.0068 14.7201C55.3768 15.4601 55.0767 16.3601 54.3367 16.7301C45.3567 21.2001 39.2767 30.5301 38.4667 41.0701C38.4067 41.8601 37.7467 42.46 36.9767 42.46Z" fill="#1A1A1A" stroke="black" stroke-width="2" stroke-miterlimit="10"/>
<path d="M65.8776 153.47C65.5176 153.47 65.1576 153.34 64.8676 153.08C64.2576 152.52 64.2175 151.57 64.7775 150.96C69.3975 145.92 73.8476 139.61 68.1976 128.52L68.1276 128.39C66.9176 126 65.5376 123.3 64.4476 119.91C62.9576 115.3 62.3876 110.53 62.7176 105.34C62.7676 104.51 63.4875 103.89 64.3075 103.94C65.1375 103.99 65.7576 104.71 65.7076 105.53C65.4076 110.34 65.9275 114.75 67.2975 118.99C68.3075 122.16 69.6275 124.75 70.7875 127.03L70.8576 127.16C77.9276 141.03 70.5276 149.1 66.9776 152.98C66.6776 153.3 66.2776 153.47 65.8676 153.47H65.8776Z" fill="#1A1A1A" stroke="black" stroke-width="2" stroke-miterlimit="10"/>
<path d="M6.08727 108.09C5.49727 108.09 4.94726 107.74 4.70726 107.17C0.767261 97.7999 0.667207 89.26 1.27721 83.74C1.98721 77.29 4.10725 71.2699 6.94725 67.6599C11.2373 62.1999 14.4072 44.3599 5.17723 29.7199C4.73723 29.0199 4.9472 28.0899 5.6472 27.6499C6.3472 27.2099 7.27727 27.42 7.71727 28.12C17.1273 43.05 14.9872 62.29 9.30724 69.51C4.65724 75.42 1.01727 90.65 7.46727 106C7.78727 106.76 7.42722 107.64 6.66722 107.96C6.47722 108.04 6.27727 108.08 6.08727 108.08V108.09Z" fill="#1A1A1A" stroke="black" stroke-width="2" stroke-miterlimit="10"/>
<path d="M27.9783 137.26C27.7683 137.26 27.5483 137.21 27.3383 137.12C26.5883 136.77 26.2683 135.88 26.6183 135.13C32.6283 122.3 30.2282 100.65 26.6482 93.7901C26.2682 93.0601 26.5482 92.1501 27.2782 91.7701C28.0182 91.3901 28.9182 91.6701 29.2982 92.4001C33.5782 100.59 35.5183 123.17 29.3283 136.4C29.0783 136.94 28.5283 137.26 27.9683 137.26H27.9783Z" fill="#1A1A1A" stroke="black" stroke-width="2" stroke-miterlimit="10"/>
<path d="M124.937 88.5C124.497 88.5 124.067 88.31 123.767 87.94C114.167 76.09 117.807 61.19 120.217 51.33C121.147 47.51 121.957 44.21 121.667 42.44C121.537 41.62 122.087 40.8499 122.907 40.7199C123.717 40.5899 124.497 41.1399 124.627 41.9599C125.017 44.3299 124.187 47.74 123.127 52.05C120.727 61.89 117.427 75.37 126.097 86.06C126.617 86.7 126.517 87.65 125.877 88.17C125.597 88.4 125.267 88.5 124.937 88.5Z" fill="#1A1A1A" stroke="black" stroke-width="2" stroke-miterlimit="10"/>
<path d="M105.508 134.34C105.248 134.34 104.988 134.27 104.748 134.13C104.038 133.71 103.798 132.79 104.218 132.08C107.518 126.46 107.988 113.79 103.598 106.49C103.168 105.78 103.398 104.86 104.108 104.43C104.818 104 105.738 104.23 106.168 104.94C110.708 112.51 111.018 126.43 106.798 133.6C106.518 134.08 106.018 134.34 105.508 134.34Z" fill="#1A1A1A" stroke="black" stroke-width="2" stroke-miterlimit="10"/>
</svg>
