<svg width="160" height="151" viewBox="0 0 160 151" fill="none" xmlns="http://www.w3.org/2000/svg">
<path d="M2.56158 149.56C2.06158 149.56 1.59158 149.32 1.30158 148.92C1.01158 148.52 0.921584 148 1.07158 147.52L18.0016 93.6C18.2116 92.93 18.8116 92.48 19.5016 92.48H27.9716V70.53H17.6216C8.46158 70.53 1.00158 63.07 1.00158 53.91C1.00158 53.05 1.70158 52.34 2.57158 52.34H34.2416V35.46L32.8316 35.31C24.3416 34.43 17.9316 27.33 17.9316 18.78C17.9316 17.92 18.6316 17.21 19.5016 17.21H36.1816L40.7116 2.12C40.9116 1.46 41.5216 1 42.2116 1H65.6416C66.5016 1 67.2116 1.7 67.2116 2.57C67.2116 3.44 66.5116 4.14 65.6416 4.14H43.3816L38.8516 19.23C38.6516 19.89 38.0416 20.35 37.3516 20.35H21.0116L21.5516 22.33C23.1516 28.18 28.5016 32.27 34.5616 32.27H124.872C130.932 32.27 136.282 28.18 137.882 22.33L138.422 20.35H122.082C121.382 20.35 120.782 19.9 120.582 19.23L116.052 4.14H93.8716C93.0116 4.14 92.3016 3.44 92.3016 2.57C92.3016 1.7 93.0016 1 93.8716 1H117.222C117.922 1 118.522 1.45 118.722 2.12L123.252 17.21H139.932C140.792 17.21 141.502 17.91 141.502 18.78C141.502 27.33 135.092 34.43 126.602 35.31L125.192 35.46V52.34H156.862C157.722 52.34 158.432 53.04 158.432 53.91C158.432 63.07 150.972 70.53 141.812 70.53H131.462V92.48H139.932C140.612 92.48 141.232 92.94 141.432 93.59L158.362 147.52C158.512 147.99 158.422 148.52 158.132 148.92C157.842 149.32 157.362 149.56 156.872 149.56H2.56158ZM141.482 114.51V146.42H154.712L144.542 114.04L141.482 114.51ZM79.7016 108.79C90.9416 108.79 100.082 117.93 100.082 129.17V146.42H138.342V95.62H21.0616V146.42H59.3216V129.17C59.3216 117.93 68.4616 108.79 79.7016 108.79ZM79.7016 111.93C70.1916 111.93 62.4516 119.67 62.4516 129.18V146.43H96.9416V129.18C96.9416 119.67 89.2016 111.93 79.6916 111.93H79.7016ZM4.69158 146.43H17.9216V114.52L14.8616 114.05L4.69158 146.43ZM111.372 92.49H128.302V70.54H111.372V92.49ZM91.3016 92.49H108.232V70.54H91.3016V92.49ZM71.2316 92.49H88.1616V70.54H71.2316V92.49ZM51.1616 92.49H68.0916V70.54H51.1616V92.49ZM31.0916 92.49H48.0216V70.54H31.0916V92.49ZM4.60158 57.47C6.20158 63.32 11.5516 67.41 17.6116 67.41H141.792C147.852 67.41 153.202 63.32 154.802 57.47L155.342 55.49H4.06158L4.60158 57.47ZM107.612 52.35H122.032V35.42H107.612V52.35ZM90.0516 52.35H104.472V35.42H90.0516V52.35ZM72.4916 52.35H86.9116V35.42H72.4916V52.35ZM54.9316 52.35H69.3516V35.42H54.9316V52.35ZM37.3716 52.35H51.7916V35.42H37.3716V52.35Z" fill="black" stroke="black" stroke-width="2" stroke-miterlimit="10"/>
<path d="M79.7028 4.16002C79.2928 4.16002 78.8828 3.99002 78.5928 3.70002C78.2928 3.40002 78.1328 3.00002 78.1328 2.59002C78.1328 2.18002 78.3028 1.77002 78.5928 1.48002C78.8828 1.19002 79.2928 1.02002 79.7028 1.02002C80.1128 1.02002 80.5228 1.19002 80.8128 1.48002C81.1028 1.77002 81.2728 2.18002 81.2728 2.59002C81.2728 3.00002 81.1028 3.41002 80.8128 3.70002C80.5228 3.99002 80.1228 4.16002 79.7028 4.16002Z" fill="black" stroke="black" stroke-width="2" stroke-miterlimit="10"/>
</svg>
