<svg width="146" height="124" viewBox="0 0 146 124" fill="none" xmlns="http://www.w3.org/2000/svg">
<path d="M90.133 122.85C89.743 122.85 89.353 122.7 89.053 122.4L55.153 87.5699C53.513 85.8799 51.313 84.95 48.963 84.95C46.613 84.95 44.413 85.8799 42.763 87.5699L8.86301 122.4C8.28301 122.99 7.33301 123 6.74301 122.43C6.15301 121.85 6.13301 120.9 6.71301 120.31L40.613 85.48C42.823 83.21 45.793 81.96 48.963 81.96C52.133 81.96 55.093 83.21 57.303 85.48L91.203 120.31C91.783 120.9 91.763 121.85 91.173 122.43C90.883 122.71 90.503 122.85 90.123 122.85H90.133Z" fill="#1A1A1A" stroke="black" stroke-width="2" stroke-miterlimit="10"/>
<path d="M111.364 77.97C110.974 77.97 110.584 77.82 110.294 77.52L107.324 74.48C106.744 73.89 106.754 72.94 107.354 72.36C107.944 71.78 108.894 71.79 109.474 72.39L112.444 75.4299C113.024 76.0199 113.014 76.9699 112.414 77.5499C112.124 77.8399 111.744 77.98 111.364 77.98V77.97Z" fill="#1A1A1A" stroke="black" stroke-width="2" stroke-miterlimit="10"/>
<path d="M127.383 94.38C126.993 94.38 126.603 94.2299 126.313 93.9299L117.103 84.49C116.523 83.9 116.533 82.95 117.133 82.37C117.723 81.79 118.673 81.8 119.253 82.4L128.463 91.84C129.043 92.43 129.033 93.38 128.433 93.96C128.143 94.25 127.763 94.39 127.383 94.39V94.38Z" fill="#1A1A1A" stroke="black" stroke-width="2" stroke-miterlimit="10"/>
<path d="M143.124 92.84C142.734 92.84 142.344 92.69 142.054 92.39L108.044 57.54C106.404 55.86 104.204 54.9299 101.854 54.9299C99.5045 54.9299 97.3145 55.86 95.6745 57.54L61.8845 92.27C61.3045 92.87 60.3545 92.8799 59.7645 92.2999C59.1745 91.7199 59.1545 90.7699 59.7345 90.1799L93.5245 55.45C95.7245 53.18 98.6845 51.9299 101.844 51.9299C105.014 51.9299 107.974 53.18 110.184 55.45L144.194 90.2999C144.774 90.8899 144.764 91.8399 144.164 92.4199C143.874 92.7099 143.494 92.85 143.114 92.85L143.124 92.84Z" fill="#1A1A1A" stroke="black" stroke-width="2" stroke-miterlimit="10"/>
<path d="M2.50395 102.97C2.12395 102.97 1.75397 102.83 1.45397 102.55C0.863965 101.97 0.843936 101.02 1.42394 100.43L12.004 89.5499C12.584 88.9499 13.5339 88.94 14.1239 89.52C14.7139 90.1 14.7339 91.05 14.1539 91.64L3.57396 102.52C3.28396 102.82 2.89395 102.97 2.50395 102.97Z" fill="#1A1A1A" stroke="black" stroke-width="2" stroke-miterlimit="10"/>
<path d="M25.5332 79.3199C25.1532 79.3199 24.7832 79.18 24.4832 78.9C23.8932 78.32 23.8732 77.37 24.4532 76.78L35.0332 65.9C35.6132 65.3 36.5632 65.29 37.1532 65.87C37.7432 66.45 37.7632 67.4 37.1832 67.99L26.6032 78.87C26.3132 79.17 25.9232 79.3199 25.5332 79.3199Z" fill="#1A1A1A" stroke="black" stroke-width="2" stroke-miterlimit="10"/>
<path d="M69.6934 56.33C69.3134 56.33 68.9434 56.19 68.6434 55.91C68.0534 55.33 68.0334 54.38 68.6134 53.79L79.1934 42.91C79.7734 42.31 80.7234 42.3 81.3134 42.88C81.9034 43.46 81.9234 44.41 81.3434 45L70.7634 55.88C70.4734 56.18 70.0834 56.33 69.6934 56.33Z" fill="#1A1A1A" stroke="black" stroke-width="2" stroke-miterlimit="10"/>
<path d="M58.6632 66.99C58.2832 66.99 57.9132 66.8499 57.6132 66.5699L46.7332 55.99C46.1432 55.41 46.1232 54.46 46.7032 53.87C47.2832 53.27 48.2332 53.26 48.8232 53.84L59.7032 64.4199C60.2932 64.9999 60.3132 65.95 59.7332 66.54C59.4432 66.84 59.0532 66.99 58.6532 66.99H58.6632Z" fill="#1A1A1A" stroke="black" stroke-width="2" stroke-miterlimit="10"/>
<path d="M101.965 43.1799C97.4648 43.1799 85.3848 25.92 85.3848 17.59C85.3848 8.44997 92.8248 1 101.965 1C111.105 1 118.545 8.43997 118.545 17.59C118.545 25.92 106.465 43.1799 101.965 43.1799ZM101.965 4C94.4748 4 88.3848 10.09 88.3848 17.59C88.3848 25.09 99.3648 39.4399 101.965 40.1699C104.575 39.4399 115.545 25.39 115.545 17.59C115.545 9.78997 109.455 4 101.965 4Z" fill="#1A1A1A" stroke="black" stroke-width="2" stroke-miterlimit="10"/>
</svg>
