<svg width="141" height="141" viewBox="0 0 141 141" fill="none" xmlns="http://www.w3.org/2000/svg">
<path d="M55.0862 63.3202C51.4562 63.3202 48.0962 60.9502 47.0062 57.3002C46.7762 56.5202 46.6562 55.7202 46.6562 54.9202C46.6562 51.2102 49.1362 47.8902 52.6862 46.8402L75.4763 40.1101C76.2663 39.8701 77.1062 40.3301 77.3362 41.1201C77.5662 41.9101 77.1162 42.7501 76.3262 42.9801L53.5362 49.7102C51.2562 50.3802 49.6562 52.5202 49.6562 54.9102C49.6562 55.4202 49.7363 55.9302 49.8763 56.4302C50.7263 59.2802 53.7363 60.9302 56.5963 60.0802L70.3562 56.0101C71.1562 55.7701 71.9862 56.2301 72.2162 57.0201C72.4462 57.8101 71.9962 58.6501 71.2062 58.8801L57.4463 62.9502C56.6563 63.1802 55.8562 63.2902 55.0762 63.2902L55.0862 63.3202Z" fill="#1A1A1A" stroke="black" stroke-width="2" stroke-miterlimit="10"/>
<path d="M53.2959 138.7C51.0959 138.7 48.9959 137.93 47.3159 136.49C45.2659 134.74 44.0859 132.17 44.0859 129.45C44.0859 127.25 44.8759 125.12 46.2959 123.45L64.4259 102.25C64.9659 101.62 65.9159 101.55 66.5359 102.08C67.1659 102.62 67.236 103.57 66.696 104.2L48.5659 125.4C47.6059 126.53 47.0759 127.97 47.0759 129.45C47.0759 131.29 47.8659 133.03 49.2559 134.21C50.5159 135.29 52.1259 135.81 53.7959 135.68C55.4659 135.55 56.9759 134.78 58.0559 133.52L76.1159 112.42C76.6559 111.79 77.606 111.72 78.226 112.26C78.856 112.8 78.9259 113.75 78.3859 114.37L60.3259 135.47C58.7259 137.34 56.4859 138.48 54.0159 138.67C53.7659 138.69 53.5159 138.7 53.2759 138.7H53.2959Z" fill="#1A1A1A" stroke="black" stroke-width="2" stroke-miterlimit="10"/>
<path d="M94.0656 139.12C92.4056 139.12 90.7656 138.65 89.3256 137.74C85.6556 135.43 84.1756 130.83 85.8156 126.81L93.1356 108.82L83.6656 106.1C79.4356 104.89 76.4756 102.99 74.3456 100.13C71.4556 96.2601 70.5456 91.3101 71.8556 86.5501C72.0656 85.7901 75.2456 74.7 78.3256 63.97L82.3556 49.9301C82.9556 47.8401 83.7156 45.6301 85.1856 43.6201C88.1556 39.5601 92.9256 37.0801 97.9456 37.0001C101.756 36.9501 105.576 38.1202 108.736 40.3402C109.566 40.7702 110.316 41.31 110.946 41.97L137.036 68.7001C140.186 71.9301 140.246 77.0302 137.166 80.3302C135.586 82.0302 133.436 82.9801 131.116 83.0101C128.786 83.0401 126.626 82.1501 124.996 80.4901L112.356 67.6201C111.216 71.6501 109.936 76.1301 108.756 80.2501C107.286 85.3801 105.776 90.66 105.146 92.97C105.586 93.09 106.096 93.23 106.546 93.35C108.856 93.97 111.716 94.7401 113.246 95.5501C115.526 96.7601 117.196 98.9201 117.846 101.48C118.486 104.03 118.036 106.71 116.616 108.85C116.356 109.25 113.896 113.56 111.296 118.12C108.306 123.37 104.586 129.9 101.826 134.66C100.596 136.78 98.6156 138.27 96.2356 138.85C95.5156 139.03 94.7956 139.11 94.0756 139.11L94.0656 139.12ZM98.2256 40.0101C98.1456 40.0101 98.0656 40.0101 97.9856 40.0101C93.8956 40.0801 90.0156 42.0901 87.5956 45.4001C86.4056 47.0401 85.7556 48.9501 85.2256 50.7701L81.1956 64.8101C78.1156 75.5301 74.9356 86.6101 74.7356 87.3601C73.6756 91.2201 74.4056 95.23 76.7356 98.35C78.4556 100.66 80.9156 102.21 84.4756 103.23L95.5456 106.41C95.9556 106.53 96.2956 106.81 96.4856 107.2C96.6756 107.58 96.6856 108.03 96.5256 108.42L88.5756 127.96C87.4856 130.63 88.4756 133.68 90.9056 135.22C92.2856 136.09 93.9156 136.35 95.4956 135.96C97.0756 135.57 98.3856 134.58 99.2056 133.18C101.956 128.43 105.676 121.9 108.666 116.66C112.036 110.74 113.816 107.63 114.096 107.21C115.056 105.78 115.356 103.97 114.916 102.24C114.476 100.5 113.356 99.0401 111.826 98.2301C110.596 97.5801 107.796 96.8301 105.756 96.2801C102.686 95.4601 102.126 95.3101 101.886 94.2901C101.799 93.9434 103.122 88.9968 105.856 79.4501C107.286 74.4601 108.856 68.95 110.156 64.35C110.296 63.83 110.706 63.4401 111.226 63.3001C111.746 63.1701 112.296 63.3201 112.666 63.7001L127.116 78.4101C128.166 79.4801 129.536 80.0401 131.056 80.0301C132.546 80.0101 133.936 79.4001 134.956 78.3001C136.936 76.1801 136.896 72.8901 134.866 70.8101L108.766 44.0802C108.336 43.6402 107.836 43.2701 107.266 42.9901C107.196 42.9501 107.126 42.9101 107.056 42.8701C104.466 41.0301 101.326 40.0201 98.2056 40.0201L98.2256 40.0101Z" fill="#1A1A1A" stroke="black" stroke-width="2" stroke-miterlimit="10"/>
<path d="M107.017 31.92C98.4966 31.92 91.5566 24.9901 91.5566 16.4601C91.5566 7.93008 98.4866 1 107.017 1C115.547 1 122.477 7.93008 122.477 16.4601C122.477 24.9901 115.547 31.92 107.017 31.92ZM107.017 4C100.147 4 94.5566 9.59008 94.5566 16.4601C94.5566 23.3301 100.147 28.92 107.017 28.92C113.887 28.92 119.477 23.3301 119.477 16.4601C119.477 9.59008 113.887 4 107.017 4Z" fill="#1A1A1A" stroke="black" stroke-width="2" stroke-miterlimit="10"/>
<path d="M16.0952 96.4502C15.5052 96.4502 14.9452 96.1002 14.7052 95.5202C14.3852 94.7502 14.7552 93.8802 15.5152 93.5602L43.8552 81.8202C44.6152 81.5002 45.4952 81.8701 45.8152 82.6301C46.1352 83.4001 45.7652 84.2702 45.0052 84.5902L16.6652 96.3302C16.4752 96.4102 16.2852 96.4402 16.0952 96.4402V96.4502Z" fill="#1A1A1A" stroke="black" stroke-width="2" stroke-miterlimit="10"/>
<path d="M26.2554 73.5201C25.6654 73.5201 25.1054 73.1702 24.8654 72.5902C24.5454 71.8202 24.9154 70.9501 25.6754 70.6301L30.2554 68.7301C31.0154 68.4101 31.8954 68.7802 32.2154 69.5402C32.5354 70.3102 32.1654 71.1801 31.4054 71.5001L26.8254 73.4001C26.6354 73.4801 26.4454 73.5101 26.2554 73.5101V73.5201Z" fill="#1A1A1A" stroke="black" stroke-width="2" stroke-miterlimit="10"/>
<path d="M2.50536 83.3702C1.91536 83.3702 1.35536 83.0203 1.11536 82.4403C0.79536 81.6703 1.16536 80.8002 1.92536 80.4802L17.8154 73.8903C18.5754 73.5703 19.4554 73.9403 19.7754 74.7003C20.0954 75.4703 19.7254 76.3403 18.9654 76.6603L3.07537 83.2502C2.88537 83.3302 2.69536 83.3602 2.50536 83.3602V83.3702Z" fill="#1A1A1A" stroke="black" stroke-width="2" stroke-miterlimit="10"/>
<path d="M21.8159 111.68C21.2259 111.68 20.6659 111.33 20.4259 110.75C20.1059 109.98 20.4759 109.11 21.2359 108.79L35.4059 102.92C36.1659 102.6 37.0459 102.97 37.3659 103.73C37.6859 104.5 37.3159 105.37 36.5559 105.69L22.3859 111.56C22.1959 111.64 22.0059 111.67 21.8159 111.67V111.68Z" fill="#1A1A1A" stroke="black" stroke-width="2" stroke-miterlimit="10"/>
<path d="M7.65575 117.55C7.06575 117.55 6.50575 117.2 6.26575 116.62C5.94575 115.85 6.31575 114.98 7.07575 114.66L12.1057 112.58C12.8657 112.26 13.7457 112.63 14.0657 113.39C14.3857 114.16 14.0157 115.03 13.2557 115.35L8.22574 117.43C8.03574 117.51 7.84575 117.54 7.65575 117.54V117.55Z" fill="#1A1A1A" stroke="black" stroke-width="2" stroke-miterlimit="10"/>
</svg>
