<svg width="130" height="125" viewBox="0 0 130 125" fill="none" xmlns="http://www.w3.org/2000/svg">
<path d="M41.3301 123.85H2.5C1.67 123.85 1 123.18 1 122.35V113.68C1 108.85 4.93 104.93 9.75 104.93H19.4902C20.3202 104.93 20.9902 105.6 20.9902 106.43C20.9902 107.26 20.3202 107.93 19.4902 107.93H9.75C6.58 107.93 4 110.51 4 113.68V120.85H39.8301V113.68C39.8301 110.51 37.2501 107.93 34.0801 107.93H29.3101C28.4801 107.93 27.8101 107.26 27.8101 106.43C27.8101 105.6 28.4801 104.93 29.3101 104.93H34.0801C38.9001 104.93 42.8301 108.85 42.8301 113.68V122.35C42.8301 123.18 42.1601 123.85 41.3301 123.85Z" fill="#1A1A1A" stroke="black" stroke-width="2" stroke-miterlimit="10"/>
<path d="M14.5098 107.92C13.6798 107.92 13.0098 107.25 13.0098 106.42V39.25C13.0098 38.42 13.6798 37.75 14.5098 37.75C15.3398 37.75 16.0098 38.42 16.0098 39.25V106.42C16.0098 107.25 15.3398 107.92 14.5098 107.92Z" fill="#1A1A1A" stroke="black" stroke-width="2" stroke-miterlimit="10"/>
<path d="M29.3105 107.92C28.4805 107.92 27.8105 107.25 27.8105 106.42V39.25C27.8105 38.42 28.4805 37.75 29.3105 37.75C30.1405 37.75 30.8105 38.42 30.8105 39.25V106.42C30.8105 107.25 30.1405 107.92 29.3105 107.92Z" fill="#1A1A1A" stroke="black" stroke-width="2" stroke-miterlimit="10"/>
<path d="M21.9097 31.94C13.3797 31.94 6.43945 25 6.43945 16.47C6.43945 7.94 13.3797 1 21.9097 1C30.4397 1 37.3799 7.94 37.3799 16.47C37.3799 25 30.4397 31.94 21.9097 31.94ZM21.9097 4C15.0297 4 9.43945 9.59 9.43945 16.47C9.43945 23.35 15.0297 28.94 21.9097 28.94C28.7897 28.94 34.3799 23.35 34.3799 16.47C34.3799 9.59 28.7897 4 21.9097 4Z" fill="#1A1A1A" stroke="black" stroke-width="2" stroke-miterlimit="10"/>
<path d="M127.16 123.85H88.3301C87.5001 123.85 86.8301 123.18 86.8301 122.35V113.68C86.8301 108.85 90.7601 104.93 95.5801 104.93H105.32C106.15 104.93 106.82 105.6 106.82 106.43C106.82 107.26 106.15 107.93 105.32 107.93H95.5801C92.4101 107.93 89.8301 110.51 89.8301 113.68V120.85H125.66V113.68C125.66 110.51 123.08 107.93 119.91 107.93H115.14C114.31 107.93 113.64 107.26 113.64 106.43C113.64 105.6 114.31 104.93 115.14 104.93H119.91C124.73 104.93 128.66 108.85 128.66 113.68V122.35C128.66 123.18 127.99 123.85 127.16 123.85Z" fill="#1A1A1A" stroke="black" stroke-width="2" stroke-miterlimit="10"/>
<path d="M100.34 107.92C99.5098 107.92 98.8398 107.25 98.8398 106.42V39.25C98.8398 38.42 99.5098 37.75 100.34 37.75C101.17 37.75 101.84 38.42 101.84 39.25V106.42C101.84 107.25 101.17 107.92 100.34 107.92Z" fill="#1A1A1A" stroke="black" stroke-width="2" stroke-miterlimit="10"/>
<path d="M115.141 107.92C114.311 107.92 113.641 107.25 113.641 106.42V39.25C113.641 38.42 114.311 37.75 115.141 37.75C115.971 37.75 116.641 38.42 116.641 39.25V106.42C116.641 107.25 115.971 107.92 115.141 107.92Z" fill="#1A1A1A" stroke="black" stroke-width="2" stroke-miterlimit="10"/>
<path d="M107.74 31.94C99.2097 31.94 92.2695 25 92.2695 16.47C92.2695 7.94 99.2097 1 107.74 1C116.27 1 123.209 7.94 123.209 16.47C123.209 25 116.27 31.94 107.74 31.94ZM107.74 4C100.86 4 95.2695 9.59 95.2695 16.47C95.2695 23.35 100.86 28.94 107.74 28.94C114.62 28.94 120.209 23.35 120.209 16.47C120.209 9.59 114.62 4 107.74 4Z" fill="#1A1A1A" stroke="black" stroke-width="2" stroke-miterlimit="10"/>
<path d="M64.8305 69.9299C55.0305 69.9299 45.5405 64.3499 38.1005 54.2299C37.6105 53.5599 37.7508 52.6199 38.4208 52.1299C39.0908 51.6399 40.0304 51.7799 40.5204 52.4499C47.3804 61.7899 56.0205 66.9299 64.8305 66.9299C73.6405 66.9299 82.2708 61.7899 89.1308 52.4499C89.6208 51.7799 90.5604 51.6399 91.2304 52.1299C91.9004 52.6199 92.0407 53.5599 91.5507 54.2299C84.1107 64.3499 74.6205 69.9299 64.8305 69.9299Z" fill="#1A1A1A" stroke="black" stroke-width="2" stroke-miterlimit="10"/>
<path d="M64.8309 46.1299C55.3009 46.1299 46.1912 41.3699 39.1712 32.7199C38.6512 32.0799 38.751 31.1299 39.391 30.6099C40.031 30.0899 40.9808 30.1899 41.5008 30.8299C47.9408 38.7599 56.2209 43.1299 64.8309 43.1299C73.4409 43.1299 81.711 38.7599 88.141 30.8299C88.661 30.1799 89.6108 30.0899 90.2508 30.6099C90.8908 31.1299 90.9911 32.0799 90.4711 32.7199C83.4511 41.3699 74.3512 46.1299 64.8212 46.1299H64.8309Z" fill="#1A1A1A" stroke="black" stroke-width="2" stroke-miterlimit="10"/>
</svg>
