<svg width="124" height="125" viewBox="0 0 124 125" fill="none" xmlns="http://www.w3.org/2000/svg">
<path d="M2.50977 81.3418C2.16977 81.3418 1.82981 81.2217 1.55981 81.0017C1.20981 80.7117 1.00977 80.2918 1.00977 79.8418V2.51172C1.00977 1.68172 1.67977 1.01172 2.50977 1.01172H64.0098C64.4298 1.01172 64.8299 1.1917 65.1099 1.4917C65.3899 1.8017 65.5398 2.21171 65.4998 2.63171C64.2698 17.7117 60.5898 31.2318 54.5498 42.8118C43.7898 63.4518 26.3798 76.4118 2.7998 81.3118C2.6998 81.3318 2.59975 81.3418 2.48975 81.3418H2.50977ZM4.00977 4.01172V77.9817C24.5498 73.2217 57.3999 57.2517 62.3799 4.01172H4.00977Z" fill="#1A1A1A" stroke="black" stroke-width="2" stroke-miterlimit="10"/>
<path d="M16.0089 34.3618C15.6489 34.3618 15.2789 34.2319 14.9889 33.9619C14.3789 33.4019 14.3391 32.4519 14.8991 31.8419C20.6791 25.5719 23.8489 10.8718 24.2589 2.43183C24.2989 1.60183 25.019 0.961777 25.829 1.00178C26.659 1.04178 27.2989 1.74185 27.2589 2.57185C26.8589 10.8518 23.759 26.6718 17.109 33.8718C16.809 34.1918 16.4089 34.3518 16.0089 34.3518V34.3618Z" fill="#1A1A1A" stroke="black" stroke-width="2" stroke-miterlimit="10"/>
<path d="M16.0092 59.4917C15.5792 59.4917 15.1493 59.3017 14.8493 58.9417C14.3193 58.3017 14.4192 57.3518 15.0592 56.8318C37.3092 38.5918 43.7493 14.4317 42.6493 2.65171C42.5693 1.83171 43.1792 1.0917 43.9992 1.0217C44.8192 0.941702 45.5593 1.55168 45.6293 2.37168C46.7893 14.7917 40.1194 40.1717 16.9594 59.1517C16.6794 59.3817 16.3392 59.4917 16.0092 59.4917Z" fill="#1A1A1A" stroke="black" stroke-width="2" stroke-miterlimit="10"/>
<path d="M40.79 123.322H2.5C1.67 123.322 1 122.652 1 121.822V79.8519C1 79.3819 1.2201 78.9419 1.6001 78.6519C1.9801 78.3719 2.47017 78.2819 2.92017 78.4119C37.7402 88.3819 42.24 121.312 42.28 121.642C42.33 122.072 42.2002 122.502 41.9202 122.822C41.6302 123.142 41.23 123.332 40.8 123.332L40.79 123.322ZM4 120.322H38.99C37.6 113.842 30.82 90.5219 4 81.8719V120.322Z" fill="#1A1A1A" stroke="black" stroke-width="2" stroke-miterlimit="10"/>
<path d="M121.421 81.3418C121.321 81.3418 121.211 81.3318 121.111 81.3118C95.1706 75.8818 76.8406 60.7018 66.6206 36.1918C66.3006 35.4318 66.6607 34.5517 67.4307 34.2317C68.1907 33.9117 69.0706 34.2717 69.3906 35.0417C78.9606 58.0117 95.9507 72.4417 119.921 77.9817V4.01172H80.0706C79.2406 4.01172 78.5706 3.34172 78.5706 2.51172C78.5706 1.68172 79.2406 1.01172 80.0706 1.01172H121.421C122.251 1.01172 122.921 1.68172 122.921 2.51172V79.8418C122.921 80.2918 122.721 80.7217 122.371 81.0017C122.101 81.2217 121.771 81.3418 121.421 81.3418Z" fill="#1A1A1A" stroke="black" stroke-width="2" stroke-miterlimit="10"/>
<path d="M108 34.3618C107.59 34.3618 107.19 34.2018 106.89 33.8718C100.29 26.6718 97.2104 10.8518 96.8104 2.57185C96.7704 1.74185 97.4103 1.04178 98.2403 1.00178C99.0703 0.961777 99.7704 1.60183 99.8104 2.43183C100.21 10.8718 103.36 25.5719 109.1 31.8419C109.66 32.4519 109.62 33.4019 109.01 33.9619C108.72 34.2219 108.36 34.3518 108 34.3518V34.3618Z" fill="#1A1A1A" stroke="black" stroke-width="2" stroke-miterlimit="10"/>
<path d="M108.001 59.4919C107.661 59.4919 107.331 59.3819 107.051 59.1519C96.7906 50.6819 88.7205 40.022 83.7205 28.322C79.8305 19.232 77.9106 9.53189 78.5806 2.38189C78.6606 1.55189 79.4007 0.951907 80.2107 1.02191C81.0407 1.10191 81.6406 1.83191 81.5606 2.65191C80.4606 14.4419 86.8607 38.592 108.961 56.832C109.601 57.362 109.691 58.302 109.161 58.942C108.861 59.302 108.431 59.4919 108.001 59.4919Z" fill="#1A1A1A" stroke="black" stroke-width="2" stroke-miterlimit="10"/>
<path d="M121.42 123.322H83.1304C82.7004 123.322 82.2903 123.142 82.0103 122.812C81.7303 122.492 81.5904 122.062 81.6504 121.632C81.6904 121.302 86.1903 88.3717 121.01 78.4017C121.46 78.2717 121.95 78.3617 122.33 78.6417C122.71 78.9217 122.93 79.3717 122.93 79.8417V121.812C122.93 122.642 122.26 123.312 121.43 123.312L121.42 123.322ZM84.9305 120.322H119.92V81.8716C93.1005 90.5216 86.3205 113.842 84.9305 120.322Z" fill="#1A1A1A" stroke="black" stroke-width="2" stroke-miterlimit="10"/>
</svg>
