<svg width="126" height="88" viewBox="0 0 126 88" fill="none" xmlns="http://www.w3.org/2000/svg">
<path d="M125.364 50.1164C125.364 43.7451 122.536 38.0327 118.085 34.1283L121.32 28.1832C122.093 26.7624 122.06 25.0185 121.234 23.6283C120.446 22.3009 119.076 21.5083 117.573 21.5083H105.798L101.465 12.5866C97.6962 4.82234 90.2134 0 81.9366 0H43.4261C35.1507 0 27.6679 4.82234 23.8972 12.5866L19.5652 21.5083H7.78929C6.28492 21.5083 4.91566 22.3009 4.12726 23.6283C3.30265 25.0185 3.26922 26.7624 4.04229 28.1832L7.27808 34.1283C2.82766 38.0327 0 43.7437 0 50.1164C0 56.8261 3.12853 62.8116 7.99405 66.716C7.96758 66.8232 7.92858 66.9263 7.92858 67.0419V79.1284C7.92858 84.0204 11.7257 88 16.3934 88H24.4822C29.1499 88 32.9471 84.0204 32.9471 79.1284V71.4046H92.4184V79.1284C92.4184 84.0204 96.2169 88 100.883 88H108.972C113.64 88 117.437 84.0204 117.437 79.1284V67.0419C117.437 66.9263 117.398 66.8232 117.371 66.716C122.236 62.8102 125.364 56.8247 125.364 50.1164ZM117.575 24.2942C118.31 24.2942 118.706 24.8235 118.841 25.0505C119.171 25.6077 119.184 26.2805 118.874 26.8502L115.854 32.3983C113.999 31.1613 111.936 30.2239 109.735 29.6152L107.151 24.2942H117.575ZM26.4031 13.8026C29.7029 7.00646 36.226 2.78448 43.4261 2.78448H81.938C89.138 2.78448 95.6611 7.00646 98.961 13.8026L106.314 28.9466C105.579 28.87 104.832 28.8268 104.076 28.8268H21.2882C20.5318 28.8268 19.7852 28.87 19.0498 28.9466L26.4031 13.8026ZM6.48968 26.8502C6.17906 26.2805 6.19159 25.6077 6.52311 25.0505C6.65823 24.8221 7.05243 24.2928 7.78929 24.2928H18.2126L15.6287 29.6138C13.4279 30.2225 11.3636 31.1599 9.50956 32.3969L6.48968 26.8502ZM2.78587 50.1164C2.78587 40.6737 9.89958 32.8746 19.047 31.7631H106.317C115.464 32.8746 122.578 40.6737 122.578 50.1164C122.578 60.3182 114.278 68.6187 104.076 68.6187H21.2882C11.0864 68.6187 2.78587 60.3182 2.78587 50.1164ZM30.1598 79.1284C30.1598 82.484 27.6121 85.2141 24.4808 85.2141H16.392C13.2607 85.2141 10.7131 82.484 10.7131 79.1284V68.5658C13.8332 70.3613 17.4381 71.4046 21.2882 71.4046H30.1598V79.1284ZM114.651 79.1284C114.651 82.484 112.103 85.2141 108.972 85.2141H100.883C97.7519 85.2141 95.2043 82.484 95.2043 79.1284V71.4046H104.076C107.926 71.4046 111.531 70.3613 114.651 68.5658V79.1284Z" fill="black"/>
<path d="M29.4017 57.8842H18.5605C14.0809 57.8842 10.4355 54.2403 10.4355 49.7593C10.4355 45.2796 14.0809 41.6343 18.5605 41.6343H29.4017C33.8814 41.6343 37.5267 45.2796 37.5267 49.7593C37.5267 54.2403 33.8814 57.8842 29.4017 57.8842ZM18.5605 44.4201C15.6159 44.4201 13.2214 46.8146 13.2214 49.7593C13.2214 52.7039 15.6159 55.0984 18.5605 55.0984H29.4017C32.345 55.0984 34.7409 52.7025 34.7409 49.7593C34.7409 46.816 32.3464 44.4201 29.4017 44.4201H18.5605Z" fill="black"/>
<path d="M106.804 57.8842H95.9629C91.4818 57.8842 87.8379 54.2403 87.8379 49.7593C87.8379 45.2796 91.4818 41.6343 95.9629 41.6343H106.804C111.285 41.6343 114.929 45.2796 114.929 49.7593C114.929 54.2403 111.285 57.8842 106.804 57.8842ZM95.9629 44.4201C93.0196 44.4201 90.6238 46.8146 90.6238 49.7593C90.6238 52.7039 93.0196 55.0984 95.9629 55.0984H106.804C109.747 55.0984 112.143 52.7025 112.143 49.7593C112.143 46.816 109.747 44.4201 106.804 44.4201H95.9629Z" fill="black"/>
<path d="M74.7955 47.3298H50.5668C49.7979 47.3298 49.1738 46.7072 49.1738 45.9369C49.1738 45.168 49.7979 44.5439 50.5668 44.5439H74.7955C75.5657 44.5439 76.1884 45.168 76.1884 45.9369C76.1884 46.7058 75.5657 47.3298 74.7955 47.3298Z" fill="black"/>
<path d="M74.7955 55.6875H50.5668C49.7979 55.6875 49.1738 55.0648 49.1738 54.2945C49.1738 53.5243 49.7979 52.9016 50.5668 52.9016H74.7955C75.5657 52.9016 76.1884 53.5243 76.1884 54.2945C76.1884 55.0648 75.5657 55.6875 74.7955 55.6875Z" fill="black"/>
</svg>
