<svg width="148" height="156" viewBox="0 0 148 156" fill="none" xmlns="http://www.w3.org/2000/svg">
<path d="M91.2891 36.1C81.7791 36.1 74.0391 28.22 74.0391 18.55C74.0391 8.87999 81.7791 1 91.2891 1C100.799 1 108.539 8.86999 108.539 18.55C108.539 28.23 100.799 36.1 91.2891 36.1ZM91.2891 3.98999C83.4291 3.98999 77.0391 10.52 77.0391 18.54C77.0391 26.56 83.4291 33.09 91.2891 33.09C99.1491 33.09 105.539 26.56 105.539 18.54C105.539 10.52 99.1491 3.98999 91.2891 3.98999Z" fill="#1A1A1A" stroke="black" stroke-width="2" stroke-miterlimit="10"/>
<path d="M84.6597 154.83C79.9697 154.83 75.8195 151.44 75.0195 146.66L71.2095 123.92C70.7195 120.97 70.4695 117.96 70.4695 114.97V64.6L36.7395 37.0001C34.6895 35.2801 33.5195 32.7601 33.5195 30.0501C33.5195 28.0001 34.1895 26.0601 35.4595 24.4301C36.9495 22.5701 39.0597 21.4201 41.4097 21.1801C43.7597 20.9501 46.0296 21.64 47.8396 23.14L76.3696 45.47H107.67C107.74 45.47 107.8 45.4701 107.87 45.4801C113.41 46.2201 118.74 49.2601 122.89 54.0601L144.44 78.1301C144.5 78.1901 144.55 78.26 144.6 78.34C145.92 80.46 146.47 82.9301 146.1 85.1201C145.81 86.9601 144.85 88.7 143.39 90.01C142.09 91.16 140.49 91.87 138.74 92.09C138.7 92.09 138.66 92.09 138.61 92.1C137.93 92.18 137.24 92.18 136.56 92.09C134.63 91.88 132.74 91.0301 131.3 89.6801C131.27 89.6501 131.229 89.61 131.199 89.58L112.15 68.1701L113.04 115.64L123.86 134.38C126.56 139.05 124.95 145.05 120.28 147.74C118.02 149.05 115.38 149.39 112.86 148.72C110.34 148.04 108.23 146.42 106.92 144.16L95.7996 124.9C93.9796 121.75 92.8096 118.32 92.3296 114.71L91.5996 109.29L90.5496 120.8L94.3396 143.42C94.7696 146 94.1697 148.59 92.6597 150.72C91.1397 152.85 88.8896 154.26 86.3096 154.69C85.7696 154.78 85.2197 154.83 84.6897 154.83H84.6597ZM73.4595 114.98C73.4595 117.8 73.6997 120.65 74.1597 123.43L77.9695 146.17C78.5895 149.86 82.0995 152.36 85.7795 151.74C89.4695 151.12 91.9696 147.62 91.3496 143.93L87.5295 121.12C87.5095 120.99 87.4995 120.86 87.5195 120.74L89.7996 95.8001C89.8696 95.0401 90.4995 94.4501 91.2595 94.4401C92.0595 94.4001 92.6795 94.9801 92.7795 95.7401L95.2795 114.33C95.7095 117.55 96.7596 120.6 98.3796 123.42L109.5 142.68C110.41 144.25 111.87 145.37 113.62 145.84C115.37 146.31 117.2 146.07 118.77 145.16C122.01 143.29 123.12 139.13 121.25 135.89L110.24 116.82C110.11 116.6 110.04 116.35 110.04 116.1L109.06 64.1901C109.05 63.5601 109.43 62.99 110.01 62.76C110.59 62.53 111.26 62.69 111.68 63.16L133.38 87.54C134.35 88.42 135.6 88.9801 136.91 89.1201C137.39 89.1801 137.86 89.1801 138.3 89.1201C138.35 89.1201 138.39 89.1101 138.43 89.1101C139.55 88.9601 140.56 88.5 141.37 87.78C142.3 86.94 142.93 85.82 143.11 84.64C143.35 83.19 142.98 81.52 142.09 80.03L120.61 56.04C116.95 51.81 112.33 49.13 107.55 48.47H75.8296C75.4896 48.47 75.1697 48.36 74.9097 48.15L45.9397 25.4801C44.7197 24.4701 43.2295 24.0101 41.6995 24.1701C40.1595 24.3301 38.7696 25.0801 37.7996 26.3001C36.9496 27.3801 36.4995 28.6801 36.4995 30.0601C36.4995 31.8701 37.2796 33.5601 38.6296 34.6901L72.8997 62.73C73.2497 63.0201 73.4495 63.44 73.4495 63.89V114.97L73.4595 114.98Z" fill="#1A1A1A" stroke="black" stroke-width="2" stroke-miterlimit="10"/>
<path d="M22.45 96.9899C10.62 96.9899 1 87.3699 1 75.5399C1 63.7099 10.62 54.0898 22.45 54.0898C34.28 54.0898 43.9001 63.7099 43.9001 75.5399C43.9001 87.3699 34.28 96.9899 22.45 96.9899ZM22.45 57.0898C12.28 57.0898 4 65.3699 4 75.5399C4 85.7099 12.28 93.9899 22.45 93.9899C32.62 93.9899 40.9001 85.7099 40.9001 75.5399C40.9001 65.3699 32.62 57.0898 22.45 57.0898Z" fill="#1A1A1A" stroke="black" stroke-width="2" stroke-miterlimit="10"/>
<path d="M21.8291 86.27C16.1591 86.27 11.5391 81.65 11.5391 75.98C11.5391 75.15 12.2091 74.48 13.0391 74.48C13.8691 74.48 14.5391 75.15 14.5391 75.98C14.5391 80 17.8091 83.27 21.8291 83.27C22.6591 83.27 23.3291 83.94 23.3291 84.77C23.3291 85.6 22.6591 86.27 21.8291 86.27Z" fill="#1A1A1A" stroke="black" stroke-width="2" stroke-miterlimit="10"/>
</svg>
