<svg width="132" height="121" viewBox="0 0 132 121" fill="none" xmlns="http://www.w3.org/2000/svg">
<path d="M2.5 119.29C1.67 119.29 1 118.62 1 117.79C1 97.1999 21.18 80.4399 45.99 80.4399C58.84 80.4399 71.11 85.0199 79.64 92.9899C80.24 93.5599 80.28 94.5099 79.71 95.1099C79.14 95.7099 78.2 95.7499 77.59 95.1799C69.61 87.7199 58.09 83.4399 45.99 83.4399C22.84 83.4399 4 98.8499 4 117.79C4 118.62 3.33 119.29 2.5 119.29Z" fill="#1A1A1A" stroke="black" stroke-width="2" stroke-miterlimit="10"/>
<path d="M33.4297 84.96C32.5997 84.96 31.9297 84.29 31.9297 83.46V53.0601C31.9297 52.2301 32.5997 51.5601 33.4297 51.5601C34.2597 51.5601 34.9297 52.2301 34.9297 53.0601V83.46C34.9297 84.29 34.2597 84.96 33.4297 84.96Z" fill="#1A1A1A" stroke="black" stroke-width="2" stroke-miterlimit="10"/>
<path d="M23.5402 64.7699C23.3702 64.7699 23.2102 64.7399 23.0402 64.6799C14.3002 61.5999 8.66016 54.8299 8.66016 47.4399C8.66016 40.7999 13.0902 34.7599 20.3502 31.3199C18.2202 28.3399 17.0602 24.7099 17.0602 20.9099C17.0602 11.3599 24.4002 3.58984 33.4202 3.58984C42.4402 3.58984 49.7703 11.3599 49.7703 20.9099C49.7703 24.7099 48.6202 28.3299 46.4902 31.3199C49.6402 32.8099 52.3302 34.8499 54.3402 37.2699C56.8502 40.3099 58.1802 43.8199 58.1802 47.4399C58.1802 54.8199 52.5402 61.5899 43.8102 64.6699C43.0302 64.9499 42.1703 64.5399 41.9003 63.7499C41.6203 62.9699 42.0302 62.1098 42.8202 61.8398C50.3302 59.1898 55.1902 53.5399 55.1902 47.4399C55.1902 44.5299 54.1002 41.6699 52.0402 39.1799C49.9702 36.6899 47.0302 34.6599 43.5502 33.3199C43.0902 33.1399 42.7402 32.7499 42.6302 32.2599C42.5202 31.7799 42.6502 31.2699 42.9802 30.8999C45.4302 28.2199 46.7803 24.6699 46.7803 20.9099C46.7803 13.0099 40.7902 6.58984 33.4302 6.58984C26.0702 6.58984 20.0702 13.0099 20.0702 20.9099C20.0702 24.6699 21.4202 28.2199 23.8702 30.8999C24.2002 31.2699 24.3402 31.7699 24.2202 32.2499C24.1102 32.7299 23.7602 33.1299 23.3002 33.3099C16.1202 36.0999 11.6602 41.5199 11.6602 47.4399C11.6602 53.3599 16.5202 59.1999 24.0402 61.8499C24.8202 62.1299 25.2302 62.9799 24.9602 63.7599C24.7402 64.3799 24.1602 64.7599 23.5502 64.7599L23.5402 64.7699Z" fill="#1A1A1A" stroke="black" stroke-width="2" stroke-miterlimit="10"/>
<path d="M129.449 119.29C128.619 119.29 127.949 118.62 127.949 117.79C127.949 84.13 109.119 56.74 85.9791 56.74C75.1291 56.74 64.8191 62.77 56.9591 73.73C56.4791 74.4 55.5392 74.5601 54.8692 74.0701C54.1992 73.5901 54.0392 72.65 54.5292 71.98C62.9692 60.22 74.1391 53.74 85.9891 53.74C110.789 53.74 130.959 82.47 130.959 117.79C130.959 118.62 130.289 119.29 129.459 119.29H129.449Z" fill="#1A1A1A" stroke="black" stroke-width="2" stroke-miterlimit="10"/>
<path d="M89.6582 56.9601C88.8282 56.9601 88.1582 56.2901 88.1582 55.4601V35.5801C88.1582 34.7501 88.8282 34.0801 89.6582 34.0801C90.4882 34.0801 91.1582 34.7501 91.1582 35.5801V55.4601C91.1582 56.2901 90.4882 56.9601 89.6582 56.9601Z" fill="#1A1A1A" stroke="black" stroke-width="2" stroke-miterlimit="10"/>
<path d="M99.5482 40.25C99.0982 40.25 98.6583 40.05 98.3583 39.67C97.8483 39.01 97.9783 38.0701 98.6283 37.5701C101.288 35.5201 102.808 32.64 102.808 29.66C102.808 22.87 96.2683 4 89.6483 4C83.0283 4 76.4783 22.86 76.4783 29.66C76.4783 32.64 78.0082 35.5201 80.6682 37.5701C81.3282 38.0701 81.4482 39.02 80.9482 39.67C80.4482 40.33 79.4983 40.45 78.8483 39.95C75.4383 37.33 73.4883 33.58 73.4883 29.66C73.4883 22.73 80.1982 1 89.6582 1C99.1182 1 105.818 22.73 105.818 29.66C105.818 33.58 103.868 37.33 100.468 39.95C100.198 40.16 99.8782 40.26 99.5582 40.26L99.5482 40.25Z" fill="#1A1A1A" stroke="black" stroke-width="2" stroke-miterlimit="10"/>
</svg>
