<svg width="137" height="136" viewBox="0 0 137 136" fill="none" xmlns="http://www.w3.org/2000/svg">
<path d="M33.9691 134.636C32.4291 134.636 30.8792 134.146 29.5692 133.136L24.1692 128.987C21.0092 126.547 20.4091 121.987 22.8391 118.817L33.2291 105.307C35.2491 102.677 37.6891 100.417 40.4791 98.5966C42.9591 96.9866 45.1491 94.9565 46.9791 92.5765L49.5492 89.2266C50.0492 88.5666 50.9992 88.4465 51.6492 88.9465C52.3092 89.4465 52.4292 90.3965 51.9292 91.0465L49.3591 94.3965C47.3191 97.0565 44.8791 99.3066 42.1191 101.107C39.6191 102.747 37.4291 104.776 35.6091 107.136L25.2191 120.646C23.7991 122.506 24.1491 125.177 25.9991 126.607L31.3992 130.756C33.2492 132.186 35.9191 131.837 37.3491 129.977L47.7391 116.467C49.5691 114.077 50.9691 111.436 51.8891 108.626C52.9391 105.466 54.4891 102.537 56.5091 99.9065L59.0891 96.5565C59.5891 95.8965 60.5392 95.7765 61.1892 96.2865C61.8492 96.7865 61.9691 97.7365 61.4591 98.3865L58.8891 101.727C57.0791 104.087 55.6791 106.727 54.7391 109.557C53.7091 112.677 52.1491 115.616 50.1191 118.276L39.7191 131.787C38.2891 133.637 36.1391 134.617 33.9591 134.617L33.9691 134.636Z" fill="#1A1A1A" stroke="black" stroke-width="2" stroke-miterlimit="10"/>
<path d="M85.0686 96.0664C76.1586 96.0664 67.4486 93.3763 60.1486 87.7663C40.9986 73.0363 38.7785 43.6764 55.2085 22.3264C71.6385 0.966385 100.579 -4.42364 119.729 10.2964C138.879 25.0264 141.098 54.3864 124.668 75.7364C114.498 88.9564 99.5386 96.0664 85.0686 96.0664ZM94.8086 4.98642C81.2486 4.98642 67.1685 11.6863 57.5885 24.1463C42.1685 44.1963 44.1385 71.6663 61.9785 85.3863C79.8185 99.1063 106.869 93.9563 122.289 73.9063C137.709 53.8563 135.738 26.3864 117.898 12.6664C111.148 7.47635 103.069 4.98642 94.7986 4.98642H94.8086Z" fill="#1A1A1A" stroke="black" stroke-width="2" stroke-miterlimit="10"/>
<path d="M95.6084 81.1263C95.6084 81.1263 95.5685 81.1263 95.5485 81.1263C94.7185 81.0963 94.0784 80.3964 94.1084 79.5664L96.5785 16.7364C96.6085 15.9064 97.3185 15.2464 98.1385 15.2964C98.9685 15.3264 99.6085 16.0264 99.5785 16.8564L97.1084 79.6864C97.0784 80.4964 96.4084 81.1263 95.6084 81.1263Z" fill="#1A1A1A" stroke="black" stroke-width="2" stroke-miterlimit="10"/>
<path d="M67.8291 76.6365C67.8291 76.6365 67.7891 76.6365 67.7691 76.6365C66.9391 76.6065 66.2991 75.9065 66.3291 75.0765L68.1791 27.8865C68.1991 27.0565 68.899 26.4465 69.709 26.4165C70.539 26.4365 71.1991 27.1165 71.1791 27.9465V28.2865L69.3291 75.1965C69.2991 76.0065 68.6291 76.6365 67.8291 76.6365Z" fill="#1A1A1A" stroke="black" stroke-width="2" stroke-miterlimit="10"/>
<path d="M118.469 58.8364C118.469 58.8364 118.429 58.8364 118.409 58.8364L58.7887 56.4864C57.9587 56.4564 57.3187 55.7563 57.3487 54.9263C57.3787 54.0963 58.0687 53.4264 58.9087 53.4864L118.539 55.8364C119.369 55.8664 120.009 56.5663 119.979 57.3963C119.949 58.2063 119.279 58.8364 118.479 58.8364H118.469Z" fill="#1A1A1A" stroke="black" stroke-width="2" stroke-miterlimit="10"/>
<path d="M113.649 33.9964C113.649 33.9964 113.609 33.9964 113.589 33.9964L79.5093 32.6663C78.6793 32.6363 78.0394 31.9364 78.0694 31.1064C78.0994 30.2764 78.7893 29.6263 79.6293 29.6663L113.709 30.9964C114.539 31.0264 115.179 31.7263 115.149 32.5563C115.119 33.3663 114.449 33.9964 113.649 33.9964Z" fill="#1A1A1A" stroke="black" stroke-width="2" stroke-miterlimit="10"/>
<path d="M24.65 68.8364C11.61 68.8364 1 58.2264 1 45.1864C1 32.1464 11.61 21.5264 24.65 21.5264C31.22 21.5264 37.3201 24.1564 41.8201 28.9264C42.3901 29.5264 42.36 30.4764 41.76 31.0464C41.16 31.6164 40.21 31.5865 39.64 30.9865C35.7 26.8265 30.38 24.5264 24.65 24.5264C13.26 24.5264 4 33.7964 4 45.1864C4 56.5764 13.26 65.8364 24.65 65.8364C28.58 65.8364 32.41 64.7263 35.71 62.6263C36.41 62.1763 37.34 62.3864 37.78 63.0864C38.22 63.7864 38.0201 64.7164 37.3201 65.1564C33.5301 67.5664 29.15 68.8364 24.65 68.8364Z" fill="#1A1A1A" stroke="black" stroke-width="2" stroke-miterlimit="10"/>
</svg>
