<svg width="151" height="161" viewBox="0 0 151 161" fill="none" xmlns="http://www.w3.org/2000/svg">
<path d="M2.50025 87.88C2.39025 87.88 2.2704 87.87 2.1604 87.84C1.3504 87.65 0.850285 86.84 1.04029 86.04C4.88029 69.66 24.0303 57.76 46.5603 57.76C49.6703 57.76 52.7703 57.99 55.7703 58.45C56.5903 58.57 57.1503 59.34 57.0303 60.16C56.9103 60.98 56.1503 61.54 55.3203 61.42C52.4603 60.99 49.5203 60.77 46.5603 60.77C25.4003 60.77 7.49021 71.69 3.96021 86.73C3.80021 87.42 3.18025 87.89 2.50025 87.89V87.88Z" fill="#1A1A1A" stroke="black" stroke-width="2" stroke-miterlimit="10"/>
<path d="M46.5598 45.28C34.3498 45.28 24.4199 35.35 24.4199 23.14C24.4199 10.93 34.3498 1 46.5598 1C58.7698 1 68.6997 10.93 68.6997 23.14C68.6997 35.35 58.7698 45.28 46.5598 45.28ZM46.5598 4C36.0098 4 27.4199 12.58 27.4199 23.14C27.4199 33.7 35.9998 42.28 46.5598 42.28C57.1198 42.28 65.6997 33.7 65.6997 23.14C65.6997 12.58 57.1198 4 46.5598 4Z" fill="#1A1A1A" stroke="black" stroke-width="2" stroke-miterlimit="10"/>
<path d="M104.75 123.07C96.55 123.07 88.2601 120.8 80.8601 116.04C60.3501 102.83 54.4001 75.3902 67.6101 54.8802C80.8201 34.3702 108.25 28.4202 128.77 41.6302C138.71 48.0302 145.56 57.9101 148.06 69.4701C150.56 81.0201 148.42 92.8602 142.02 102.79C133.57 115.91 119.3 123.07 104.75 123.07ZM104.89 37.5901C91.3202 37.5901 78.0202 44.2602 70.1402 56.5002C57.8302 75.6202 63.37 101.2 82.49 113.51C91.75 119.47 102.79 121.48 113.55 119.14C124.32 116.81 133.53 110.42 139.5 101.16C145.46 91.9002 147.46 80.8601 145.13 70.1001C142.8 59.3301 136.41 50.1202 127.15 44.1502C120.26 39.7102 112.53 37.5901 104.88 37.5901H104.89Z" fill="#1A1A1A" stroke="black" stroke-width="2" stroke-miterlimit="10"/>
<path d="M60.0305 159.58C57.9005 159.58 55.8104 158.97 53.9704 157.79C51.4504 156.17 49.7205 153.66 49.0805 150.71C48.4405 147.77 48.9805 144.76 50.6105 142.24L64.4206 120.8C65.3706 119.33 66.8006 118.21 68.4406 117.64C69.2206 117.37 70.0805 117.79 70.3505 118.57C70.6205 119.35 70.2006 120.21 69.4206 120.48C68.4106 120.83 67.5206 121.52 66.9406 122.43L53.1306 143.87C51.9406 145.71 51.5504 147.92 52.0104 150.08C52.4804 152.24 53.7505 154.08 55.6005 155.27C57.4505 156.46 59.6505 156.86 61.8105 156.39C63.9705 155.92 65.8104 154.65 67.0004 152.8L80.8005 131.36C81.3805 130.45 81.6505 129.36 81.5505 128.3C81.4705 127.48 82.0806 126.74 82.9006 126.67C83.7106 126.59 84.4605 127.2 84.5305 128.02C84.6905 129.76 84.2605 131.52 83.3205 132.99L69.5205 154.43C67.9005 156.95 65.3806 158.69 62.4406 159.33C61.6406 159.5 60.8305 159.59 60.0305 159.59V159.58Z" fill="#1A1A1A" stroke="black" stroke-width="2" stroke-miterlimit="10"/>
</svg>
