<svg width="135" height="135" viewBox="0 0 135 135" fill="none" xmlns="http://www.w3.org/2000/svg">
<path d="M67.5045 134C59.6832 134 52.0199 132.651 44.7194 129.991C26.0449 123.174 11.5183 108.544 4.85944 89.831C2.30192 82.6787 1 75.1545 1 67.4907C1 62.3288 1.5949 57.1669 2.776 52.1725C8.65364 27.2187 28.6675 7.68722 53.7683 2.41372C58.2417 1.47435 62.8638 1 67.5045 1C75.6979 1 83.7053 2.4789 91.3128 5.39002C109.643 12.412 123.854 27.0699 130.308 45.6062C132.763 52.619 134 59.985 134 67.5C134 104.173 104.165 134 67.5045 134ZM67.5045 3.79021C63.0498 3.79021 58.6231 4.24602 54.345 5.14819C30.3044 10.2078 11.1276 28.9115 5.50109 52.8236C4.37578 57.6134 3.7991 62.552 3.7991 67.5C3.7991 74.8475 5.04551 82.0463 7.49143 88.9009C13.8713 106.823 27.7842 120.849 45.6775 127.378C52.6712 129.926 60.0087 131.21 67.5045 131.21C102.631 131.21 131.21 102.629 131.21 67.5C131.21 60.3013 130.02 53.2421 127.667 46.527C121.482 28.7627 107.867 14.7185 90.3083 7.99414C83.0264 5.20393 75.3538 3.79021 67.5045 3.79021Z" fill="black" stroke="black" stroke-miterlimit="10"/>
<path d="M45.1911 130.075C44.6052 130.075 44.0563 129.694 43.861 129.108C43.6285 128.373 44.0286 127.592 44.7633 127.35C55.7467 123.825 66.2369 118.821 75.9462 112.469C99.7637 96.8808 118.122 73.1361 127.655 45.606C127.906 44.8805 128.696 44.4898 129.431 44.741C130.157 44.9921 130.547 45.7827 130.296 46.5174C120.568 74.6334 101.81 98.8803 77.4806 114.803C67.5575 121.286 56.844 126.401 45.6188 130.001C45.4793 130.047 45.3306 130.066 45.1911 130.066V130.075Z" fill="black" stroke="black" stroke-miterlimit="10"/>
<path d="M6.17246 90.7612C5.40985 90.7612 4.78675 90.1474 4.77745 89.3847C4.76815 88.6128 5.38193 87.9803 6.15384 87.971C22.2429 87.7013 37.7459 82.9859 50.9799 74.3269C71.5609 60.8502 85.3344 38.482 88.7755 12.9701C89.0545 10.9147 89.2683 8.77554 89.4171 6.59918C89.4729 5.82722 90.124 5.25056 90.9052 5.29706C91.6771 5.35286 92.2536 6.0133 92.2071 6.78526C92.0583 9.01743 91.8352 11.2216 91.5469 13.3422C88.0035 39.6632 73.7745 62.7383 52.5238 76.6614C38.8434 85.6087 22.8382 90.4915 6.20969 90.7612H6.18154H6.17246Z" fill="black" stroke="black" stroke-miterlimit="10"/>
<path d="M4.7701 53.8932C4.5562 53.8932 4.34235 53.8932 4.12845 53.8932C3.35654 53.8932 2.74276 53.2515 2.75206 52.4795C2.75206 51.7169 3.38446 51.103 4.14707 51.103H4.16569C13.7727 51.2518 22.9982 48.5825 30.7917 43.4857C43.6908 35.05 51.6613 20.5502 52.675 3.69732C52.7215 2.92536 53.3816 2.33938 54.1535 2.38589C54.9254 2.43239 55.5115 3.09282 55.465 3.86478C54.4048 21.6012 45.9693 36.8915 32.3261 45.8202C24.235 51.1123 14.7214 53.9025 4.77963 53.9025L4.7701 53.8932Z" fill="black" stroke="black" stroke-miterlimit="10"/>
</svg>
