<svg width="164" height="135" viewBox="0 0 164 135" fill="none" xmlns="http://www.w3.org/2000/svg">
<path d="M10.8784 0.55246C6.63993 1.67636 3.39846 4.37341 1.34269 8.54675L0.121924 11.0183L0.0250639 57.7316C-0.0400661 99.7889 -0.00666607 104.637 0.474294 106.21C1.24416 108.907 2.4332 110.866 4.4873 112.823C7.63358 115.809 11.4228 117.125 16.9756 117.157H19.0631L14.7311 121.556C12.3547 123.996 9.36871 127.045 8.14961 128.329L5.90179 130.64L8.02102 132.76L10.1085 134.847L18.841 126.018L27.5734 117.157H88.156C126.169 117.157 149.605 117.028 151.018 116.836C155.449 116.195 160.136 112.952 162.062 109.163C163.795 105.791 163.698 108.264 163.635 57.7299L163.538 11.0167L162.319 8.51167C160.168 4.20975 156.252 1.12694 151.853 0.29361C150.729 0.101562 126.234 -0.0270386 81.5428 0.00469971C18.0694 0.00636292 12.8039 0.0381012 10.8784 0.55246ZM73.6437 8.70706C73.6437 10.9866 73.7723 11.6279 74.5104 13.009C77.0154 17.7601 82.9222 19.2698 87.4162 16.3156C90.1449 14.4853 91.7832 10.6977 91.172 7.51969L90.9148 6.07515H118.107H145.332L145.171 8.12924C144.625 14.871 151.143 19.719 157.371 17.1506C157.885 16.9251 157.917 19.0444 157.917 58.8555V100.784L156.73 100.27C154.739 99.4031 151.624 99.5317 149.473 100.559C146.23 102.164 144.625 104.765 144.625 108.553L144.594 111.058H117.628H90.6276V108.747C90.6593 103.481 86.9669 99.6937 81.8317 99.6937C76.6948 99.6937 73.0024 103.481 73.0358 108.747V111.058H53.2563H33.5119L76.9503 67.6197L120.357 24.213L118.269 22.1255L116.182 20.038L70.6577 65.5639L25.1652 111.058H21.9221H18.679V108.715C18.6472 106.018 18.1011 104.542 16.4629 102.711C13.7341 99.6937 10.1069 98.8587 6.28589 100.303C5.77153 100.529 5.7398 98.376 5.7398 58.5983C5.7398 35.5473 5.80326 16.6696 5.90012 16.6696C6.02871 16.6696 6.5414 16.9268 7.11922 17.2157C8.46691 17.9221 12.1927 17.9221 13.8293 17.2474C15.6279 16.4442 17.7788 14.2932 18.5804 12.4312C19.1583 11.1152 19.2551 10.3119 19.1583 8.41816L19.0614 6.07515H46.3509H73.6403V8.70706H73.6437Z" fill="black"/>
<path d="M117.435 49.8325C110.115 54.1027 103.789 57.8268 103.372 58.084C102.697 58.5332 103.18 58.8873 116.246 66.3989C123.726 70.7326 130.147 74.4567 130.564 74.7139L131.271 75.1631V58.5967C131.271 49.4785 131.174 42.0303 131.045 42.062C130.887 42.0637 124.788 45.564 117.435 49.8325ZM125.494 58.5984C125.494 62.0335 125.397 64.7941 125.269 64.7306C121.576 62.7717 114.643 58.5349 114.803 58.3729C115.155 58.0205 124.98 52.3375 125.269 52.3058C125.397 52.3058 125.494 55.1298 125.494 58.5984Z" fill="black"/>
<path d="M44.0112 53.3011C39.4839 55.549 39.9331 62.1939 44.7494 64.0559C47.4464 65.083 50.3355 63.9925 51.8452 61.424C53.5152 58.5667 52.423 54.8426 49.4053 53.2377C47.9274 52.4344 45.7113 52.4661 44.0112 53.3011Z" fill="black"/>
</svg>
