<svg width="135" height="171" viewBox="0 0 135 171" fill="none" xmlns="http://www.w3.org/2000/svg">
<path d="M113.553 125.168C114.757 120.339 115.365 115.344 115.365 110.26C115.365 108.049 115.247 105.832 115.013 103.634C123.841 102.213 130.607 94.54 130.607 85.3166C130.607 75.0863 122.284 66.7631 112.053 66.7631C111.242 66.7631 110.439 66.8202 109.647 66.922C111.627 61.8171 112.716 56.2709 112.716 50.4753C112.716 46.6662 112.248 42.9041 111.323 39.2507C118.549 35.9666 123.341 28.7224 123.341 20.5485C123.342 9.21767 114.124 0 102.793 0C95.9738 0 89.6635 3.39563 85.8711 8.88903C80.0003 6.24086 73.5754 4.85315 67.0944 4.85315C60.6127 4.85315 54.1872 6.24086 48.3164 8.88903C44.524 3.39563 38.214 0 31.3947 0C20.0645 0 10.8472 9.21767 10.8472 20.5485C10.8472 28.7224 15.6389 35.9666 22.864 39.2507C21.9392 42.9031 21.4716 46.6651 21.4716 50.4753C21.4716 56.2712 22.5607 61.8171 24.5403 66.922C23.7484 66.8198 22.9458 66.7631 22.1346 66.7631C11.9039 66.7631 3.58066 75.0863 3.58066 85.3166C3.58066 94.5397 10.3459 102.213 19.1748 103.634C18.941 105.831 18.8228 108.047 18.8228 110.26C18.8228 115.345 19.431 120.34 20.6343 125.168C20.6343 125.168 20.6333 125.168 20.6326 125.168C20.6129 125.17 20.5939 125.174 20.5742 125.176C20.2195 125.213 19.8675 125.257 19.5171 125.31C19.3966 125.328 19.2783 125.353 19.1591 125.373C18.9119 125.415 18.6638 125.456 18.419 125.505C18.278 125.534 18.1394 125.568 17.9992 125.599C17.7784 125.648 17.5573 125.697 17.3389 125.752C17.1916 125.789 17.0463 125.832 16.9007 125.872C16.6923 125.929 16.4842 125.986 16.2781 126.049C16.1292 126.094 15.9826 126.144 15.8353 126.192C15.6355 126.258 15.4362 126.324 15.2384 126.395C15.0901 126.448 14.9442 126.504 14.7972 126.56C14.6039 126.634 14.4115 126.709 14.2208 126.788C14.0752 126.848 13.9309 126.911 13.7863 126.974C13.5986 127.057 13.4112 127.141 13.2262 127.228C13.0836 127.295 12.9423 127.364 12.801 127.434C12.618 127.525 12.437 127.618 12.2566 127.713C12.1177 127.787 11.9801 127.861 11.8431 127.937C11.6641 128.037 11.4874 128.139 11.3114 128.243C11.1778 128.322 11.0449 128.401 10.9126 128.483C10.7373 128.592 10.5643 128.704 10.392 128.817C10.2647 128.901 10.1371 128.984 10.0116 129.07C9.83888 129.189 9.66855 129.312 9.49922 129.435C9.37932 129.522 9.25875 129.608 9.14052 129.698C8.96852 129.828 8.80019 129.963 8.63186 130.097C8.52098 130.186 8.40909 130.273 8.29988 130.364C8.1252 130.51 7.95454 130.66 7.7842 130.811C7.68701 130.897 7.58782 130.98 7.4923 131.068C7.30193 131.242 7.1169 131.421 6.93221 131.602C6.86173 131.671 6.78859 131.737 6.71846 131.807C6.21247 132.314 5.73019 132.845 5.27263 133.397C5.2055 133.478 5.14338 133.562 5.07792 133.643C4.91961 133.839 4.76163 134.036 4.60967 134.239C4.52951 134.345 4.4537 134.454 4.37521 134.563C4.24362 134.744 4.11203 134.926 3.98545 135.111C3.90362 135.231 3.82547 135.354 3.74531 135.476C3.62909 135.654 3.51253 135.832 3.40064 136.013C3.32049 136.142 3.24467 136.275 3.16752 136.406C3.06232 136.584 2.95811 136.762 2.85792 136.943C2.7821 137.081 2.70962 137.219 2.63682 137.358C2.54196 137.538 2.44845 137.718 2.35861 137.901C2.28813 138.044 2.22 138.189 2.15187 138.333C2.06704 138.516 1.98321 138.699 1.90272 138.884C1.83792 139.032 1.77547 139.182 1.71435 139.331C1.63787 139.517 1.56405 139.705 1.49225 139.893C1.43447 140.045 1.37836 140.198 1.32292 140.351C1.25545 140.542 1.19099 140.733 1.12787 140.926C1.07744 141.081 1.02734 141.237 0.979913 141.393C0.921132 141.588 0.866359 141.785 0.812253 141.982C0.769503 142.139 0.726418 142.296 0.686339 142.454C0.635908 142.655 0.590486 142.859 0.545732 143.062C0.510664 143.219 0.474926 143.377 0.442864 143.536C0.40145 143.745 0.36538 143.957 0.329978 144.168C0.303927 144.323 0.275204 144.478 0.251491 144.634C0.218426 144.857 0.192375 145.082 0.16599 145.306C0.148623 145.454 0.127915 145.601 0.11322 145.75C0.0885052 145.999 0.0721409 146.251 0.0557755 146.502C0.0474259 146.629 0.034734 146.754 0.0287223 146.881C0.0096851 147.261 0 147.642 0 148.026C0 148.818 0.0400781 149.6 0.118565 150.371C1.29753 161.942 11.0977 171.001 22.9745 171.001H22.9752C22.9759 171.001 22.9769 171.001 22.9769 171.001C23.3329 171.001 23.6869 170.99 24.039 170.974C24.1258 170.97 24.2116 170.965 24.2985 170.96C24.6208 170.942 24.9427 170.918 25.2617 170.886C25.2881 170.884 25.3144 170.882 25.3412 170.879C33.3191 170.069 40.1922 165.203 43.6316 158.117C50.7788 162.634 58.8022 165 67.0937 165C75.3836 165 83.4072 162.634 90.5555 158.117C94.3299 165.895 102.242 171.001 111.212 171.001C123.88 171.001 134.186 160.694 134.186 148.026C134.187 136.147 125.126 126.345 113.553 125.168ZM17.9724 20.5485C17.9724 13.147 23.9935 7.12558 31.3947 7.12558C36.668 7.12558 41.4747 10.2333 43.6409 15.0427C44.049 15.9488 44.8165 16.6432 45.7587 16.9585C46.7015 17.2737 47.7326 17.1812 48.6033 16.7033C54.2356 13.6126 60.6301 11.9791 67.0944 11.9791C73.5587 11.9791 79.9522 13.6126 85.5845 16.7033C86.4559 17.1809 87.4865 17.2741 88.4287 16.9585C89.3709 16.6432 90.1387 15.9488 90.5469 15.043C92.7138 10.2333 97.5205 7.12558 102.794 7.12558C110.195 7.12558 116.217 13.147 116.217 20.5485C116.217 26.7102 112.051 32.0623 106.085 33.5646C105.121 33.807 104.303 34.4413 103.827 35.3136C103.351 36.1857 103.261 37.2174 103.579 38.1589C104.914 42.1156 105.591 46.2594 105.591 50.4756C105.591 71.703 88.3215 88.9725 67.0947 88.9725C45.8673 88.9725 28.5972 71.703 28.5972 50.4756C28.5972 46.3191 29.2578 42.2352 30.5547 38.3319C30.5771 38.2761 30.5998 38.2207 30.6195 38.1629C31.4438 35.7211 32.5189 33.3535 33.8134 31.1265C34.802 29.4251 34.2245 27.2445 32.5242 26.256C30.8225 25.2674 28.6423 25.8445 27.6533 27.5458C26.7342 29.1276 25.9103 30.7698 25.1859 32.4541C20.8243 30.1853 17.9724 25.6448 17.9724 20.5485ZM87.6532 101.065C87.6532 109.197 85.3854 116.799 81.2674 122.474C77.3995 127.803 72.3663 130.738 67.0947 130.738C61.8224 130.738 56.7886 127.803 52.9204 122.474C48.8023 116.8 46.5346 109.197 46.5346 101.065C46.5346 97.8404 46.8966 94.7127 47.5963 91.7158C53.5122 94.524 60.1224 96.098 67.0947 96.098C74.0663 96.098 80.6762 94.524 86.5918 91.7158C87.2912 94.7123 87.6532 97.8401 87.6532 101.065ZM38.3402 151.92C38.3292 151.964 38.3175 152.007 38.3062 152.051C36.7234 158.075 31.6755 162.71 25.43 163.685C25.3959 163.69 25.3612 163.695 25.3271 163.7C25.1211 163.731 24.9143 163.757 24.7063 163.779C24.6425 163.786 24.5793 163.794 24.5152 163.8C24.3268 163.818 24.1365 163.831 23.9458 163.843C23.877 163.847 23.8078 163.853 23.739 163.856C23.4872 163.868 23.234 163.875 22.9792 163.875C22.9782 163.875 22.9772 163.875 22.9755 163.875C15.3283 163.875 8.92844 158.431 7.44788 151.216C7.23647 150.185 7.12592 149.118 7.12592 148.026C7.12592 146.934 7.23713 145.867 7.44788 144.836C8.92844 137.62 15.3283 132.176 22.9755 132.176C23.2801 132.176 23.5874 132.187 23.894 132.204C23.9865 132.21 24.0787 132.219 24.1709 132.226C24.3806 132.241 24.59 132.26 24.7984 132.284C32.6818 133.191 38.8252 139.903 38.8252 148.026C38.8255 149.369 38.6562 150.673 38.3402 151.92ZM111.212 163.875C103.83 163.875 97.4884 158.866 95.7898 151.693C95.7507 151.526 95.6966 151.365 95.6345 151.208C95.4194 150.161 95.3042 149.094 95.3042 148.025C95.3042 146.294 95.586 144.583 96.1414 142.942C96.7723 141.079 95.7734 139.056 93.9098 138.425C92.0464 137.794 90.0235 138.793 89.3923 140.657C88.5867 143.036 88.1786 145.515 88.1786 148.025C88.1786 149.019 88.2497 150.012 88.3783 150.998C81.9648 155.5 74.6515 157.875 67.094 157.875C59.5142 157.875 52.1813 155.487 45.7567 150.962C45.8799 149.999 45.9504 149.021 45.9504 148.026C45.9504 137.136 38.3322 127.998 28.1476 125.644C26.6878 120.706 25.9473 115.541 25.9473 110.26C25.9473 107.109 26.2175 103.95 26.7496 100.875C26.9366 99.7939 26.6157 98.6871 25.8792 97.8745C25.1424 97.0619 24.0707 96.6337 22.9789 96.7142C22.6983 96.7349 22.4138 96.7453 22.1342 96.7453C15.8326 96.7453 10.7059 91.6186 10.7059 85.3173C10.7059 79.016 15.8329 73.8893 22.1342 73.8893C25.1137 73.8893 27.9215 75.0269 30.0627 77.0919C33.1204 81.3335 36.8874 85.0304 41.1891 88.0089C40.0078 92.1647 39.4083 96.5442 39.4083 101.066C39.4083 110.689 42.159 119.778 47.1531 126.659C52.3973 133.884 59.4795 137.863 67.094 137.863C74.7079 137.863 81.7894 133.884 87.034 126.659C92.0281 119.778 94.7781 110.689 94.7781 101.066C94.7781 96.5439 94.1796 92.1647 92.9983 88.0089C97.3001 85.0307 101.067 81.3342 104.124 77.0922C106.265 75.0272 109.073 73.8893 112.053 73.8893C118.354 73.8893 123.481 79.016 123.481 85.3173C123.481 91.6186 118.354 96.7453 112.053 96.7453C111.772 96.7453 111.488 96.7349 111.209 96.7142C110.116 96.6334 109.045 97.0619 108.308 97.8742C107.571 98.6868 107.25 99.7933 107.437 100.874C107.97 103.954 108.239 107.112 108.239 110.26C108.239 116.247 107.289 122.087 105.414 127.62C105.02 128.781 105.252 130.063 106.027 131.014C106.802 131.964 108.01 132.45 109.228 132.299C109.885 132.217 110.552 132.176 111.212 132.176C119.952 132.176 127.062 139.286 127.062 148.026C127.062 156.765 119.952 163.875 111.212 163.875Z" fill="black"/>
<path d="M52.3887 48.6618C55.3321 48.6618 57.7325 46.2611 57.7325 43.3177C57.7325 40.3753 55.3321 37.9746 52.3887 37.9746C49.4453 37.9746 47.0449 40.3753 47.0449 43.3177C47.0449 46.2611 49.4453 48.6618 52.3887 48.6618Z" fill="black"/>
<path d="M81.8011 48.6618C84.7446 48.6618 87.1452 46.2611 87.1452 43.3177C87.1452 40.3753 84.7446 37.9746 81.8011 37.9746C78.8577 37.9746 76.457 40.3753 76.457 43.3177C76.457 46.2611 78.8574 48.6618 81.8011 48.6618Z" fill="black"/>
<path d="M67.0941 62.4277C70.0375 62.4277 72.4379 60.028 72.4379 57.0846C72.4379 54.1412 70.0375 51.7405 67.0941 51.7405C64.1507 51.7405 61.75 54.1412 61.75 57.0846C61.7503 60.028 64.1507 62.4277 67.0941 62.4277Z" fill="black"/>
<path d="M96.443 130.376L96.3788 130.431C94.8569 131.678 94.6341 133.923 95.8819 135.445C96.5862 136.304 97.6082 136.749 98.6389 136.749C99.4331 136.749 100.233 136.484 100.895 135.941L101.019 135.837C102.527 134.574 102.726 132.327 101.462 130.819C100.198 129.311 97.9509 129.113 96.443 130.376Z" fill="black"/>
<path d="M36.6638 25.0032C37.6026 25.0032 38.5398 24.6345 39.2395 23.9027L39.2976 23.8406C40.6495 22.4108 40.5864 20.1561 39.157 18.8041C37.7272 17.4524 35.4721 17.5152 34.1205 18.9447C34.1165 18.949 34.0907 18.9761 34.0814 18.9868C32.7294 20.4092 32.7828 22.6586 34.2026 24.0156C34.8926 24.6752 35.7787 25.0032 36.6638 25.0032Z" fill="black"/>
</svg>
