<svg width="122" height="145" viewBox="0 0 122 145" fill="none" xmlns="http://www.w3.org/2000/svg">
<path d="M24.2273 143.296C22.4573 143.296 20.6873 142.766 19.1873 141.736L14.5374 138.576C10.5574 135.856 9.43732 130.526 11.9973 126.436C12.0373 126.376 12.0774 126.326 12.1174 126.276C12.6474 125.636 13.6076 125.536 14.2376 126.066C14.8476 126.576 14.9673 127.466 14.4973 128.096C12.8573 130.806 13.6073 134.306 16.2273 136.096L20.8772 139.256C22.6072 140.446 24.8573 140.626 26.7473 139.726C27.4973 139.366 28.3873 139.686 28.7473 140.436C29.0973 141.186 28.7874 142.076 28.0374 142.436C26.8374 143.006 25.5376 143.286 24.2376 143.286L24.2273 143.296Z" fill="#1A1A1A" stroke="black" stroke-width="2" stroke-miterlimit="10"/>
<path d="M74.6374 78.3955C74.2874 78.3955 73.9371 78.2755 73.6471 78.0255C73.0271 77.4755 72.957 76.5355 73.507 75.9055L85.6071 62.0855C86.1571 61.4655 87.0972 61.3955 87.7272 61.9455C88.3472 62.4955 88.4173 63.4356 87.8673 64.0656L75.7672 77.8855C75.4672 78.2255 75.0574 78.3955 74.6374 78.3955Z" fill="#1A1A1A" stroke="black" stroke-width="2" stroke-miterlimit="10"/>
<path d="M59.6982 54.3754C59.3782 54.3754 59.0578 54.2754 58.7778 54.0654C58.1278 53.5554 58.0078 52.6154 58.5078 51.9654L62.208 47.1954C62.718 46.5354 63.6581 46.4254 64.3081 46.9254C64.9581 47.4354 65.0781 48.3754 64.5781 49.0254L60.8779 53.7954C60.5779 54.1754 60.138 54.3754 59.688 54.3754H59.6982Z" fill="#1A1A1A" stroke="black" stroke-width="2" stroke-miterlimit="10"/>
<path d="M93.4579 55.6856C88.1579 55.6856 82.798 54.1455 78.098 50.9455C65.638 42.4555 62.4081 25.4055 70.9081 12.9555C75.0181 6.91552 81.2378 2.84555 88.4178 1.48555C95.5978 0.125551 102.868 1.64557 108.908 5.75557C121.368 14.2456 124.598 31.2956 116.098 43.7456C110.808 51.5056 102.208 55.6756 93.4681 55.6856H93.4579ZM93.5477 3.99556C92.0277 3.99556 90.4981 4.13555 88.9681 4.42555C82.5781 5.63555 77.0478 9.25551 73.3778 14.6355C65.8178 25.7255 68.688 40.9055 79.788 48.4655C90.878 56.0255 106.058 53.1556 113.618 42.0556C121.178 30.9656 118.308 15.7855 107.208 8.22554C103.118 5.43554 98.3877 3.98555 93.5477 3.98555V3.99556Z" fill="#1A1A1A" stroke="black" stroke-width="2" stroke-miterlimit="10"/>
<path d="M93.5085 43.6555C90.4885 43.6555 87.4789 42.7655 84.8889 40.9955C84.2089 40.5255 84.0287 39.5955 84.4987 38.9155C84.9687 38.2355 85.8988 38.0555 86.5788 38.5255C90.5988 41.2655 95.8788 41.3755 100.019 38.8055C101.469 37.9055 102.699 36.7255 103.669 35.2855C104.139 34.5955 105.069 34.4255 105.749 34.8955C106.429 35.3655 106.609 36.2955 106.139 36.9755C104.929 38.7555 103.399 40.2255 101.589 41.3455C99.1086 42.8855 96.2987 43.6555 93.4987 43.6555H93.5085Z" fill="#1A1A1A" stroke="black" stroke-width="2" stroke-miterlimit="10"/>
<path d="M49.627 143.836C49.127 143.836 48.6372 143.586 48.3472 143.126C46.7572 140.566 44.4969 138.456 41.8369 137.046L35.9273 133.906C29.9873 130.756 24.9773 126.066 21.4273 120.366L2.25685 89.5457C1.08685 87.6557 0.7173 85.4257 1.2173 83.2557C1.7173 81.0857 3.03726 79.2556 4.92726 78.0756C6.81726 76.8956 9.0473 76.5357 11.2173 77.0357C13.3873 77.5357 15.217 78.8557 16.397 80.7457C16.837 81.4457 16.617 82.3757 15.917 82.8157C15.217 83.2557 14.2872 83.0357 13.8472 82.3357C13.0972 81.1257 11.9171 80.2857 10.5371 79.9657C9.15712 79.6457 7.7271 79.8757 6.5171 80.6257C5.3071 81.3757 4.46699 82.5557 4.14699 83.9357C3.82699 85.3257 4.05714 86.7457 4.80714 87.9557L23.9771 118.776C27.2471 124.036 31.8669 128.346 37.3369 131.256L43.2471 134.396C46.3771 136.056 49.027 138.536 50.897 141.546C51.337 142.246 51.117 143.176 50.417 143.616C50.167 143.766 49.897 143.846 49.627 143.846V143.836Z" fill="#1A1A1A" stroke="black" stroke-width="2" stroke-miterlimit="10"/>
<path d="M18.7172 88.8255C18.2172 88.8255 17.7269 88.5755 17.4369 88.1155L11.9272 79.2555C10.7572 77.3655 10.3871 75.1355 10.8871 72.9655C11.3871 70.7955 12.7071 68.9655 14.5971 67.7855C16.4871 66.6155 18.7171 66.2455 20.8871 66.7455C23.0571 67.2455 24.8868 68.5655 26.0668 70.4555C26.5068 71.1555 26.2868 72.0855 25.5868 72.5255C24.8868 72.9655 23.957 72.7455 23.517 72.0455C22.767 70.8355 21.5869 69.9955 20.2069 69.6755C18.8269 69.3555 17.3969 69.5855 16.1869 70.3355C14.9769 71.0855 14.1368 72.2655 13.8168 73.6455C13.4968 75.0355 13.727 76.4555 14.477 77.6655L19.9872 86.5255C20.4272 87.2255 20.2067 88.1555 19.5068 88.5955C19.2568 88.7455 18.9872 88.8255 18.7172 88.8255Z" fill="#1A1A1A" stroke="black" stroke-width="2" stroke-miterlimit="10"/>
<path d="M29.0376 79.5757C28.5376 79.5757 28.0473 79.3258 27.7573 78.8658L20.9678 67.9557C18.5478 64.0557 19.7377 58.9158 23.6377 56.4858C25.5277 55.3158 27.7577 54.9457 29.9277 55.4457C32.0977 55.9457 33.9274 57.2657 35.1074 59.1557L41.8975 70.0658C42.3375 70.7658 42.1175 71.6957 41.4175 72.1357C40.7175 72.5757 39.7877 72.3557 39.3477 71.6557L32.5576 60.7458C31.0076 58.2558 27.7175 57.4857 25.2275 59.0357C22.7375 60.5857 21.9676 63.8758 23.5176 66.3658L30.3076 77.2757C30.7476 77.9757 30.5276 78.9057 29.8276 79.3457C29.5776 79.4957 29.3076 79.5757 29.0376 79.5757Z" fill="#1A1A1A" stroke="black" stroke-width="2" stroke-miterlimit="10"/>
<path d="M64.9365 85.6056C64.4365 85.6056 63.9467 85.3556 63.6567 84.8956L46.6968 57.6256C45.1468 55.1356 41.8567 54.3656 39.3667 55.9156C36.8767 57.4656 36.1067 60.7556 37.6567 63.2456C38.0967 63.9456 37.8768 64.8756 37.1768 65.3156C36.4768 65.7556 35.5465 65.5356 35.1065 64.8356C32.6865 60.9356 33.8764 55.7956 37.7764 53.3656C39.6664 52.1956 41.8964 51.8256 44.0664 52.3256C46.2364 52.8256 48.0666 54.1456 49.2466 56.0356L66.2066 83.3056C66.6465 84.0056 66.4266 84.9356 65.7266 85.3756C65.4766 85.5257 65.2065 85.6056 64.9365 85.6056Z" fill="#1A1A1A" stroke="black" stroke-width="2" stroke-miterlimit="10"/>
<path d="M80.7875 128.566C80.2875 128.566 79.7972 128.316 79.5072 127.856C76.4172 122.896 75.6376 116.846 77.3676 111.256L78.9277 106.236C80.0577 102.596 80.5775 98.8157 80.4775 94.9957L80.2973 87.6157C80.2773 86.7857 80.9372 86.0957 81.7572 86.0757C82.5972 86.0857 83.2773 86.7157 83.2973 87.5357L83.4775 94.9157C83.5775 99.0557 83.0175 103.156 81.7875 107.116L80.2275 112.136C78.7575 116.886 79.4173 122.036 82.0473 126.266C82.4873 126.966 82.2673 127.896 81.5673 128.336C81.3173 128.486 81.0473 128.566 80.7773 128.566H80.7875Z" fill="#1A1A1A" stroke="black" stroke-width="2" stroke-miterlimit="10"/>
</svg>
