<svg width="116" height="150" viewBox="0 0 116 150" fill="none" xmlns="http://www.w3.org/2000/svg">
<path d="M57.92 114.85C26.53 114.85 1 89.3099 1 57.9299C1 26.5499 26.54 1.01001 57.92 1.01001C89.3 1.01001 114.84 26.5499 114.84 57.9299C114.84 89.3099 89.3 114.85 57.92 114.85ZM57.92 4C28.19 4 4 28.1899 4 57.9199C4 87.6499 28.19 111.84 57.92 111.84C87.65 111.84 111.84 87.6499 111.84 57.9199C111.84 28.1899 87.65 4 57.92 4Z" fill="#1A1A1A" stroke="black" stroke-width="2" stroke-miterlimit="10"/>
<path d="M57.9205 114.85C39.5305 114.85 24.5605 89.3099 24.5605 57.9299C24.5605 26.5499 39.5205 1.01001 57.9205 1.01001C76.3205 1.01001 91.2805 26.5499 91.2805 57.9299C91.2805 89.3099 76.3205 114.85 57.9205 114.85ZM57.9205 4C41.1805 4 27.5605 28.1899 27.5605 57.9199C27.5605 87.6499 41.1805 111.84 57.9205 111.84C74.6605 111.84 88.2805 87.6499 88.2805 57.9199C88.2805 28.1899 74.6605 4 57.9205 4Z" fill="#1A1A1A" stroke="black" stroke-width="2" stroke-miterlimit="10"/>
<path d="M57.9199 114.85C57.0899 114.85 56.4199 114.18 56.4199 113.35V2.5C56.4199 1.67 57.0899 1 57.9199 1C58.7499 1 59.4199 1.67 59.4199 2.5V113.35C59.4199 114.18 58.7499 114.85 57.9199 114.85Z" fill="#1A1A1A" stroke="black" stroke-width="2" stroke-miterlimit="10"/>
<path d="M76.9503 148.72H38.8803C34.1603 148.72 30.3203 144.88 30.3203 140.15V129.99C30.3203 125.27 34.1603 121.42 38.8803 121.42H76.9503C81.6703 121.42 85.5103 125.26 85.5103 129.99V140.15C85.5103 144.87 81.6703 148.72 76.9503 148.72ZM38.8803 124.43C35.8103 124.43 33.3203 126.93 33.3203 130V140.16C33.3203 143.23 35.8203 145.73 38.8803 145.73H76.9503C80.0203 145.73 82.5103 143.23 82.5103 140.16V130C82.5103 126.93 80.0103 124.43 76.9503 124.43H38.8803Z" fill="#1A1A1A" stroke="black" stroke-width="2" stroke-miterlimit="10"/>
<path d="M50.2712 140.7H41.2812C40.4513 140.7 39.7812 140.03 39.7812 139.2C39.7812 138.37 40.4513 137.7 41.2812 137.7H50.2712C51.1012 137.7 51.7712 138.37 51.7712 139.2C51.7712 140.03 51.1012 140.7 50.2712 140.7Z" fill="#1A1A1A" stroke="black" stroke-width="2" stroke-miterlimit="10"/>
</svg>
