<svg width="136" height="136" viewBox="0 0 136 136" fill="none" xmlns="http://www.w3.org/2000/svg">
<path d="M67.9102 134.79C50.7702 134.79 33.6401 128.27 20.6001 115.22C7.9601 102.58 1 85.78 1 67.91C1 50.04 7.9601 33.24 20.6001 20.6C33.2401 7.96004 50.0402 1 67.9102 1C85.7802 1 102.58 7.96004 115.22 20.6C141.31 46.69 141.31 89.14 115.22 115.22C102.18 128.26 85.0402 134.79 67.9102 134.79ZM67.9102 4C50.8402 4 34.79 10.65 22.72 22.72C10.65 34.79 4 50.84 4 67.91C4 84.98 10.65 101.03 22.72 113.1C47.64 138.02 88.1801 138.02 113.1 113.1C138.02 88.18 138.02 47.64 113.1 22.72C101.03 10.65 84.9802 4 67.9102 4Z" fill="#1A1A1A" stroke="black" stroke-width="2" stroke-miterlimit="10"/>
<path d="M21.6608 115.66C21.2808 115.66 20.8907 115.51 20.6007 115.22C20.0107 114.63 20.0107 113.68 20.6007 113.1L113.101 20.6C113.691 20.01 114.641 20.01 115.221 20.6C115.811 21.19 115.811 22.14 115.221 22.72L22.7206 115.22C22.4306 115.51 22.0408 115.66 21.6608 115.66Z" fill="#1A1A1A" stroke="black" stroke-width="2" stroke-miterlimit="10"/>
<path d="M114.161 115.66C113.781 115.66 113.391 115.51 113.101 115.22L20.6007 22.7199C20.0107 22.1299 20.0107 21.1799 20.6007 20.5999C21.1907 20.0199 22.1406 20.0099 22.7206 20.5999L115.221 113.1C115.811 113.69 115.811 114.64 115.221 115.22C114.931 115.51 114.541 115.66 114.161 115.66Z" fill="#1A1A1A" stroke="black" stroke-width="2" stroke-miterlimit="10"/>
<path d="M2.51059 70.2401C1.72059 70.2401 1.06059 69.6301 1.01059 68.8301C0.960594 68.0001 1.59075 67.2901 2.42075 67.2401C18.8307 66.2701 34.5906 59.0001 46.8006 46.8001C59.0106 34.5901 66.2706 18.8301 67.2406 2.42008C67.2906 1.59008 68.0007 0.940051 68.8307 1.01005C69.6607 1.06005 70.2906 1.77008 70.2406 2.60008C69.2206 19.7401 61.6507 36.2001 48.9207 48.9201C36.1908 61.6501 19.7407 69.2201 2.60068 70.2401C2.57068 70.2401 2.54059 70.2401 2.51059 70.2401Z" fill="#1A1A1A" stroke="black" stroke-width="2" stroke-miterlimit="10"/>
<path d="M67.0809 134.81C67.0809 134.81 67.0208 134.81 66.9908 134.81C66.1608 134.76 65.5309 134.05 65.5809 133.22C66.6009 116.08 74.171 99.6199 86.901 86.8999C99.631 74.1699 116.081 66.5999 133.221 65.5799C134.051 65.5099 134.761 66.1599 134.811 66.9899C134.861 67.8199 134.231 68.5299 133.401 68.5799C116.991 69.5599 101.231 76.8199 89.0208 89.0199C76.8108 101.23 69.5509 116.99 68.5809 133.4C68.5309 134.2 67.8709 134.81 67.0809 134.81Z" fill="#1A1A1A" stroke="black" stroke-width="2" stroke-miterlimit="10"/>
</svg>
