<svg width="146" height="146" viewBox="0 0 146 146" fill="none" xmlns="http://www.w3.org/2000/svg">
<path d="M144.976 60.8189L136.183 62.3163C138.389 75.2774 136.56 88.6036 130.943 100.491C125.326 112.378 116.192 122.252 104.777 128.777C93.3627 135.301 80.2191 138.161 67.1257 136.969C54.0323 135.777 41.6213 130.59 31.5729 122.111C21.5245 113.633 14.3239 102.271 10.9459 89.565C7.56791 76.8588 8.1756 63.4214 12.6867 51.072C17.1979 38.7226 25.3946 28.0574 36.1673 20.5203C46.94 12.9832 59.7685 8.93821 72.9161 8.93278C81.6591 8.89487 90.316 10.6613 98.3452 14.1217C106.374 17.582 113.603 22.6618 119.58 29.0433L126.068 22.9188C119.263 15.6495 111.032 9.86225 101.889 5.91883C92.7462 1.97541 82.888 -0.0393336 72.931 0.000581684C57.9744 0.0147068 43.383 4.62266 31.1309 13.201C18.8788 21.7794 9.55741 33.9142 4.42772 47.9637C-0.701966 62.0132 -1.39234 77.2993 2.44999 91.754C6.29232 106.209 14.4819 119.134 25.9108 128.782C37.3397 138.43 51.4563 144.335 66.3508 145.697C81.2453 147.059 96.1988 143.814 109.188 136.399C122.178 128.985 132.576 117.759 138.977 104.241C145.378 90.7236 147.472 75.5659 144.976 60.8189Z" fill="black"/>
<path d="M120.927 64.6751C121.409 67.448 121.651 70.2575 121.649 73.072C121.66 84.5656 117.668 95.7043 110.36 104.575C103.052 113.446 92.8831 119.495 81.5999 121.685C70.3167 123.874 58.6234 122.066 48.5281 116.571C38.4329 111.077 30.5657 102.239 26.2778 91.575C21.9899 80.9113 21.5487 69.0872 25.0301 58.1336C28.5116 47.18 35.6983 37.7803 45.356 31.5489C55.0138 25.3176 66.5399 22.6433 77.9548 23.9856C89.3698 25.3278 99.9612 30.6026 107.91 38.9043L101.467 45.0962C94.96 38.3093 86.293 33.9994 76.9542 32.9064C67.6154 31.8134 58.1874 34.0055 50.2887 39.1063C42.39 44.2072 36.5134 51.8986 33.6677 60.8602C30.822 69.8218 31.1847 79.4945 34.6937 88.2177C38.2026 96.941 44.6387 104.171 52.8973 108.666C61.1558 113.161 70.7215 114.64 79.9522 112.851C89.1829 111.062 97.5028 106.115 103.484 98.8594C109.464 91.6042 112.733 82.4933 112.728 73.0907C112.731 70.792 112.534 68.4973 112.14 66.2325L120.927 64.6751Z" fill="black"/>
<path d="M72.2196 61.601C74.3588 61.6005 76.455 62.2011 78.2693 63.3343L82.9862 55.761C79.1507 53.3758 74.6317 52.3318 70.1386 52.7928C65.6455 53.2538 61.4327 55.1939 58.1615 58.3083C54.8903 61.4228 52.7459 65.5354 52.065 70.0005C51.3842 74.4656 52.2053 79.0303 54.3995 82.9782C56.5937 86.9262 60.0368 90.0336 64.1883 91.8129C68.3398 93.5922 72.9646 93.9425 77.3367 92.8089C81.7088 91.6752 85.5807 89.1218 88.3446 85.5495C91.1084 81.9771 92.6078 77.5881 92.6072 73.0714C92.6072 72.5024 92.5848 71.982 92.5361 71.4841L83.6563 72.3114C83.6788 72.5585 83.6863 72.8131 83.6863 73.0602C83.6855 75.3277 83.0125 77.5442 81.7522 79.4293C80.492 81.3144 78.7011 82.7835 76.606 83.6509C74.5109 84.5183 72.2057 84.7451 69.9817 84.3025C67.7577 83.86 65.7149 82.7679 64.1115 81.1645C62.5081 79.5611 61.4161 77.5183 60.9736 75.2944C60.531 73.0704 60.7577 70.7652 61.6252 68.6701C62.4926 66.575 63.9617 64.7841 65.8468 63.5238C67.7319 62.2636 69.9483 61.5905 72.2159 61.5898" fill="black"/>
<path d="M113.716 41.0605L111.616 49.0343L68.9014 70.2043L72.2706 76.9428L115.696 55.4321L121.439 58.4008C122.107 58.7459 122.844 58.9365 123.596 58.9585C124.347 58.9805 125.094 58.8334 125.781 58.5281L140.831 51.842L125.078 45.8036L127.058 41.3787L131.659 31.0464L116.527 37.7848C115.84 38.0895 115.231 38.5448 114.743 39.117C114.256 39.6892 113.904 40.3637 113.712 41.0904" fill="black"/>
</svg>
