<svg width="136" height="136" viewBox="0 0 136 136" fill="none" xmlns="http://www.w3.org/2000/svg">
<path d="M67.9102 134.79C50.7802 134.79 33.6401 128.27 20.6001 115.22C7.5601 102.17 1 85.78 1 67.91C1 50.04 7.9601 33.24 20.6001 20.6C33.2401 7.96001 50.0402 1 67.9102 1C85.7802 1 102.58 7.96001 115.22 20.6C141.31 46.69 141.31 89.14 115.22 115.22C102.18 128.26 85.0402 134.79 67.9102 134.79ZM67.9102 4C50.8402 4 34.79 10.65 22.72 22.72C10.65 34.79 4 50.84 4 67.91C4 84.98 10.65 101.03 22.72 113.1C47.64 138.02 88.1801 138.02 113.1 113.1C138.02 88.18 138.02 47.64 113.1 22.72C101.03 10.65 84.9802 4 67.9102 4Z" fill="#1A1A1A" stroke="black" stroke-width="2" stroke-miterlimit="10"/>
<path d="M67.9099 22.22C67.5999 22.22 67.2898 22.12 67.0298 21.93L46.4797 7.00999C45.8097 6.51999 45.6599 5.58999 46.1499 4.90999C46.6399 4.23999 47.5697 4.09 48.2497 4.58L67.9199 18.86L87.5798 4.58C88.2498 4.09 89.1897 4.23999 89.6797 4.90999C90.1697 5.57999 90.0198 6.51999 89.3498 7.00999L68.8098 21.93C68.5498 22.12 68.2397 22.22 67.9297 22.22H67.9099Z" fill="#1A1A1A" stroke="black" stroke-width="2" stroke-miterlimit="10"/>
<path d="M2.50038 69.73C2.04038 69.73 1.58042 69.52 1.29042 69.11C0.800416 68.44 0.950494 67.5 1.62049 67.02L21.2604 52.77L13.7604 29.67C13.5004 28.88 13.9403 28.04 14.7203 27.78C15.5103 27.52 16.3505 27.9499 16.6105 28.7399L24.4503 52.88C24.6503 53.5 24.4305 54.17 23.9005 54.5599L3.3805 69.4599C3.1105 69.6499 2.81038 69.75 2.50038 69.75V69.73Z" fill="#1A1A1A" stroke="black" stroke-width="2" stroke-miterlimit="10"/>
<path d="M48.011 131.73C47.381 131.73 46.7911 131.33 46.5811 130.69L39.0811 107.6H14.791C13.961 107.6 13.291 106.93 13.291 106.1C13.291 105.27 13.961 104.6 14.791 104.6H40.1711C40.8211 104.6 41.4011 105.02 41.6011 105.64L49.4409 129.77C49.7009 130.56 49.261 131.4 48.481 131.66C48.331 131.71 48.171 131.73 48.021 131.73H48.011Z" fill="#1A1A1A" stroke="black" stroke-width="2" stroke-miterlimit="10"/>
<path d="M87.7809 131.73C87.6309 131.73 87.471 131.71 87.321 131.66C86.531 131.4 86.101 130.56 86.361 129.77L94.2109 105.62C94.4109 105 94.991 104.58 95.641 104.58H121.041C121.871 104.58 122.541 105.25 122.541 106.08C122.541 106.91 121.871 107.58 121.041 107.58H96.7309L89.2209 130.69C89.0109 131.32 88.4309 131.73 87.7909 131.73H87.7809Z" fill="#1A1A1A" stroke="black" stroke-width="2" stroke-miterlimit="10"/>
<path d="M133.321 69.7299C133.011 69.7299 132.711 69.6399 132.441 69.4399L111.931 54.5399C111.401 54.1599 111.181 53.4799 111.391 52.8599L119.231 28.7199C119.491 27.9299 120.331 27.4999 121.121 27.7599C121.911 28.0199 122.341 28.8599 122.081 29.6499L114.581 52.7499L134.211 66.9999C134.881 67.4899 135.031 68.4199 134.541 69.0999C134.251 69.4999 133.791 69.7199 133.331 69.7199L133.321 69.7299Z" fill="#1A1A1A" stroke="black" stroke-width="2" stroke-miterlimit="10"/>
<path d="M83.3012 90.6001H52.5111C51.8611 90.6001 51.2812 90.1801 51.0812 89.5601L41.5712 60.2701C41.3712 59.6501 41.5912 58.9701 42.1112 58.5901L67.0211 40.4901C67.5511 40.1101 68.2611 40.1101 68.7811 40.4901L93.6911 58.5901C94.2211 58.9701 94.4411 59.6501 94.2311 60.2701L84.7111 89.5601C84.5111 90.1801 83.9311 90.6001 83.2811 90.6001H83.3012ZM53.6012 87.6001H82.2111L91.0512 60.3901L67.9013 43.5701L44.7511 60.3901L53.5912 87.6001H53.6012Z" fill="#1A1A1A" stroke="black" stroke-width="2" stroke-miterlimit="10"/>
</svg>
