<svg width="129" height="158" viewBox="0 0 129 158" fill="none" xmlns="http://www.w3.org/2000/svg">
<path d="M15.5856 112.958C15.1256 112.958 14.6758 112.748 14.3858 112.358C5.89584 101.058 8.4759 87.8682 11.1959 73.9182C12.8559 65.4382 14.5657 56.6581 14.0357 47.5881C14.0057 47.0381 14.2657 46.5282 14.7257 46.2282C15.1857 45.9382 15.7657 45.9182 16.2457 46.1782C23.1357 49.9382 31.4555 56.5382 35.9855 62.8682C37.2455 57.4782 40.7456 50.5381 44.6456 42.8281C51.5756 29.0981 59.4356 13.5282 56.5856 2.88819C56.4356 2.34819 56.6155 1.76819 57.0255 1.38819C57.4455 1.00819 58.0355 0.898151 58.5655 1.09815C65.5855 3.76815 74.5455 19.3482 78.0655 25.9282C82.5355 34.2582 87.3456 45.0282 88.9156 51.8482C89.1756 51.5382 89.4259 51.2282 89.6959 50.9082C94.6259 44.9482 100.766 37.5282 99.0655 31.4882C98.8755 30.7982 99.1958 30.0582 99.8458 29.7382C100.496 29.4182 101.276 29.5982 101.706 30.1782C112.496 44.3782 125.326 79.6582 120.086 100.488C119.886 101.288 119.066 101.778 118.266 101.578C117.466 101.378 116.976 100.558 117.176 99.7582C121.766 81.5382 111.826 51.6481 102.126 36.0881C101.006 41.9581 96.1257 47.8582 92.0157 52.8182C90.9857 54.0682 90.0058 55.2482 89.1358 56.3582C88.7458 56.8582 88.0854 57.0582 87.4855 56.8582C86.8855 56.6582 86.4757 56.1082 86.4557 55.4782C86.1857 46.6082 70.0158 13.7482 60.0758 5.50818C61.1058 16.8482 53.8155 31.2882 47.3155 44.1682C42.4755 53.7482 37.9155 62.7882 38.5455 67.5482C38.6455 68.2982 38.1759 68.9983 37.4459 69.1982C36.7159 69.3982 35.9559 69.0182 35.6759 68.3182C33.4659 62.9382 25.5756 55.2882 17.1256 50.1382C17.2356 58.5882 15.6658 66.6482 14.1358 74.4782C11.4258 88.3382 9.08549 100.308 16.7755 110.548C17.2755 111.208 17.1357 112.148 16.4757 112.648C16.2057 112.848 15.8858 112.948 15.5758 112.948L15.5856 112.958Z" fill="#1A1A1A" stroke="black" stroke-width="2" stroke-miterlimit="10"/>
<path d="M94.996 101.698C94.666 101.698 94.3258 101.588 94.0458 101.358C93.4058 100.838 93.3059 99.8883 93.8359 99.2483C96.1459 96.4183 96.5063 84.8583 95.4663 79.1083C91.5563 81.1783 80.546 89.5383 78.186 94.9683C77.896 95.6283 77.176 95.9983 76.476 95.8383C75.776 95.6783 75.2859 95.0384 75.3159 94.3184C75.7059 84.8584 68.5962 69.9883 61.8862 62.7783C60.5262 65.9183 58.1062 69.7283 55.3862 74.0083C51.1762 80.6383 46.3961 88.1584 44.5361 94.9284C44.3161 95.7284 43.4862 96.1983 42.6962 95.9783C41.8962 95.7583 41.4259 94.9283 41.6459 94.1383C43.6259 86.9283 48.5259 79.2083 52.8559 72.3983C56.0159 67.4283 58.9961 62.7384 59.8261 59.6784C59.9661 59.1784 60.3461 58.7783 60.8461 58.6283C61.3461 58.4783 61.8858 58.5984 62.2758 58.9484C68.9358 64.8984 76.5161 78.8283 78.0561 89.7883C83.2961 83.4083 93.6461 75.7283 96.5161 75.6383C96.5361 75.6383 96.5459 75.6383 96.5659 75.6383C97.2259 75.6383 97.8158 76.0783 98.0058 76.7183C99.3658 81.3083 99.8762 96.6083 96.1762 101.148C95.8762 101.508 95.4461 101.698 95.0161 101.698H94.996Z" fill="#1A1A1A" stroke="black" stroke-width="2" stroke-miterlimit="10"/>
<path d="M19.5356 147.748C18.1256 147.748 16.7854 147.648 15.5454 147.418C9.32539 146.258 0.755347 136.508 1.00535 128.958C1.09535 126.268 2.4456 121.598 10.5156 120.638L81.2553 112.178C84.4653 111.798 87.9855 111.118 91.7055 110.408C99.7355 108.868 108.046 107.278 115.156 108.168C121.796 108.988 126.535 112.618 127.525 117.618C128.515 122.638 125.386 127.718 119.166 131.218C114.916 133.608 107.886 134.078 101.686 134.498C99.0655 134.678 96.5955 134.838 94.7055 135.138L47.7656 142.478C45.1456 142.888 41.9156 143.678 38.4956 144.518C32.2256 146.058 25.2856 147.758 19.5356 147.758V147.748ZM10.8657 123.608C6.4157 124.138 4.10535 125.968 4.00535 129.048C3.81535 134.988 11.2654 143.558 16.1054 144.468C21.7754 145.528 30.2854 143.438 37.7954 141.598C41.2754 140.748 44.5654 139.938 47.3154 139.508L94.2553 132.178C96.2753 131.858 98.8156 131.688 101.496 131.508C107.376 131.108 114.046 130.658 117.706 128.608C122.736 125.778 125.315 121.888 124.585 118.208C123.865 114.568 120.025 111.798 114.795 111.148C108.145 110.328 100.075 111.868 92.2754 113.358C88.4954 114.078 84.9257 114.758 81.6157 115.158L10.8755 123.618L10.8657 123.608Z" fill="#1A1A1A" stroke="black" stroke-width="2" stroke-miterlimit="10"/>
<path d="M27.1956 111.568C26.4156 111.568 25.7654 110.968 25.7054 110.178C25.5854 108.598 26.1453 107.148 27.3353 105.968C31.2853 100.658 38.6455 100.678 49.8255 106.018C50.3955 106.228 50.8055 106.778 50.8055 107.428C50.8055 108.258 50.1452 108.928 49.3152 108.928C49.0952 108.958 48.8553 108.878 48.6453 108.778C38.8453 104.068 32.6456 103.768 29.6956 107.828C29.6456 107.898 29.5854 107.968 29.5154 108.028C28.9154 108.608 28.6554 109.218 28.7054 109.938C28.7654 110.768 28.1455 111.488 27.3255 111.548C27.2855 111.548 27.2456 111.548 27.2156 111.548L27.1956 111.568Z" fill="#1A1A1A" stroke="black" stroke-width="2" stroke-miterlimit="10"/>
<path d="M97.6249 156.218C91.2749 156.218 83.6452 151.738 77.3852 147.558C76.6952 147.098 76.515 146.168 76.975 145.478C77.435 144.788 78.3651 144.608 79.0551 145.068C85.4651 149.348 94.6551 154.808 100.325 152.798C102.625 151.978 104.245 149.978 105.265 146.688C105.655 145.438 105.705 144.198 105.415 142.998C105.225 142.188 105.715 141.378 106.525 141.188C107.335 140.998 108.145 141.488 108.335 142.298C108.755 144.038 108.685 145.808 108.135 147.578C106.835 151.778 104.545 154.488 101.335 155.628C100.165 156.038 98.9252 156.228 97.6352 156.228L97.6249 156.218Z" fill="#1A1A1A" stroke="black" stroke-width="2" stroke-miterlimit="10"/>
</svg>
