<svg width="154" height="122" viewBox="0 0 154 122" fill="none" xmlns="http://www.w3.org/2000/svg">
<path d="M7.15928 60.316C6.90928 60.316 6.64929 60.2559 6.41929 60.1159C5.69929 59.7059 5.44923 58.786 5.85923 58.066C13.6292 44.466 37.2893 3.06597 56.1393 1.07597C60.4293 0.625966 64.2092 2.17597 67.3592 5.70597C67.9092 6.32597 67.8592 7.27597 67.2392 7.82597C66.6192 8.37597 65.6692 8.32597 65.1192 7.70597C62.6092 4.90597 59.7792 3.70595 56.4492 4.05595C44.9592 5.27595 28.8092 23.9459 8.45921 59.5559C8.17921 60.0359 7.67928 60.316 7.15928 60.316Z" fill="#1A1A1A" stroke="black" stroke-width="2" stroke-miterlimit="10"/>
<path d="M36.6994 60.316C36.5694 60.316 36.4295 60.296 36.2995 60.266C35.4995 60.046 35.0295 59.2159 35.2495 58.4259C38.6695 45.9659 44.4195 28.856 50.2795 18.196C50.6795 17.466 51.5894 17.2059 52.3194 17.6059C53.0494 18.0059 53.3095 18.916 52.9095 19.646C47.1695 30.086 41.5195 46.936 38.1395 59.226C37.9595 59.896 37.3494 60.326 36.6894 60.326L36.6994 60.316Z" fill="#1A1A1A" stroke="black" stroke-width="2" stroke-miterlimit="10"/>
<path d="M146.71 60.316C146.19 60.316 145.68 60.0459 145.41 59.5559C125.06 23.9459 108.92 5.27595 97.42 4.05595C94.1 3.70595 91.26 4.89597 88.75 7.70597C88.2 8.32597 87.25 8.37597 86.63 7.82597C86.01 7.27597 85.96 6.32597 86.51 5.70597C89.66 2.17597 93.4499 0.625966 97.7299 1.07597C116.58 3.06597 140.23 44.466 148.01 58.066C148.42 58.786 148.17 59.7059 147.45 60.1159C147.22 60.2459 146.96 60.316 146.71 60.316Z" fill="#1A1A1A" stroke="black" stroke-width="2" stroke-miterlimit="10"/>
<path d="M117.169 60.3161C116.509 60.3161 115.909 59.8761 115.719 59.2161C112.339 46.9261 106.689 30.0661 100.949 19.6361C100.549 18.9061 100.819 17.9961 101.539 17.5961C102.269 17.1961 103.179 17.4661 103.579 18.1861C109.439 28.8461 115.189 45.9661 118.609 58.4161C118.829 59.2161 118.359 60.0361 117.559 60.2561C117.429 60.2961 117.289 60.306 117.159 60.306L117.169 60.3161Z" fill="#1A1A1A" stroke="black" stroke-width="2" stroke-miterlimit="10"/>
<path d="M144.8 120.836H97.95C95.45 120.836 93.14 119.706 91.59 117.746L76.9399 99.0659L62.29 117.746C60.75 119.706 58.4301 120.836 55.9301 120.836H9.07996C4.62996 120.836 1 117.216 1 112.756V75.8558C1 71.4058 4.61996 67.7759 9.07996 67.7759H144.8C149.25 67.7759 152.88 71.3958 152.88 75.8558V112.756C152.88 117.216 149.26 120.836 144.8 120.836ZM76.9399 95.1359C77.3999 95.1359 77.84 95.3459 78.12 95.7059L93.95 115.886C94.92 117.126 96.38 117.826 97.95 117.826H144.8C147.6 117.826 149.88 115.546 149.88 112.746V75.8459C149.88 73.0459 147.6 70.7659 144.8 70.7659H9.07996C6.27996 70.7659 4 73.0459 4 75.8459V112.746C4 115.546 6.27996 117.826 9.07996 117.826H55.9301C57.5001 117.826 58.9601 117.116 59.9301 115.886L75.76 95.7059C76.04 95.3459 76.4799 95.1359 76.9399 95.1359Z" fill="#1A1A1A" stroke="black" stroke-width="2" stroke-miterlimit="10"/>
<path d="M52.3008 108.246H16.0508C15.2208 108.246 14.5508 107.576 14.5508 106.746V81.8657C14.5508 81.0357 15.2208 80.3657 16.0508 80.3657H57.5308C57.9808 80.3657 58.4107 80.5658 58.6907 80.9158C58.9707 81.2658 59.0907 81.7258 58.9907 82.1658L53.7607 107.046C53.6107 107.736 53.0008 108.236 52.2908 108.236L52.3008 108.246ZM17.5508 105.246H51.0807L55.6808 83.3657H17.5508V105.246Z" fill="#1A1A1A" stroke="black" stroke-width="2" stroke-miterlimit="10"/>
<path d="M137.821 108.246H101.571C100.861 108.246 100.251 107.746 100.101 107.056L94.8706 82.176C94.7806 81.736 94.8906 81.276 95.1706 80.926C95.4606 80.576 95.8805 80.376 96.3405 80.376H137.821C138.651 80.376 139.321 81.046 139.321 81.876V106.756C139.321 107.586 138.651 108.256 137.821 108.256V108.246ZM102.791 105.246H136.321V83.366H98.1905L102.791 105.246Z" fill="#1A1A1A" stroke="black" stroke-width="2" stroke-miterlimit="10"/>
</svg>
