<svg width="162" height="144" viewBox="0 0 162 144" fill="none" xmlns="http://www.w3.org/2000/svg">
<path d="M34.9715 92.722C34.5015 92.722 34.0216 92.6621 33.5616 92.5421C30.7316 91.8221 28.6116 88.9721 27.0516 83.8021C24.2216 74.3921 24.9315 64.5221 29.0415 56.0221C33.1715 47.4821 40.2515 41.332 48.9615 38.712C58.6815 35.782 69.2216 37.702 77.8716 43.972C78.5416 44.462 78.6915 45.3921 78.2115 46.0621C77.7215 46.7321 76.7816 46.8821 76.1216 46.3921C68.2316 40.6821 58.6516 38.9221 49.8316 41.5721C41.9316 43.9521 35.5115 49.5421 31.7415 57.3221C27.9615 65.1421 27.3114 74.2421 29.9314 82.9321C31.1414 86.9421 32.6116 89.2021 34.3016 89.6221C37.2616 90.3721 41.7616 85.9021 46.1116 81.5721C50.2816 77.4221 54.6014 73.132 58.9214 71.832C60.0214 71.492 61.2915 71.3121 62.7915 71.2721C62.8015 71.2721 62.8216 71.2721 62.8316 71.2721C63.6416 71.2721 64.3116 71.9221 64.3316 72.7321C64.3516 73.5621 63.7016 74.2521 62.8716 74.2721C61.6516 74.3021 60.6516 74.442 59.8016 74.702C56.1916 75.792 52.1415 79.812 48.2315 83.702C43.5815 88.322 39.1715 92.712 34.9815 92.712L34.9715 92.722Z" fill="#1A1A1A" stroke="black" stroke-width="2" stroke-miterlimit="10"/>
<path d="M42.8222 31.872C40.8922 31.872 39.0422 31.4321 37.3922 30.5521C34.4422 28.9921 32.2822 26.152 31.1422 22.352C29.9922 18.532 29.9822 14.162 31.1222 10.372C32.3822 6.16202 34.8421 3.312 38.0321 2.352C44.8021 0.312 52.4722 7.472 54.8122 15.232C55.9522 19.032 55.7122 22.582 54.1222 25.522C52.6422 28.242 50.0121 30.2921 46.7321 31.2821C45.4221 31.6721 44.1022 31.872 42.8222 31.872ZM40.3822 5.02204C39.8722 5.02204 39.3722 5.092 38.9022 5.232C36.7322 5.882 34.9521 8.07201 34.0021 11.242C33.0421 14.432 33.0521 18.262 34.0221 21.492C34.9321 24.502 36.5821 26.722 38.8021 27.902C40.8721 29.002 43.3122 29.172 45.8722 28.402C48.4322 27.632 50.3721 26.142 51.4921 24.082C52.6921 21.872 52.852 19.112 51.942 16.092C50.102 9.96199 44.7322 5.01203 40.3822 5.01203V5.02204Z" fill="#1A1A1A" stroke="black" stroke-width="2" stroke-miterlimit="10"/>
<path d="M13.0914 54.552C12.1414 54.552 11.2013 54.422 10.3013 54.162C7.41133 53.332 4.99131 51.242 3.28131 48.112C1.57131 44.982 0.761341 41.162 1.06134 37.632C1.39134 33.692 3.03121 30.722 5.68121 29.282C11.2612 26.232 19.3313 31.082 22.8113 37.462C26.1713 43.612 24.5014 49.8921 18.6614 53.0721C16.8714 54.0521 14.9614 54.552 13.0914 54.552ZM9.47125 31.362C8.61125 31.362 7.8114 31.542 7.1214 31.922C5.4114 32.852 4.29133 35.032 4.05133 37.892C3.80133 40.802 4.5012 44.0921 5.9212 46.6821C7.2312 49.0921 9.04141 50.682 11.1314 51.282C13.0814 51.842 15.1813 51.5521 17.2213 50.4421C21.5513 48.0821 22.7112 43.552 20.1712 38.902C17.7512 34.472 13.0713 31.362 9.47125 31.362Z" fill="#1A1A1A" stroke="black" stroke-width="2" stroke-miterlimit="10"/>
<path d="M81.0716 34.032C78.4116 34.032 75.9616 33.192 74.0716 31.612C71.7616 29.692 70.3916 26.792 70.0916 23.252C69.4716 16.022 73.5316 7.52197 79.8716 6.98197C86.2116 6.44197 91.6415 14.132 92.2515 21.362C92.5515 24.912 91.6815 27.992 89.7315 30.282C87.9215 32.412 85.2317 33.722 82.1617 33.982C81.7917 34.012 81.4316 34.032 81.0716 34.032ZM80.4715 9.95194C80.3515 9.95194 80.2316 9.95196 80.1216 9.97196C76.0416 10.322 72.5516 16.772 73.0816 22.992C73.3116 25.722 74.3215 27.912 76.0015 29.302C77.5615 30.602 79.6017 31.182 81.9117 30.992C84.2217 30.792 86.1415 29.8719 87.4515 28.3319C88.8715 26.6719 89.4915 24.352 89.2615 21.612C88.7515 15.562 84.4615 9.95194 80.4715 9.95194Z" fill="#1A1A1A" stroke="black" stroke-width="2" stroke-miterlimit="10"/>
<path d="M122.062 142.432C117.682 142.432 113.552 137.422 109.182 132.142C105.672 127.892 102.042 123.492 98.562 122.062C95.082 120.632 89.4019 121.202 83.9219 121.752C76.6719 122.482 69.812 123.172 66.972 119.352C65.232 117.012 65.3819 113.452 67.4319 108.462C71.1719 99.3719 77.942 92.162 86.492 88.162C95.092 84.132 104.452 83.822 112.872 87.282C121.282 90.742 127.722 97.5519 130.992 106.472C134.252 115.342 133.982 125.222 130.242 134.312C128.192 139.302 125.792 141.932 122.912 142.372C122.622 142.412 122.342 142.432 122.062 142.432ZM92.4419 118.152C95.1519 118.152 97.6519 118.432 99.7119 119.282C103.892 121.002 107.762 125.692 111.512 130.232C115.422 134.962 119.452 139.852 122.472 139.402C124.202 139.142 125.882 137.042 127.482 133.172C130.932 124.782 131.182 115.672 128.192 107.512C125.212 99.402 119.372 93.202 111.742 90.062C104.112 86.922 95.602 87.212 87.782 90.882C79.912 94.572 73.672 101.222 70.222 109.612C68.632 113.492 68.3521 116.162 69.3921 117.562C71.2121 120.012 77.5321 119.372 83.6321 118.762C86.6121 118.462 89.6419 118.162 92.4519 118.162L92.4419 118.152Z" fill="#1A1A1A"/>
<path d="M127.482 133.172C125.882 137.042 124.202 139.142 122.472 139.402C119.452 139.852 115.422 134.962 111.512 130.232C107.762 125.692 103.892 121.002 99.7119 119.282C97.6519 118.432 95.1519 118.152 92.4419 118.152L92.4519 118.162C89.6419 118.162 86.6121 118.462 83.6321 118.762C77.5321 119.372 71.2121 120.012 69.3921 117.562C68.3521 116.162 68.632 113.492 70.222 109.612C73.672 101.222 79.912 94.572 87.782 90.882C95.602 87.212 104.112 86.922 111.742 90.062C119.372 93.202 125.212 99.402 128.192 107.512C131.182 115.672 130.932 124.782 127.482 133.172ZM127.482 133.172L128.872 133.742M122.062 142.432C117.682 142.432 113.552 137.422 109.182 132.142C105.672 127.892 102.042 123.492 98.562 122.062C95.082 120.632 89.4019 121.202 83.9219 121.752C76.6719 122.482 69.812 123.172 66.972 119.352C65.232 117.012 65.3819 113.452 67.4319 108.462C71.1719 99.3719 77.942 92.162 86.492 88.162C95.092 84.132 104.452 83.822 112.872 87.282C121.282 90.742 127.722 97.5519 130.992 106.472C134.252 115.342 133.982 125.222 130.242 134.312C128.192 139.302 125.792 141.932 122.912 142.372C122.622 142.412 122.342 142.432 122.062 142.432Z" stroke="black" stroke-width="2" stroke-miterlimit="10"/>
<path d="M120.862 81.1419C119.202 81.1419 117.482 80.8019 115.822 80.1119C108.982 77.3019 106.392 70.5619 109.352 63.3519C110.872 59.6619 113.623 56.2719 116.893 54.0419C120.523 51.5719 124.232 50.902 127.312 52.182C130.392 53.452 132.563 56.5319 133.403 60.8419C134.163 64.7219 133.722 69.0719 132.202 72.7619C130.692 76.4319 128.262 79.0419 125.182 80.3019C123.822 80.8619 122.362 81.1419 120.862 81.1419ZM124.082 54.562C122.392 54.562 120.472 55.2319 118.572 56.5219C115.812 58.3919 113.402 61.3719 112.122 64.4919C109.802 70.1319 111.702 75.1719 116.962 77.3319C119.432 78.3519 121.882 78.4119 124.042 77.5219C126.372 76.5619 128.232 74.5219 129.432 71.6119C130.712 68.4919 131.092 64.6819 130.462 61.4119C129.832 58.1719 128.262 55.8118 126.172 54.9518C125.532 54.6918 124.832 54.562 124.092 54.562H124.082Z" fill="#1A1A1A" stroke="black" stroke-width="2" stroke-miterlimit="10"/>
<path d="M82.6519 79.5418C81.8919 79.5418 81.1018 79.4719 80.2918 79.3219C77.2618 78.7619 74.7118 77.1918 73.1218 74.8918C71.4118 72.4218 70.8417 69.2718 71.4917 65.7718C72.8117 58.6318 78.9617 51.5218 85.2317 52.6718C91.4917 53.8318 94.6918 62.6819 93.3618 69.8219C92.2418 75.8619 88.0719 79.5418 82.6519 79.5418ZM83.9019 55.5518C80.0219 55.5518 75.5117 60.5619 74.4417 66.3219C73.9417 69.0219 74.3418 71.3919 75.5818 73.1819C76.7418 74.8419 78.5518 75.9518 80.8318 76.3718C85.6818 77.2718 89.4419 74.4818 90.4019 69.2718C91.5419 63.1318 88.7016 56.3618 84.6716 55.6218C84.4216 55.5718 84.1519 55.5518 83.8919 55.5518H83.9019Z" fill="#1A1A1A" stroke="black" stroke-width="2" stroke-miterlimit="10"/>
<path d="M148.022 106.622C145.832 106.622 143.612 105.912 141.622 104.552C139.072 102.822 137.372 100.352 136.842 97.612C136.262 94.662 137.022 91.552 139.022 88.612C141.032 85.662 144.062 83.202 147.332 81.852C150.992 80.352 154.382 80.4521 156.872 82.1521C162.132 85.7321 161.492 95.122 157.412 101.122C155.412 104.062 152.792 105.912 149.832 106.452C149.232 106.562 148.632 106.612 148.022 106.612V106.622ZM152.212 83.8121C151.072 83.8121 149.792 84.0821 148.472 84.6321C145.772 85.7421 143.162 87.8621 141.502 90.3021C139.962 92.5721 139.362 94.9021 139.782 97.0421C140.172 99.0321 141.392 100.772 143.302 102.082C145.222 103.392 147.282 103.882 149.282 103.512C151.432 103.112 153.381 101.712 154.921 99.4421C158.441 94.2721 158.561 86.9421 155.171 84.6421C154.361 84.0921 153.352 83.8221 152.202 83.8221L152.212 83.8121Z" fill="#1A1A1A" stroke="black" stroke-width="2" stroke-miterlimit="10"/>
</svg>
