<svg width="128" height="137" viewBox="0 0 128 137" fill="none" xmlns="http://www.w3.org/2000/svg">
<path d="M52.2542 33.8297C49.3742 33.8297 46.5242 33.0397 43.9742 31.4997C40.2542 29.2597 37.6042 25.6797 36.5142 21.4397C34.2542 12.6697 39.4342 3.72969 48.0542 1.50969C52.2342 0.429688 56.5943 1.0797 60.3243 3.3297C64.0443 5.5697 66.6942 9.14969 67.7842 13.3897C70.0442 22.1597 64.8642 31.0997 56.2442 33.3197C54.9242 33.6597 53.5842 33.8297 52.2542 33.8297ZM52.0342 3.99968C50.9542 3.99968 49.8742 4.13971 48.7942 4.40971C41.7742 6.21971 37.5641 13.5197 39.4141 20.6897C40.3141 24.1697 42.4742 27.0897 45.5242 28.9297C48.5542 30.7597 52.0942 31.2897 55.4942 30.4097C62.5142 28.5997 66.7243 21.2997 64.8743 14.1297C63.9743 10.6497 61.8142 7.72969 58.7642 5.88969C56.6842 4.63969 54.3742 3.98967 52.0342 3.98967V3.99968Z" fill="#1A1A1A" stroke="black" stroke-width="2" stroke-miterlimit="10"/>
<path d="M39.5142 130.73C38.4142 130.73 37.3042 130.52 36.2342 130.07C33.0542 128.73 31.0042 125.64 31.0042 122.21C31.0042 121.15 31.2143 120.09 31.6143 119.06L37.8843 87.5796V60.2797L5.53424 43.3896C3.42424 42.3896 1.84421 40.4696 1.25421 38.1396C0.804212 36.4096 0.954143 34.5296 1.68414 32.8696C2.55414 30.9196 4.12431 29.4497 6.10431 28.7197C8.07431 27.9897 10.2043 28.0797 12.1143 28.9697L46.1343 43.9697C46.8943 44.2997 47.2341 45.1896 46.9041 45.9496C46.5741 46.7096 45.6841 47.0497 44.9241 46.7197L10.8743 31.7096C9.67433 31.1496 8.36411 31.0896 7.15411 31.5396C5.93411 31.9896 4.97414 32.8997 4.43414 34.0897C3.98414 35.1197 3.88412 36.2996 4.16412 37.3896C4.54412 38.8596 5.52433 40.0696 6.87433 40.7096L40.0843 58.0496C40.5843 58.3096 40.8941 58.8196 40.8941 59.3796V87.7896C40.8941 87.9496 40.8643 88.1096 40.8243 88.2596L34.5443 119.79C34.5243 119.89 34.4942 119.98 34.4542 120.07C34.1642 120.78 34.0142 121.5 34.0142 122.21C34.0142 124.43 35.3441 126.43 37.4041 127.3C40.2041 128.48 43.4443 127.16 44.6243 124.35L55.5443 93.8696C55.7843 93.2096 56.4541 92.7896 57.1541 92.8896C57.8541 92.9796 58.3942 93.5496 58.4542 94.2496L60.6343 120.71C60.6343 120.71 60.6343 120.79 60.6343 120.83C60.6343 122.3 61.2142 123.68 62.2542 124.73C63.3042 125.77 64.6841 126.34 66.1541 126.34C69.1941 126.34 71.6741 123.87 71.6741 120.83L73.7742 54.7896C73.7742 54.5096 73.8742 54.2396 74.0242 53.9996L82.1942 41.8397C82.6542 41.1497 83.5842 40.9696 84.2742 41.4296C84.9642 41.8896 85.1441 42.8196 84.6841 43.5096L76.7542 55.3096L74.6641 120.88C74.6641 125.53 70.8441 129.34 66.1441 129.34C63.8841 129.34 61.7443 128.46 60.1243 126.86C58.5243 125.26 57.6343 123.15 57.6243 120.9L56.0142 101.41L47.4041 125.44C46.0141 128.76 42.8342 130.73 39.5042 130.73H39.5142Z" fill="#1A1A1A" stroke="black" stroke-width="2" stroke-miterlimit="10"/>
<path d="M66.1544 42.8996C65.8344 42.8996 65.5145 42.7996 65.2445 42.5896C64.5845 42.0896 64.4545 41.1496 64.9645 40.4896L87.5345 10.8996C88.7445 9.22961 90.5646 8.11959 92.6346 7.80959C94.7246 7.49959 96.8045 8.02958 98.5045 9.29958C99.9645 10.4196 101.014 11.9896 101.444 13.7296C102.004 15.8696 101.644 18.1796 100.444 20.0496C99.9945 20.7496 99.0746 20.9496 98.3746 20.5096C97.6746 20.0596 97.4744 19.1396 97.9144 18.4396C98.6644 17.2696 98.8845 15.8296 98.5345 14.4796C98.2645 13.3796 97.6044 12.3996 96.6844 11.6896C95.6444 10.9096 94.3646 10.5796 93.0746 10.7696C91.8046 10.9596 90.6845 11.6396 89.9345 12.6796L67.3446 42.2996C67.0446 42.6896 66.6044 42.8896 66.1544 42.8896V42.8996Z" fill="#1A1A1A" stroke="black" stroke-width="2" stroke-miterlimit="10"/>
<path d="M119.236 61.7596C117.476 61.7596 115.726 61.0896 114.386 59.7496L104.036 49.4096C103.446 48.8196 103.446 47.8695 104.036 47.2895C104.626 46.6995 105.566 46.6995 106.156 47.2895L116.506 57.6296C118.006 59.1296 120.456 59.1296 121.966 57.6296C122.696 56.8996 123.096 55.9296 123.096 54.8996C123.096 53.8696 122.696 52.8996 121.966 52.1696L111.616 41.8296C111.026 41.2396 111.026 40.2896 111.616 39.7096C112.206 39.1196 113.146 39.1196 113.736 39.7096L124.086 50.0496C125.386 51.3496 126.096 53.0696 126.096 54.9096C126.096 56.7496 125.386 58.4696 124.086 59.7596C122.746 61.0996 120.996 61.7696 119.236 61.7696V61.7596Z" fill="#1A1A1A" stroke="black" stroke-width="2" stroke-miterlimit="10"/>
<path d="M103.426 50.0097C100.516 50.0097 97.7756 48.8797 95.7156 46.8197C93.6556 44.7597 92.5156 42.0197 92.5156 39.1097C92.5156 36.1997 93.6456 33.4597 95.7056 31.3997C99.9556 27.1497 106.876 27.1397 111.126 31.3997C115.376 35.6497 115.386 42.5697 111.126 46.8197C109.066 48.8797 106.326 50.0197 103.416 50.0197L103.426 50.0097ZM103.426 31.1997C101.316 31.1997 99.3257 32.0197 97.8357 33.5197C96.3457 35.0097 95.5256 36.9997 95.5256 39.1097C95.5256 41.2197 96.3457 43.2097 97.8457 44.6997C99.3357 46.1897 101.326 47.0097 103.436 47.0097C105.546 47.0097 107.536 46.1897 109.026 44.6897C110.516 43.1997 111.336 41.2097 111.336 39.0997C111.336 36.9897 110.516 34.9997 109.016 33.5097C107.526 32.0197 105.536 31.1997 103.426 31.1997Z" fill="#1A1A1A" stroke="black" stroke-width="2" stroke-miterlimit="10"/>
<path d="M107.635 122.6C106.805 122.6 106.135 121.93 106.135 121.1V66.2896C106.135 65.4596 106.805 64.7896 107.635 64.7896C108.465 64.7896 109.135 65.4596 109.135 66.2896V121.1C109.135 121.93 108.465 122.6 107.635 122.6Z" fill="#1A1A1A" stroke="black" stroke-width="2" stroke-miterlimit="10"/>
<path d="M115.025 135.34C114.115 135.34 113.125 135.34 112.035 135.34C110.715 135.34 109.255 135.33 107.635 135.33C106.015 135.33 104.565 135.33 103.235 135.34C94.7846 135.37 91.9347 135.38 90.3147 133.77C89.2347 132.69 89.1445 131.21 89.1445 129.65C89.1445 124.02 97.2648 119.61 107.625 119.61C117.985 119.61 126.105 124.02 126.105 129.65C126.105 131.2 126.015 132.69 124.935 133.77C123.525 135.18 121.175 135.35 115.005 135.35L115.025 135.34ZM107.635 132.32C109.255 132.32 110.715 132.32 112.045 132.33C118.315 132.35 122.095 132.37 122.835 131.63C123.095 131.37 123.125 130.48 123.125 129.64C123.125 126.31 116.765 122.6 107.645 122.6C98.5245 122.6 92.1646 126.31 92.1646 129.64C92.1646 130.48 92.1946 131.38 92.4546 131.63C93.1946 132.36 96.9746 132.35 103.245 132.33C104.575 132.33 106.035 132.32 107.655 132.32H107.635Z" fill="#1A1A1A" stroke="black" stroke-width="2" stroke-miterlimit="10"/>
</svg>
