<svg width="124" height="176" viewBox="0 0 124 176" fill="none" xmlns="http://www.w3.org/2000/svg">
<path d="M106.101 134.74H17.1208C13.3608 134.74 10.3008 131.68 10.3008 127.93C10.3008 124.18 13.3608 121.11 17.1208 121.11H106.101C109.861 121.11 112.911 124.17 112.911 127.93C112.911 131.69 109.851 134.74 106.101 134.74ZM17.1208 124.11C15.0208 124.11 13.3008 125.82 13.3008 127.93C13.3008 130.04 15.0108 131.74 17.1208 131.74H106.101C108.201 131.74 109.911 130.03 109.911 127.93C109.911 125.83 108.201 124.11 106.101 124.11H17.1208Z" fill="#1A1A1A" stroke="black" stroke-width="2" stroke-miterlimit="10"/>
<path d="M118.271 59.7999H110.621C109.791 59.7999 109.121 59.1299 109.121 58.2999C109.121 57.4699 109.791 56.7999 110.621 56.7999H118.271C118.791 56.7999 119.221 56.38 119.221 55.86V51.1799C119.221 50.6599 118.801 50.24 118.271 50.24H110.621C109.791 50.24 109.121 49.57 109.121 48.74C109.121 47.91 109.791 47.24 110.621 47.24H118.271C120.451 47.24 122.221 49.0099 122.221 51.1799V55.86C122.221 58.04 120.451 59.7999 118.271 59.7999Z" fill="#1A1A1A" stroke="black" stroke-width="2" stroke-miterlimit="10"/>
<path d="M12.6001 59.7999H4.95996C2.77996 59.7999 1 58.03 1 55.86V51.1799C1 48.9999 2.76996 47.24 4.95996 47.24H12.6001C13.4301 47.24 14.1001 47.91 14.1001 48.74C14.1001 49.57 13.4301 50.24 12.6001 50.24H4.95996C4.42996 50.24 4 50.6599 4 51.1799V55.86C4 56.38 4.42996 56.7999 4.95996 56.7999H12.6001C13.4301 56.7999 14.1001 57.4699 14.1001 58.2999C14.1001 59.1299 13.4301 59.7999 12.6001 59.7999Z" fill="#1A1A1A" stroke="black" stroke-width="2" stroke-miterlimit="10"/>
<path d="M66.3906 20.47C65.5606 20.47 64.8906 19.8 64.8906 18.97V4.93994C64.8906 4.41994 64.4704 4 63.9404 4H59.2605C58.7405 4 58.3105 4.41994 58.3105 4.93994V18.97C58.3105 19.8 57.6405 20.47 56.8105 20.47C55.9805 20.47 55.3105 19.8 55.3105 18.97V4.93994C55.3105 2.75994 57.0805 1 59.2605 1H63.9404C66.1204 1 67.8906 2.76994 67.8906 4.93994V18.97C67.8906 19.8 67.2206 20.47 66.3906 20.47Z" fill="#1A1A1A" stroke="black" stroke-width="2" stroke-miterlimit="10"/>
<path d="M39.9306 174.6C39.2406 174.6 38.5308 174.45 37.8608 174.15L32.8508 171.81C30.3808 170.66 29.3006 167.7 30.4606 165.23L40.7106 143.25C41.0606 142.5 41.9506 142.17 42.7006 142.52C43.4506 142.87 43.7806 143.76 43.4306 144.51L33.1806 166.49C32.9606 166.97 32.9308 167.5 33.1108 167.99C33.2908 168.48 33.6508 168.87 34.1208 169.09L39.1308 171.43C40.1008 171.88 41.2706 171.45 41.7306 170.48L54.4306 143.25C54.7806 142.5 55.6706 142.17 56.4206 142.52C57.1706 142.87 57.5006 143.76 57.1506 144.51L44.4506 171.74C43.6106 173.54 41.8106 174.6 39.9406 174.6H39.9306Z" fill="#1A1A1A" stroke="black" stroke-width="2" stroke-miterlimit="10"/>
<path d="M83.2809 174.6C81.4109 174.6 79.6109 173.54 78.7709 171.74L66.081 144.5C65.731 143.75 66.051 142.86 66.811 142.51C67.561 142.16 68.451 142.48 68.801 143.24L81.4909 170.47C81.9509 171.45 83.111 171.88 84.091 171.42L89.101 169.08C90.071 168.62 90.5009 167.46 90.0409 166.48L79.7909 144.5C79.4409 143.75 79.7609 142.86 80.5209 142.51C81.2709 142.16 82.1609 142.48 82.5109 143.24L92.7609 165.22C93.9109 167.69 92.841 170.64 90.371 171.8L85.351 174.14C84.681 174.45 83.9709 174.6 83.2709 174.6H83.2809Z" fill="#1A1A1A" stroke="black" stroke-width="2" stroke-miterlimit="10"/>
<path d="M99.9902 113.48H23.2402C22.4102 113.48 21.7402 112.81 21.7402 111.98V29.6001C21.7402 28.7701 22.4102 28.1001 23.2402 28.1001H99.9902C100.82 28.1001 101.49 28.7701 101.49 29.6001V111.98C101.49 112.81 100.82 113.48 99.9902 113.48ZM24.7402 110.48H98.4902V31.1001H24.7402V110.48Z" fill="#1A1A1A" stroke="black" stroke-width="2" stroke-miterlimit="10"/>
<path d="M63.3998 90.2601C63.0098 90.2601 62.63 90.11 62.34 89.82L41.7399 69.07L35.0399 77.6001C34.5299 78.2501 33.5898 78.3601 32.9298 77.8501C32.2798 77.3401 32.1698 76.4001 32.6798 75.7401L40.4298 65.8801C40.6998 65.5401 41.0899 65.33 41.5199 65.31C41.9399 65.29 42.3698 65.4501 42.6698 65.7501L64.4598 87.7C65.0398 88.29 65.0398 89.24 64.4598 89.82C64.1698 90.11 63.7898 90.2601 63.3998 90.2601Z" fill="#1A1A1A" stroke="black" stroke-width="2" stroke-miterlimit="10"/>
<path d="M89.3496 84.3902C89.0596 84.3902 88.7595 84.3002 88.4995 84.1302L71.7695 72.6502L66.2695 76.8401C65.6095 77.3401 64.6694 77.2101 64.1694 76.5601C63.6694 75.9001 63.7994 74.9601 64.4594 74.4601L70.8296 69.6102C71.3396 69.2202 72.0496 69.2001 72.5896 69.5701L90.2094 81.6701C90.8894 82.1401 91.0696 83.0702 90.5996 83.7602C90.3096 84.1802 89.8396 84.4101 89.3596 84.4101L89.3496 84.3902Z" fill="#1A1A1A" stroke="black" stroke-width="2" stroke-miterlimit="10"/>
<path d="M76.5105 57.8501C71.4805 57.8501 67.3906 53.7601 67.3906 48.7301C67.3906 43.7001 71.4805 39.6101 76.5105 39.6101C81.5405 39.6101 85.6306 43.7001 85.6306 48.7301C85.6306 53.7601 81.5405 57.8501 76.5105 57.8501ZM76.5105 42.6101C73.1405 42.6101 70.3906 45.3501 70.3906 48.7301C70.3906 52.1101 73.1305 54.8501 76.5105 54.8501C79.8905 54.8501 82.6306 52.1101 82.6306 48.7301C82.6306 45.3501 79.8905 42.6101 76.5105 42.6101Z" fill="#1A1A1A" stroke="black" stroke-width="2" stroke-miterlimit="10"/>
</svg>
