<svg width="142" height="142" viewBox="0 0 142 142" fill="none" xmlns="http://www.w3.org/2000/svg">
<path d="M28.215 140.236C21.245 140.236 14.265 137.586 8.965 132.276C-1.655 121.656 -1.655 104.386 8.965 93.7659L9.86502 92.866C12.865 89.866 17.745 89.866 20.745 92.866L48.375 120.496C49.825 121.946 50.625 123.886 50.625 125.936C50.625 127.986 49.825 129.926 48.375 131.376L47.475 132.276C42.165 137.586 35.195 140.236 28.215 140.236ZM15.305 93.616C14.055 93.616 12.875 94.1059 11.985 94.9959L11.085 95.8959C1.635 105.346 1.635 120.716 11.085 130.166C20.535 139.616 35.905 139.616 45.355 130.166L46.255 129.266C47.145 128.376 47.635 127.196 47.635 125.946C47.635 124.696 47.145 123.516 46.255 122.626L18.625 94.9959C17.735 94.1059 16.555 93.616 15.305 93.616Z" fill="#1A1A1A" stroke="black" stroke-width="2" stroke-miterlimit="10"/>
<path d="M50.5745 124.166C48.8645 124.166 47.1545 123.516 45.8445 122.216L19.0144 95.386C17.7544 94.126 17.0645 92.446 17.0645 90.656C17.0645 88.866 17.7544 87.186 19.0144 85.926L23.5544 81.386C26.1644 78.776 30.4044 78.776 33.0144 81.386L59.8445 108.216C61.1045 109.476 61.7944 111.156 61.7944 112.946C61.7944 114.736 61.1045 116.416 59.8445 117.676L55.3044 122.216C54.0044 123.516 52.2845 124.166 50.5745 124.166ZM47.9645 120.086C49.4045 121.526 51.7444 121.526 53.1744 120.086L57.7145 115.546C58.4045 114.856 58.7844 113.926 58.7844 112.936C58.7844 111.946 58.4045 111.026 57.7145 110.326L30.8845 83.496C29.4445 82.056 27.1044 82.056 25.6744 83.496L21.1345 88.036C20.4445 88.726 20.0645 89.656 20.0645 90.646C20.0645 91.636 20.4445 92.556 21.1345 93.256L47.9645 120.086Z" fill="#1A1A1A" stroke="black" stroke-width="2" stroke-miterlimit="10"/>
<path d="M70.1959 108.016C69.5559 108.016 68.956 107.596 68.756 106.946C68.516 106.156 68.966 105.316 69.756 105.076L129.186 87.106C135.096 85.316 138.466 79.066 136.696 73.176C135.956 70.706 134.736 68.286 133.076 65.976C127.746 58.556 119.386 54.666 113.636 56.916C112.866 57.216 111.996 56.8359 111.696 56.0659C111.396 55.2959 111.776 54.4259 112.546 54.1259C119.536 51.3859 129.406 55.736 135.516 64.226C137.376 66.796 138.736 69.5259 139.576 72.3159C141.816 79.7859 137.546 87.706 130.056 89.986L70.626 107.956C70.486 107.996 70.3359 108.016 70.1959 108.016Z" fill="#1A1A1A" stroke="black" stroke-width="2" stroke-miterlimit="10"/>
<path d="M59.5656 95.3759C59.0956 95.3759 58.6356 95.1559 58.3456 94.7459C57.8656 94.0759 58.0156 93.136 58.6956 92.656L112.006 54.456C115.176 49.616 112.806 41.016 106.516 34.726C103.296 31.506 99.4455 29.226 95.6555 28.286C92.0755 27.396 88.8456 27.776 86.5756 29.366C86.0356 29.746 85.3055 29.726 84.7855 29.316C84.2655 28.906 84.0756 28.206 84.3156 27.586C86.5656 21.836 82.6756 13.476 75.2556 8.14597C72.8156 6.37597 70.1356 5.076 67.4956 4.366C61.8556 2.836 55.8556 6.27597 54.1256 12.026L36.1455 71.466C35.9055 72.256 35.0655 72.706 34.2755 72.466C33.4855 72.226 33.0355 71.386 33.2755 70.596L51.2556 11.156C53.4556 3.86598 61.0955 -0.484025 68.2855 1.46597C71.2655 2.26597 74.2855 3.73597 77.0155 5.71597C84.2555 10.926 88.4856 18.866 87.8756 25.426C90.3756 24.626 93.2956 24.596 96.3756 25.366C100.676 26.426 105.036 28.996 108.636 32.596C116.136 40.096 118.576 50.3159 114.326 56.3759C114.226 56.5159 114.106 56.636 113.976 56.736L60.4456 95.096C60.1856 95.286 59.8756 95.3759 59.5756 95.3759H59.5656Z" fill="#1A1A1A" stroke="black" stroke-width="2" stroke-miterlimit="10"/>
<path d="M47.3449 83.1659C47.0449 83.1659 46.7349 83.0759 46.4749 82.8859C45.8049 82.4059 45.6449 81.4659 46.1249 80.7959L84.4949 27.2759C84.9749 26.6059 85.9149 26.4459 86.5849 26.9359C87.2549 27.4159 87.4149 28.3559 86.9349 29.0259L48.5649 82.5459C48.2749 82.9559 47.8149 83.176 47.3449 83.176V83.1659Z" fill="#1A1A1A" stroke="black" stroke-width="2" stroke-miterlimit="10"/>
</svg>
