<svg width="143" height="121" viewBox="0 0 143 121" fill="none" xmlns="http://www.w3.org/2000/svg">
<path d="M120.75 119.411C119.92 119.411 119.25 118.741 119.25 117.911V103.911C119.25 103.081 119.92 102.411 120.75 102.411C121.58 102.411 122.25 103.081 122.25 103.911V117.911C122.25 118.741 121.58 119.411 120.75 119.411Z" fill="#1A1A1A" stroke="black" stroke-width="2" stroke-miterlimit="10"/>
<path d="M120.75 91.6809C119.92 91.6809 119.25 91.0109 119.25 90.1809V76.1809C119.25 75.3509 119.92 74.6809 120.75 74.6809C121.58 74.6809 122.25 75.3509 122.25 76.1809V90.1809C122.25 91.0109 121.58 91.6809 120.75 91.6809Z" fill="#1A1A1A" stroke="black" stroke-width="2" stroke-miterlimit="10"/>
<path d="M139.542 98.541H126.932C126.102 98.541 125.432 97.871 125.432 97.041C125.432 96.211 126.102 95.541 126.932 95.541H139.542C140.372 95.541 141.042 96.211 141.042 97.041C141.042 97.871 140.372 98.541 139.542 98.541Z" fill="#1A1A1A" stroke="black" stroke-width="2" stroke-miterlimit="10"/>
<path d="M114.571 98.541H101.961C101.131 98.541 100.461 97.871 100.461 97.041C100.461 96.211 101.131 95.541 101.961 95.541H114.571C115.401 95.541 116.071 96.211 116.071 97.041C116.071 97.871 115.401 98.541 114.571 98.541Z" fill="#1A1A1A" stroke="black" stroke-width="2" stroke-miterlimit="10"/>
<path d="M20.8105 94.3309C19.9805 94.3309 19.3105 93.6609 19.3105 92.8309V79.1909C19.3105 78.3609 19.9805 77.6909 20.8105 77.6909C21.6405 77.6909 22.3105 78.3609 22.3105 79.1909V92.8309C22.3105 93.6609 21.6405 94.3309 20.8105 94.3309Z" fill="#1A1A1A" stroke="black" stroke-width="2" stroke-miterlimit="10"/>
<path d="M20.8105 67.3109C19.9805 67.3109 19.3105 66.6409 19.3105 65.8109V52.1709C19.3105 51.3409 19.9805 50.6709 20.8105 50.6709C21.6405 50.6709 22.3105 51.3409 22.3105 52.1709V65.8109C22.3105 66.6409 21.6405 67.3109 20.8105 67.3109Z" fill="#1A1A1A" stroke="black" stroke-width="2" stroke-miterlimit="10"/>
<path d="M39.1199 74.001H26.8398C26.0098 74.001 25.3398 73.331 25.3398 72.501C25.3398 71.671 26.0098 71.001 26.8398 71.001H39.1199C39.9499 71.001 40.6199 71.671 40.6199 72.501C40.6199 73.331 39.9499 74.001 39.1199 74.001Z" fill="#1A1A1A" stroke="black" stroke-width="2" stroke-miterlimit="10"/>
<path d="M14.78 74.001H2.5C1.67 74.001 1 73.331 1 72.501C1 71.671 1.67 71.001 2.5 71.001H14.78C15.61 71.001 16.28 71.671 16.28 72.501C16.28 73.331 15.61 74.001 14.78 74.001Z" fill="#1A1A1A" stroke="black" stroke-width="2" stroke-miterlimit="10"/>
<path d="M80.8201 90.721C77.8401 90.721 74.8903 90.331 72.0603 89.551C69.1503 88.751 66.4302 87.551 63.9602 85.981C56.9702 81.561 40.5903 67.911 39.5303 36.801C39.5003 35.971 40.1502 35.281 40.9802 35.251C41.0002 35.251 41.0103 35.251 41.0303 35.251C41.8303 35.251 42.5003 35.891 42.5303 36.701C43.5403 66.381 58.9801 79.281 65.5701 83.451C67.7901 84.861 70.2401 85.941 72.8601 86.661C75.4301 87.371 78.1001 87.731 80.8201 87.731C86.3801 87.731 91.6501 86.251 96.0701 83.451C102.66 79.281 118.1 66.381 119.11 36.711C119.14 35.881 119.83 35.221 120.66 35.261C121.49 35.291 122.14 35.981 122.11 36.811C121.05 67.911 104.67 81.561 97.6804 85.981C92.7804 89.081 86.9503 90.721 80.8303 90.721H80.8201Z" fill="#1A1A1A" stroke="black" stroke-width="2" stroke-miterlimit="10"/>
<path d="M37.7698 26.5409C37.7698 26.5409 37.6797 26.5409 37.6397 26.5409C37.1797 26.5009 36.7598 26.2509 36.5098 25.8709C31.7198 18.5309 28.8197 10.7209 27.8997 2.67093C27.8097 1.85093 28.3998 1.1009 29.2198 1.0109C30.0498 0.910896 30.7897 1.5109 30.8797 2.3309C31.6997 9.4509 34.0398 16.1109 38.0198 22.6509C44.5198 16.2709 54.3699 10.3109 65.3899 6.13089C66.1699 5.84089 67.0296 6.23089 67.3196 7.00089C67.6096 7.77089 67.22 8.64088 66.45 8.93088C55.05 13.2509 44.9999 19.5009 38.8599 26.0709C38.5699 26.3809 38.1798 26.5509 37.7598 26.5509L37.7698 26.5409Z" fill="#1A1A1A" stroke="black" stroke-width="2" stroke-miterlimit="10"/>
<path d="M123.87 26.5511C123.46 26.5511 123.06 26.381 122.77 26.071C111.37 13.851 87.79 4.42106 74.33 4.17106C73.5 4.15106 72.8398 3.47103 72.8598 2.64103C72.8798 1.82103 73.5398 1.17106 74.3598 1.17106H74.3901C87.9801 1.43106 111.01 10.231 123.62 22.641C127.61 16.091 129.95 9.43103 130.76 2.33103C130.85 1.51103 131.6 0.921022 132.42 1.01102C133.24 1.10102 133.83 1.85106 133.74 2.67106C132.82 10.7111 129.92 18.511 125.13 25.871C124.88 26.261 124.46 26.5111 124 26.5511C123.96 26.5511 123.91 26.5511 123.87 26.5511Z" fill="#1A1A1A" stroke="black" stroke-width="2" stroke-miterlimit="10"/>
<path d="M66.2599 46.771C62.3099 46.771 58.8402 44.921 57.6202 42.171C57.2802 41.411 57.62 40.531 58.38 40.191C59.13 39.851 60.02 40.191 60.36 40.951C60.98 42.351 63.2099 43.771 66.2599 43.771C69.3099 43.771 71.55 42.351 72.17 40.951C72.51 40.191 73.39 39.851 74.15 40.191C74.91 40.531 75.2502 41.411 74.9102 42.171C73.6902 44.921 70.2099 46.771 66.2599 46.771Z" fill="#1A1A1A" stroke="black" stroke-width="2" stroke-miterlimit="10"/>
<path d="M95.3693 46.771C91.4193 46.771 87.9491 44.921 86.7291 42.171C86.3991 41.411 86.7294 40.531 87.4894 40.191C88.2494 39.861 89.1294 40.191 89.4694 40.951C90.0894 42.351 92.3093 43.771 95.3693 43.771C98.4293 43.771 100.659 42.351 101.279 40.951C101.609 40.191 102.499 39.851 103.259 40.191C104.019 40.521 104.359 41.411 104.019 42.171C102.799 44.921 99.3193 46.771 95.3693 46.771Z" fill="#1A1A1A" stroke="black" stroke-width="2" stroke-miterlimit="10"/>
<path d="M80.9597 70.9612C77.1097 70.9612 73.3297 70.5012 70.0197 69.6112C69.2197 69.4012 68.7397 68.5811 68.9597 67.7711C69.1697 66.9711 69.9998 66.4912 70.7898 66.7112C76.9098 68.3412 85.0096 68.3412 91.1296 66.7112C91.9296 66.4912 92.7499 66.9711 92.9699 67.7711C93.1799 68.5711 92.7099 69.3912 91.9099 69.6112C88.5999 70.4912 84.8199 70.9612 80.9699 70.9612H80.9597Z" fill="#1A1A1A" stroke="black" stroke-width="2" stroke-miterlimit="10"/>
</svg>
