<svg width="160" height="129" viewBox="0 0 160 129" fill="none" xmlns="http://www.w3.org/2000/svg">
<path d="M79.7111 49.7501C79.0611 49.7501 78.4611 49.3201 78.2411 48.7101C78.0211 48.1001 78.2211 47.3801 78.7211 46.9701C78.9911 46.7501 79.3411 46.6201 79.7111 46.6201C79.9811 46.6201 80.2511 46.6901 80.4811 46.8201C81.0411 47.1301 81.3611 47.8101 81.2611 48.4301C81.1311 49.1701 80.4611 49.7501 79.7111 49.7501Z" fill="black" stroke="black" stroke-width="2" stroke-miterlimit="10"/>
<path d="M79.71 127.6C59.01 127.6 39.54 126.1 24.88 123.38C17.68 122.04 12 120.47 8 118.72C6.27 117.96 1 115.65 1 111.71V62.5199C1 58.1699 7.29 54.6599 20.22 51.7899C31.77 49.2299 47.78 47.4799 65.3 46.8699H65.58C66.41 46.8699 67.11 47.5399 67.14 48.3699C67.15 48.7899 67.01 49.1899 66.72 49.4899C66.43 49.7999 66.05 49.9699 65.63 49.9899H65.41C48.87 50.5799 33.58 52.1799 22.36 54.5299C8 57.5299 4.96 60.6399 4.31 61.8399L4.12 62.1899V84.0399L4.31 84.3899C4.9 85.4799 8.29 89.3099 27.05 92.5999C41.33 95.0999 60.02 96.4799 79.69 96.4799C99.36 96.4799 118.05 95.0999 132.33 92.5999C151.1 89.3099 154.48 85.4899 155.07 84.3899L155.26 84.0399V62.1899L155.07 61.8399C154.43 60.6399 151.38 57.5199 137 54.5199C125.76 52.1799 110.46 50.5699 93.9 49.9899C93.48 49.9799 93.09 49.7999 92.81 49.4899C92.52 49.1799 92.37 48.7799 92.39 48.3699C92.42 47.5399 93.12 46.8599 93.96 46.8599H94.02C111.56 47.4699 127.59 49.2199 139.16 51.7799C152.11 54.6499 158.4 58.1599 158.4 62.5099V111.7C158.4 115.64 153.13 117.95 151.4 118.71C147.4 120.47 141.73 122.03 134.52 123.37C119.86 126.09 100.38 127.59 79.69 127.59L79.71 127.6ZM4.14 112.03L4.33 112.38C4.92 113.47 8.31 117.3 27.07 120.59C41.35 123.09 60.04 124.47 79.71 124.47C99.38 124.47 118.07 123.09 132.35 120.59C151.12 117.3 154.5 113.48 155.09 112.38L155.28 112.03V88.8199L153 89.9699C152.37 90.2899 151.82 90.5299 151.42 90.7099C147.42 92.4699 141.74 94.0399 134.54 95.3699C119.88 98.0899 100.4 99.5899 79.71 99.5899C59.02 99.5899 39.54 98.0899 24.88 95.3699C17.68 94.0299 12 92.4599 8 90.7099C7.59 90.5299 7.04 90.2899 6.41 89.9699L4.13 88.8199V112.03H4.14Z" fill="black" stroke="black" stroke-width="2" stroke-miterlimit="10"/>
<path d="M79.7108 85.8002C63.0808 85.8002 47.4108 84.8102 34.3908 82.9501C24.6108 81.5501 18.9108 80.0102 15.8608 78.9602C15.2308 78.7402 14.8008 78.1502 14.8008 77.4802V68.7302C14.8008 68.0602 15.2308 67.4602 15.8608 67.2502C18.9208 66.2002 24.6108 64.6602 34.3908 63.2602C47.4108 61.4002 63.0808 60.4102 79.7108 60.4102C96.3408 60.4102 112.011 61.4002 125.031 63.2602C134.811 64.6602 140.511 66.2002 143.561 67.2502C144.191 67.4702 144.621 68.0602 144.621 68.7302V77.4802C144.621 78.1502 144.191 78.7502 143.561 78.9602C140.501 80.0102 134.811 81.5501 125.031 82.9501C112.011 84.8102 96.3408 85.8002 79.7108 85.8002ZM79.7108 63.5502C63.2308 63.5502 47.7108 64.5202 34.8408 66.3702C28.4808 67.2802 23.1708 68.3402 19.0708 69.5302L17.9408 69.8602V76.3602L19.0708 76.6902C23.1708 77.8802 28.4708 78.9402 34.8408 79.8502C47.7208 81.6902 63.2408 82.6702 79.7108 82.6702C96.1808 82.6702 111.711 81.7002 124.581 79.8502C130.941 78.9402 136.251 77.8802 140.351 76.6902L141.481 76.3602V69.8602L140.351 69.5302C136.251 68.3402 130.951 67.2802 124.581 66.3702C111.701 64.5302 96.1808 63.5502 79.7108 63.5502Z" fill="black" stroke="black" stroke-width="2" stroke-miterlimit="10"/>
<path d="M57.6499 32.385C57.2399 32.385 56.84 32.2251 56.54 31.8951C54.93 30.1351 54 27.4451 54 24.5251C54 21.6051 54.92 18.9051 56.54 17.1551C57.63 15.9651 58.29 13.965 58.29 11.805C58.29 9.64503 57.64 7.65507 56.54 6.46507C55.98 5.85507 56.0204 4.90507 56.6304 4.34507C57.2404 3.78507 58.19 3.82504 58.75 4.43504C60.36 6.19504 61.29 8.87503 61.29 11.805C61.29 14.735 60.37 17.4151 58.75 19.1751C57.65 20.3651 57 22.3651 57 24.5151C57 26.6651 57.65 28.6651 58.75 29.8651C59.31 30.4751 59.2702 31.4251 58.6602 31.9851C58.3702 32.2451 58.0099 32.375 57.6499 32.375V32.385Z" fill="#1A1A1A" stroke="black" stroke-width="2" stroke-miterlimit="10"/>
<path d="M104.881 32.385C104.471 32.385 104.071 32.2251 103.771 31.8951C102.161 30.1351 101.23 27.4451 101.23 24.5251C101.23 21.6051 102.161 18.9151 103.771 17.1551C104.861 15.9651 105.521 13.965 105.521 11.805C105.521 9.64503 104.871 7.65507 103.771 6.46507C103.211 5.85507 103.251 4.90507 103.861 4.34507C104.471 3.78507 105.42 3.82504 105.98 4.43504C107.59 6.19504 108.521 8.87503 108.521 11.805C108.521 14.735 107.6 17.4151 105.98 19.1751C104.88 20.3651 104.23 22.3651 104.23 24.5151C104.23 26.6651 104.88 28.6651 105.98 29.8651C106.54 30.4751 106.501 31.4251 105.891 31.9851C105.601 32.2451 105.241 32.375 104.881 32.375V32.385Z" fill="#1A1A1A" stroke="black" stroke-width="2" stroke-miterlimit="10"/>
<path d="M81.271 29.4351C80.861 29.4351 80.4611 29.2751 80.1611 28.9451C78.5511 27.1851 77.6211 24.4951 77.6211 21.5751C77.6211 18.6551 78.5411 15.9551 80.1611 14.2051C81.2511 13.0151 81.9111 11.0151 81.9111 8.85511C81.9111 6.69511 81.2611 4.70509 80.1611 3.51509C79.6011 2.90509 79.641 1.95509 80.251 1.39509C80.861 0.835091 81.8111 0.875118 82.3711 1.48512C83.9811 3.24512 84.9111 5.92511 84.9111 8.85511C84.9111 11.7851 83.9911 14.4651 82.3711 16.2251C81.2711 17.4151 80.6211 19.4151 80.6211 21.5651C80.6211 23.7151 81.2711 25.7151 82.3711 26.9151C82.9311 27.5251 82.8913 28.4751 82.2812 29.0351C81.9913 29.2951 81.631 29.4251 81.271 29.4251V29.4351Z" fill="#1A1A1A" stroke="black" stroke-width="2" stroke-miterlimit="10"/>
</svg>
