<svg width="131" height="136" viewBox="0 0 131 136" fill="none" xmlns="http://www.w3.org/2000/svg">
<path d="M18.3862 134.78C17.9862 134.78 17.6062 134.62 17.3262 134.34L1.43618 118.45C1.10618 118.12 0.946197 117.65 1.0162 117.18C1.0862 116.71 1.36621 116.3 1.77621 116.08C7.00621 113.18 25.5362 94.4101 28.7662 86.1301C29.0662 85.3601 29.9362 84.9701 30.7062 85.2801C31.4762 85.5801 31.8562 86.4501 31.5562 87.2201C28.3562 95.4301 11.8862 112.48 4.85616 117.63L18.1562 130.93C23.2962 123.9 40.3462 107.43 48.5662 104.23C49.3362 103.93 50.2062 104.31 50.5062 105.08C50.8062 105.85 50.4262 106.72 49.6562 107.02C41.3762 110.25 22.6162 128.78 19.7162 134.01C19.4862 134.42 19.0762 134.7 18.6162 134.77C18.5462 134.77 18.4762 134.78 18.4062 134.78H18.3862Z" fill="#1A1A1A" stroke="black" stroke-width="2" stroke-miterlimit="10"/>
<path d="M74.9263 118.08C66.6463 118.08 57.8263 114.7 47.8463 106.94C44.6263 104.44 41.2363 101.42 37.7963 97.9699C34.3463 94.52 31.3364 91.1399 28.8264 87.9199C21.0764 77.9599 17.4564 68.7199 17.7664 59.6899C17.7964 58.8799 18.4564 58.2398 19.2664 58.2398C19.2864 58.2398 19.2964 58.2398 19.3164 58.2398C20.1464 58.2698 20.7964 58.9599 20.7664 59.7899C20.4864 68.0899 23.8964 76.6899 31.1964 86.0799C33.6264 89.2099 36.5563 92.4898 39.9163 95.8498C43.2763 99.2098 46.5664 102.14 49.6864 104.57C73.5864 123.16 89.8764 115.18 109.946 95.1199C130.656 74.3998 131.956 42.0099 112.856 22.9199C100.376 10.4299 81.4564 6.18984 63.4964 11.8598C62.7064 12.1098 61.8663 11.6699 61.6163 10.8799C61.3663 10.0899 61.8063 9.24985 62.5963 8.99985C81.6263 2.98985 101.696 7.5099 114.976 20.7999C135.246 41.0599 133.946 75.3599 112.066 97.2499C99.4464 109.87 87.8463 118.08 74.9263 118.08Z" fill="#1A1A1A" stroke="black" stroke-width="2" stroke-miterlimit="10"/>
<path d="M74.9262 102.48C68.3462 102.48 61.7362 98.7998 54.0462 91.4898C53.4462 90.9198 53.4262 89.9698 53.9962 89.3698C54.5662 88.7698 55.5162 88.7499 56.1162 89.3199C70.9862 103.46 80.0762 103.09 95.0262 87.7498C95.6062 87.1598 96.5562 87.1399 97.1462 87.7199C97.7362 88.2999 97.7562 89.2499 97.1762 89.8399C88.9462 98.2799 81.9562 102.48 74.9262 102.48Z" fill="#1A1A1A" stroke="black" stroke-width="2" stroke-miterlimit="10"/>
<path d="M32.2866 53.4601C17.8166 53.4601 6.05664 41.69 6.05664 27.23C6.05664 12.77 17.8266 1 32.2866 1C46.7466 1 58.5167 12.77 58.5167 27.23C58.5167 41.69 46.7466 53.4601 32.2866 53.4601ZM32.2866 3.98999C19.4766 3.98999 9.05664 14.4101 9.05664 27.2201C9.05664 40.0301 19.4766 50.4501 32.2866 50.4501C45.0966 50.4501 55.5167 40.0301 55.5167 27.2201C55.5167 14.4101 45.0966 3.98999 32.2866 3.98999Z" fill="#1A1A1A" stroke="black" stroke-width="2" stroke-miterlimit="10"/>
</svg>
