<svg width="145" height="136" viewBox="0 0 145 136" fill="none" xmlns="http://www.w3.org/2000/svg">
<path d="M42.83 134.617C19.38 134.617 1 124.547 1 111.697C1 101.087 14.07 91.9369 32.78 89.4369C33.6 89.3369 34.36 89.907 34.47 90.727C34.58 91.547 34 92.307 33.18 92.417C16.27 94.667 4 102.777 4 111.697C4 122.677 21.42 131.617 42.83 131.617C64.24 131.617 81.65 122.677 81.65 111.697C81.65 102.777 69.38 94.667 52.48 92.417C51.66 92.307 51.08 91.557 51.19 90.727C51.3 89.907 52.05 89.3369 52.87 89.4369C71.58 91.9269 84.64 101.087 84.64 111.697C84.64 124.547 66.2699 134.617 42.8199 134.617H42.83Z" fill="#1A1A1A" stroke="black" stroke-width="2" stroke-miterlimit="10"/>
<path d="M42.8301 113.197C42.0001 113.197 41.3301 112.527 41.3301 111.697V57.127C41.3301 57.127 41.3301 57.0869 41.3301 57.0669V2.49698C41.3301 1.98698 41.5901 1.50697 42.0201 1.23697C42.4501 0.956972 42.9901 0.926996 43.4501 1.137L103.21 28.4369C103.74 28.6769 104.09 29.217 104.09 29.797C104.09 30.377 103.75 30.917 103.21 31.157L44.3301 58.057V111.697C44.3301 112.527 43.6601 113.197 42.8301 113.197ZM44.3301 4.81693V54.757L98.9801 29.787L44.3301 4.81693Z" fill="#1A1A1A" stroke="black" stroke-width="2" stroke-miterlimit="10"/>
<path d="M115.721 115.087C100.411 115.087 87.9609 102.637 87.9609 87.3269C87.9609 72.0169 100.411 59.5669 115.721 59.5669C131.031 59.5669 143.481 72.0169 143.481 87.3269C143.481 102.637 131.031 115.087 115.721 115.087ZM115.721 62.5669C102.071 62.5669 90.9609 73.6769 90.9609 87.3269C90.9609 100.977 102.071 112.087 115.721 112.087C129.371 112.087 140.481 100.977 140.481 87.3269C140.481 73.6769 129.371 62.5669 115.721 62.5669Z" fill="#1A1A1A" stroke="black" stroke-width="2" stroke-miterlimit="10"/>
<path d="M115.72 104.247C108.45 104.247 102.01 99.6169 99.6804 92.7269C99.4104 91.9369 99.8404 91.0869 100.62 90.8269C101.41 90.5569 102.26 90.987 102.52 91.767C104.44 97.437 109.74 101.247 115.72 101.247C116.55 101.247 117.22 101.917 117.22 102.747C117.22 103.577 116.55 104.247 115.72 104.247Z" fill="#1A1A1A" stroke="black" stroke-width="2" stroke-miterlimit="10"/>
</svg>
