<svg width="164" height="155" viewBox="0 0 164 155" fill="none" xmlns="http://www.w3.org/2000/svg">
<path d="M132.392 154.001C122.535 154.001 113.899 147.354 111.392 137.829C111.113 136.768 111.75 135.68 112.811 135.401C113.872 135.123 114.96 135.76 115.239 136.821C117.295 144.595 124.353 150.034 132.392 150.034C140.432 150.034 147.503 144.608 149.559 136.821C149.838 135.76 150.925 135.123 151.987 135.401C153.048 135.68 153.685 136.768 153.406 137.829C150.886 147.354 142.249 154.001 132.392 154.001Z" fill="#1A1A1A" stroke="black" stroke-width="2" stroke-miterlimit="10"/>
<path d="M82.6164 154.001C72.7594 154.001 64.1099 147.354 61.6026 137.829C61.324 136.768 61.9605 135.68 63.0218 135.401C64.0831 135.123 65.1711 135.76 65.4497 136.821C67.506 144.595 74.5636 150.034 82.6164 150.034C90.6691 150.034 97.7138 144.608 99.7701 136.821C100.049 135.76 101.15 135.123 102.198 135.401C103.259 135.68 103.896 136.768 103.617 137.829C101.097 147.354 92.46 154.001 82.6164 154.001Z" fill="#1A1A1A" stroke="black" stroke-width="2" stroke-miterlimit="10"/>
<path d="M32.8143 154.001C22.9574 154.001 14.3208 147.354 11.8135 137.829C11.5349 136.768 12.1718 135.68 13.2331 135.401C14.2944 135.123 15.382 135.76 15.6606 136.821C17.7169 144.595 24.7749 150.034 32.8143 150.034C40.8538 150.034 47.9247 144.608 49.981 136.821C50.2596 135.76 51.3605 135.123 52.4085 135.401C53.4698 135.68 54.1067 136.768 53.8281 137.829C51.3075 147.354 42.6713 154.001 32.8143 154.001Z" fill="#1A1A1A" stroke="black" stroke-width="2" stroke-miterlimit="10"/>
<path d="M160.145 139.314H5.06027C3.95916 139.314 3.07031 138.425 3.07031 137.324V131.553C3.07031 129.072 3.50807 126.658 4.35712 124.389C4.74184 123.354 5.89625 122.837 6.91777 123.222C7.95255 123.607 8.46978 124.761 8.08506 125.782C7.3952 127.613 7.05024 129.55 7.05024 131.54V135.321H158.155V131.54C158.155 129.935 157.929 128.343 157.465 126.79C157.16 125.729 157.757 124.628 158.805 124.323C159.853 124.018 160.967 124.615 161.272 125.663C161.843 127.573 162.122 129.55 162.122 131.54V137.311C162.122 138.412 161.233 139.301 160.132 139.301L160.145 139.314Z" fill="#1A1A1A" stroke="black" stroke-width="2" stroke-miterlimit="10"/>
<path d="M88.7849 142.116C72.9713 142.116 54.2525 141.545 33.1589 139.913C25.3317 139.303 18.9904 136.026 14.2941 130.163C-1.36029 110.595 5.0738 66.3113 8.53634 42.5246C9.39865 36.5945 10.0752 31.9115 10.1548 29.3909C10.1946 28.2897 11.1233 27.4009 12.1979 27.4673C13.299 27.5071 14.1612 28.4224 14.1214 29.5103C14.0418 32.2431 13.3387 37.0323 12.4631 43.0951C9.09347 66.2848 2.81842 109.454 17.3982 127.682C21.4312 132.723 26.6848 135.429 33.464 135.947C86.9409 140.086 125.042 137.326 138.945 135.947C149.001 134.952 156.523 123.41 155.714 110.21C154.905 97.1027 145.088 83.2658 120.014 83.876C118.475 84.022 101.64 85.3353 87.0602 73.4619C75.6245 64.1489 68.8455 49.4099 66.9218 29.6429C66.8157 28.5551 67.6118 27.5734 68.7129 27.4673C69.8008 27.3611 70.7824 28.1571 70.8885 29.2582C72.706 47.8975 78.9811 61.7079 89.5411 70.331C103.192 81.4881 119.536 79.9227 119.696 79.9094C119.749 79.9094 119.802 79.9094 119.855 79.9094C147.9 79.2593 158.778 95.0066 159.694 109.984C160.636 125.294 151.509 138.719 139.343 139.927C130.826 140.762 113.314 142.129 88.7981 142.129L88.7849 142.116Z" fill="#1A1A1A" stroke="black" stroke-width="2" stroke-miterlimit="10"/>
<path d="M56.3752 122.573C56.3752 122.573 56.3088 122.573 56.2822 122.573C49.1316 122.228 41.8486 121.777 34.6051 121.22C31.5539 120.981 30.1343 119.946 28.9536 118.46C27.1892 116.245 24.0848 110.487 23.2224 96.6768C23.1561 95.5757 23.9918 94.6337 25.0796 94.5674C26.2073 94.5011 27.1228 95.3369 27.1891 96.4247C28.0116 109.612 30.8638 114.48 32.0445 115.966C32.5486 116.603 32.9468 117.094 34.897 117.253C42.1006 117.81 49.3573 118.261 56.4549 118.606C57.556 118.659 58.4049 119.588 58.3519 120.689C58.2988 121.75 57.4232 122.586 56.3619 122.586L56.3752 122.573Z" fill="#1A1A1A" stroke="black" stroke-width="2" stroke-miterlimit="10"/>
<path d="M68.5259 31.4464H12.5019C6.16053 31.4464 1 26.2858 1 19.9444V12.502C1 6.16065 6.16053 1 12.5019 1H68.5259C74.8673 1 80.0281 6.16065 80.0281 12.502V19.9444C80.0281 26.2858 74.8673 31.4464 68.5259 31.4464ZM12.5019 4.9932C8.36276 4.9932 4.97992 8.36285 4.97992 12.5152V19.9577C4.97992 24.0968 8.34949 27.4798 12.5019 27.4798H68.5259C72.665 27.4798 76.0482 24.1101 76.0482 19.9577V12.5152C76.0482 8.37612 72.6783 4.9932 68.5259 4.9932H12.5019Z" fill="#1A1A1A" stroke="black" stroke-width="2" stroke-miterlimit="10"/>
<path d="M56.0697 68.0497C52.899 68.0497 50.0999 65.7944 49.5294 62.5839L48.1762 55.0619C47.8711 53.3107 48.2556 51.5463 49.2638 50.1002C50.2721 48.6409 51.7977 47.6592 53.5488 47.3541L71.6842 44.0773C72.865 43.865 74.0324 44.8202 74.0324 46.0407C74.0324 47.0622 73.2762 47.898 72.2945 48.0174L54.252 51.2809C53.5489 51.4003 52.9522 51.7983 52.5409 52.3821C52.1296 52.9658 51.9836 53.6822 52.103 54.372L53.4562 61.8941C53.7083 63.3401 55.101 64.2953 56.5471 64.0432L78.9675 60.0102C80.0421 59.8245 81.0768 60.5276 81.2758 61.6155C81.4748 62.6901 80.7452 63.7248 79.6707 63.9238L57.2502 67.9701C56.8522 68.0364 56.4677 68.0762 56.0829 68.0762L56.0697 68.0497Z" fill="#1A1A1A" stroke="black" stroke-width="2" stroke-miterlimit="10"/>
<path d="M95.0073 102.291C93.6541 102.291 92.3409 101.88 91.2 101.084L84.9383 96.693C83.479 95.6714 82.5104 94.1591 82.2053 92.4079C81.9002 90.6567 82.285 88.9056 83.3065 87.4463L92.2879 74.6309C92.9247 73.7288 94.1583 73.5165 95.0604 74.1401C95.9625 74.7768 96.1749 76.0106 95.5514 76.9127L86.57 89.7281C85.7342 90.9353 86.0128 92.5936 87.22 93.4294L93.4818 97.8206C94.0655 98.2319 94.7819 98.391 95.4717 98.2584C96.1748 98.139 96.7851 97.7543 97.1831 97.1705L108.977 80.3354C109.614 79.4333 110.848 79.2211 111.75 79.8446C112.652 80.4814 112.864 81.7152 112.241 82.6173L100.447 99.4391C99.4251 100.898 97.9128 101.867 96.1616 102.172C95.7769 102.238 95.3923 102.278 94.9943 102.278L95.0073 102.291Z" fill="#1A1A1A" stroke="black" stroke-width="2" stroke-miterlimit="10"/>
</svg>
