<svg width="127" height="147" viewBox="0 0 127 147" fill="none" xmlns="http://www.w3.org/2000/svg">
<path d="M16.1084 144.991C15.4884 144.991 14.9085 144.601 14.6885 143.991C14.4185 143.211 14.8284 142.352 15.6084 142.082C18.8184 140.952 34.6885 129.052 36.4185 125.052C36.6785 124.462 37.2885 124.112 37.9185 124.152C45.0985 124.712 108.459 128.862 120.249 100.382C128.879 79.5315 114.379 44.7715 106.589 26.1015C104.609 21.3615 103.048 17.6215 102.408 15.3715C99.5385 5.3415 93.2385 2.61157 77.4585 4.57157C70.5785 5.43157 66.3986 7.13157 64.3186 9.94157C61.9386 13.1516 62.1886 18.1015 63.3086 24.5315C64.0086 28.6015 65.8586 31.4915 68.7886 33.1115C72.6086 35.2215 77.6685 34.8115 80.7486 33.5415C81.2286 33.3415 81.7685 33.4116 82.1885 33.7016C82.6085 34.0016 82.8486 34.4915 82.8186 35.0015C82.3086 45.1315 83.6485 54.2415 86.9085 62.8515C87.1985 63.6215 86.8086 64.4915 86.0386 64.7815C85.2686 65.0715 84.3984 64.6815 84.1084 63.9115C80.9284 55.5315 79.4985 46.7015 79.7385 37.0115C76.0185 37.9515 71.2386 37.8815 67.3286 35.7315C63.6086 33.6815 61.1986 29.9815 60.3386 25.0415C59.0986 17.8415 58.8784 12.2215 61.8984 8.15153C64.4984 4.64153 69.3186 2.56159 77.0786 1.59159C94.3286 -0.54841 101.969 2.97154 105.279 14.5415C105.879 16.6215 107.409 20.2916 109.349 24.9416C117.309 44.0216 132.129 79.5315 123.019 101.532C110.979 130.612 52.6784 128.232 38.6384 127.212C35.0184 132.752 19.8084 143.782 16.6084 144.912C16.4484 144.972 16.2784 145.001 16.1084 145.001V144.991Z" fill="#1A1A1A" stroke="black" stroke-width="2" stroke-miterlimit="10"/>
<path d="M69.3689 116.212C68.9889 116.212 68.609 116.212 68.229 116.192C61.679 115.972 55.289 113.812 50.239 110.092C49.569 109.602 49.4289 108.662 49.9189 107.992C50.4089 107.322 51.349 107.182 52.019 107.672C56.579 111.032 62.3791 112.992 68.3291 113.182C77.7791 113.482 86.199 109.462 90.269 102.632C90.689 101.922 91.6191 101.692 92.3291 102.112C93.0391 102.532 93.2791 103.452 92.8491 104.172C88.3891 111.662 79.4689 116.202 69.3789 116.202L69.3689 116.212Z" fill="#1A1A1A" stroke="black" stroke-width="2" stroke-miterlimit="10"/>
<path d="M96.9988 88.1313C96.4888 88.1313 95.9888 87.8714 95.7088 87.3914C94.1088 84.6714 92.6387 82.8614 90.6287 81.1414C89.0287 79.7314 87.3188 78.4914 85.5288 77.4414C81.7288 75.1814 77.5487 73.7213 73.1087 73.1113C64.3687 71.9113 55.6687 74.1514 48.6087 79.4314C48.0487 79.8514 47.2688 79.8213 46.7388 79.3713C41.8888 75.2213 35.9687 72.5614 29.6187 71.6914C20.2287 70.3914 10.6888 73.1814 3.46879 79.3214C2.83879 79.8614 1.88868 79.7814 1.35868 79.1514C0.818678 78.5214 0.898844 77.5714 1.52884 77.0414C9.40884 70.3414 19.7888 67.3213 30.0288 68.7213C36.5588 69.6213 42.6688 72.2514 47.7788 76.3414C55.2988 71.0914 64.3988 68.9014 73.5288 70.1514C78.3689 70.8214 82.9289 72.4013 87.0589 74.8713C88.9989 76.0113 90.8689 77.3614 92.5989 78.8814C94.8689 80.8214 96.5289 82.8513 98.2989 85.8713C98.7189 86.5813 98.4788 87.5014 97.7688 87.9214C97.5288 88.0614 97.2688 88.1313 97.0088 88.1313H96.9988Z" fill="#1A1A1A" stroke="black" stroke-width="2" stroke-miterlimit="10"/>
</svg>
