<svg width="137" height="147" viewBox="0 0 137 147" fill="none" xmlns="http://www.w3.org/2000/svg">
<path d="M59.4099 117.81C27.1999 117.81 1 91.61 1 59.41C1 27.21 27.1999 1 59.4099 1C91.6199 1 117.81 27.2 117.81 59.41C117.81 69.04 115.41 78.59 110.87 87.03C110.48 87.76 109.57 88.03 108.84 87.64C108.11 87.25 107.84 86.34 108.23 85.61C112.54 77.61 114.81 68.55 114.81 59.41C114.81 28.86 89.9599 4 59.4099 4C28.8599 4 4 28.86 4 59.41C4 89.96 28.8599 114.81 59.4099 114.81C62.9899 114.81 66.5299 114.47 69.9399 113.8C70.7399 113.64 71.5399 114.17 71.7 114.98C71.86 115.79 71.3298 116.58 70.5198 116.74C66.9198 117.45 63.1899 117.81 59.4099 117.81Z" fill="#1A1A1A" stroke="black" stroke-width="2" stroke-miterlimit="10"/>
<path d="M59.4101 106.31C49.6201 106.31 40.23 103.31 32.26 97.63C31.59 97.15 31.4301 96.21 31.9101 95.54C32.3901 94.86 33.3302 94.71 34.0002 95.19C41.4602 100.5 50.2501 103.31 59.4101 103.31C60.2401 103.31 60.9101 103.98 60.9101 104.81C60.9101 105.64 60.2401 106.31 59.4101 106.31Z" fill="#1A1A1A" stroke="black" stroke-width="2" stroke-miterlimit="10"/>
<path d="M16.2898 75.1599C15.6598 75.1599 15.0799 74.7599 14.8699 74.1299C13.2999 69.3899 12.5 64.4399 12.5 59.4099C12.5 58.5799 13.17 57.9099 14 57.9099C14.83 57.9099 15.5 58.5799 15.5 59.4099C15.5 64.1199 16.25 68.7599 17.71 73.1899C17.97 73.9799 17.5398 74.8299 16.7598 75.0899C16.5998 75.1399 16.4398 75.1699 16.2898 75.1699V75.1599Z" fill="#1A1A1A" stroke="black" stroke-width="2" stroke-miterlimit="10"/>
<path d="M26.5998 92.2699C26.1998 92.2699 25.8098 92.1099 25.5198 91.8099C23.0898 89.2699 20.9399 86.4499 19.1399 83.4499C18.7099 82.7399 18.9499 81.8199 19.6599 81.3899C20.3699 80.9699 21.29 81.1899 21.72 81.9099C23.4 84.7199 25.4099 87.3599 27.6899 89.7399C28.2599 90.3399 28.2399 91.2899 27.6399 91.8599C27.3499 92.1399 26.9798 92.2799 26.5998 92.2799V92.2699Z" fill="#1A1A1A" stroke="black" stroke-width="2" stroke-miterlimit="10"/>
<path d="M49.3896 84.2399C48.1096 84.2399 46.8197 83.8999 45.6597 83.2299C43.3197 81.8799 41.9297 79.4599 41.9297 76.7599V42.0599C41.9297 39.3599 43.3297 36.9399 45.6597 35.5899C47.9997 34.2399 50.7896 34.2399 53.1296 35.5899L83.1797 52.9399C85.5197 54.2899 86.9097 56.7099 86.9097 59.4099C86.9097 62.1099 85.5097 64.5299 83.1797 65.8799L53.1296 83.2299C51.9596 83.9099 50.6797 84.2399 49.3997 84.2399H49.3896ZM49.3896 37.5799C48.6196 37.5799 47.8497 37.7799 47.1597 38.1899C45.7597 38.9999 44.9297 40.4399 44.9297 42.0599V76.7599C44.9297 78.3799 45.7697 79.8199 47.1597 80.6299C48.5597 81.4399 50.2296 81.4399 51.6296 80.6299L81.6797 63.2799C83.0797 62.4699 83.9097 61.0299 83.9097 59.4099C83.9097 57.7899 83.0797 56.3499 81.6797 55.5399L51.6296 38.1899C50.9296 37.7899 50.1597 37.5799 49.3997 37.5799H49.3896Z" fill="#1A1A1A" stroke="black" stroke-width="2" stroke-miterlimit="10"/>
<path d="M113.059 145.29C110.989 145.29 108.899 145 106.859 144.41C106.669 144.42 106.469 144.41 106.289 144.34L77.2095 133.49C75.5995 132.96 74.2495 131.8 73.4695 130.23C72.6895 128.66 72.5494 126.89 73.0994 125.23C73.6494 123.57 74.8094 122.22 76.3794 121.43C77.9394 120.64 79.7194 120.51 81.3794 121.06L90.3194 124.01L71.3194 95.5099C70.3394 94.0399 69.9894 92.2698 70.3394 90.5398C70.6894 88.8098 71.6895 87.3099 73.1595 86.3299C76.1995 84.3099 80.3194 85.1299 82.3394 88.1699L92.6595 103.64L110.899 94.8998C115.439 92.8498 120.72 94.3598 123.46 98.4798L131.319 110.27C138.199 120.59 135.639 134.56 125.599 141.41C121.839 143.98 117.489 145.3 113.069 145.3L113.059 145.29ZM106.889 141.35C107.019 141.35 107.159 141.37 107.289 141.41C112.949 143.17 119.009 142.27 123.899 138.93C132.579 133 134.789 120.89 128.809 111.93L120.95 100.14C119.02 97.2499 115.319 96.1799 112.149 97.6199L92.7693 106.91C92.0893 107.23 91.2894 107.01 90.8694 106.39L79.8294 89.8398C78.7194 88.1798 76.4694 87.7298 74.8094 88.8398C73.1494 89.9498 72.6994 92.1999 73.8094 93.8599L95.2295 125.98C95.5895 126.51 95.5595 127.21 95.1795 127.72C94.7895 128.23 94.1293 128.44 93.5193 128.24L80.4495 123.92C79.5495 123.62 78.5795 123.69 77.7395 124.12C76.8895 124.55 76.2595 125.28 75.9595 126.18C75.6595 127.08 75.7295 128.04 76.1595 128.89C76.5895 129.74 77.3195 130.37 78.2195 130.67L106.869 141.36C106.869 141.36 106.889 141.36 106.899 141.36L106.889 141.35Z" fill="#1A1A1A" stroke="black" stroke-width="2" stroke-miterlimit="10"/>
</svg>
