<svg width="145" height="110" viewBox="0 0 145 110" fill="none" xmlns="http://www.w3.org/2000/svg">
<path d="M17.38 33.76C8.35001 33.76 1 26.41 1 17.38C1 8.35001 8.35001 1 17.38 1C26.41 1 33.76 8.35001 33.76 17.38C33.76 26.41 26.41 33.76 17.38 33.76ZM17.38 4C10 4 4 10 4 17.38C4 24.76 10 30.76 17.38 30.76C24.76 30.76 30.76 24.76 30.76 17.38C30.76 10 24.76 4 17.38 4Z" fill="#1A1A1A" stroke="black" stroke-width="2" stroke-miterlimit="10"/>
<path d="M108.279 95.36C103.329 95.36 93.0691 81.3199 87.7991 73.0199C83.3891 66.0799 73.1191 48.6399 73.1191 36.6299C73.1191 17.2399 88.8992 1.45996 108.289 1.45996C127.679 1.45996 143.459 17.2399 143.459 36.6299C143.459 48.6399 133.189 66.0799 128.779 73.0199C123.499 81.3199 113.249 95.36 108.299 95.36H108.279ZM108.279 4.45996C90.5392 4.45996 76.1092 18.8899 76.1092 36.6299C76.1092 44.4199 81.4192 57.4199 90.3192 71.4099C98.8992 84.8999 106.379 92.36 108.269 92.36C110.159 92.36 117.639 84.8999 126.219 71.4099C135.119 57.4199 140.429 44.4099 140.429 36.6299C140.429 18.8899 125.999 4.45996 108.259 4.45996H108.279Z" fill="#1A1A1A" stroke="black" stroke-width="2" stroke-miterlimit="10"/>
<path d="M108.279 54.9598C98.1692 54.9598 89.9492 46.7398 89.9492 36.6298C89.9492 26.5198 98.1692 18.2998 108.279 18.2998C118.389 18.2998 126.609 26.5198 126.609 36.6298C126.609 46.7398 118.389 54.9598 108.279 54.9598ZM108.279 21.2898C99.8292 21.2898 92.9492 28.1698 92.9492 36.6198C92.9492 45.0698 99.8292 51.9498 108.279 51.9498C116.729 51.9498 123.609 45.0698 123.609 36.6198C123.609 28.1698 116.729 21.2898 108.279 21.2898Z" fill="#1A1A1A" stroke="black" stroke-width="2" stroke-miterlimit="10"/>
<path d="M108.279 108.66H27.0693C15.3293 108.66 5.7793 99.1099 5.7793 87.3699V83.1799C5.7793 71.4399 15.3293 61.8899 27.0693 61.8899H42.3793C52.4593 61.8899 60.6693 53.69 60.6693 43.6V37.1699C60.6693 27.0899 52.4693 18.8799 42.3793 18.8799C41.5493 18.8799 40.8793 18.2099 40.8793 17.3799C40.8793 16.5499 41.5493 15.8799 42.3793 15.8799C54.1193 15.8799 63.6693 25.4299 63.6693 37.1699V43.6C63.6693 55.34 54.1193 64.8899 42.3793 64.8899H27.0693C16.9893 64.8899 8.7793 73.0899 8.7793 83.1799V87.3699C8.7793 97.4499 16.9793 105.66 27.0693 105.66H108.279C109.109 105.66 109.779 106.33 109.779 107.16C109.779 107.99 109.109 108.66 108.279 108.66Z" fill="#1A1A1A" stroke="black" stroke-width="2" stroke-miterlimit="10"/>
<path d="M53.1503 100.2H38.2402C37.4102 100.2 36.7402 99.5302 36.7402 98.7002C36.7402 97.8702 37.4102 97.2002 38.2402 97.2002H53.1503C53.9803 97.2002 54.6503 97.8702 54.6503 98.7002C54.6503 99.5302 53.9803 100.2 53.1503 100.2Z" fill="#1A1A1A" stroke="black" stroke-width="2" stroke-miterlimit="10"/>
<path d="M68.6701 100.2H63.5801C62.7501 100.2 62.0801 99.5302 62.0801 98.7002C62.0801 97.8702 62.7501 97.2002 63.5801 97.2002H68.6701C69.5001 97.2002 70.1701 97.8702 70.1701 98.7002C70.1701 99.5302 69.5001 100.2 68.6701 100.2Z" fill="#1A1A1A" stroke="black" stroke-width="2" stroke-miterlimit="10"/>
</svg>
